<svg width="12" height="12" viewBox="0 0 12 12" fill="none" xmlns="http://www.w3.org/2000/svg">
<path d="M6.00031 0C2.68611 0 3.25568e-08 2.68611 3.25568e-08 5.99969C-8.20546e-05 6.78768 0.155065 7.56798 0.456579 8.29601C0.758094 9.02403 1.20007 9.68554 1.75727 10.2427C2.31446 10.7999 2.97597 11.2419 3.70399 11.5434C4.43202 11.8449 5.21232 12.0001 6.00031 12C9.31326 12 12 9.31389 12 5.99969C12 2.68611 9.31326 0 6.00031 0ZM1.24993 5.99969C1.25011 5.10033 1.50562 4.21951 1.98674 3.45967C2.46786 2.69983 3.15482 2.09219 3.96772 1.70745C4.78062 1.3227 5.68605 1.17665 6.5787 1.28628C7.47134 1.39592 8.31452 1.75673 9.01016 2.32675L2.32675 9.01016C1.62924 8.16209 1.24854 7.09775 1.24993 5.99969ZM5.99969 10.7488C4.90206 10.7505 3.83808 10.37 2.99047 9.67262L9.67387 2.98984C10.2436 3.68558 10.6041 4.52875 10.7135 5.42131C10.8229 6.31387 10.6766 7.21914 10.2918 8.03186C9.90691 8.84458 9.29925 9.53135 8.53945 10.0123C7.77965 10.4933 6.89892 10.7487 5.99969 10.7488Z" fill="#3F92D1"/>
</svg>
