<svg width="13" height="14" viewBox="0 0 13 14" fill="none" xmlns="http://www.w3.org/2000/svg">
<path d="M5.05 10.25V5.75C5.05 5.66528 5.02228 5.59219 4.96504 5.53496C4.90781 5.47772 4.83472 5.45 4.75 5.45H4.25C4.16528 5.45 4.09219 5.47772 4.03496 5.53496C3.97772 5.59219 3.95 5.66528 3.95 5.75V10.25C3.95 10.3347 3.97772 10.4078 4.03496 10.465C4.09219 10.5223 4.16528 10.55 4.25 10.55H4.75C4.83472 10.55 4.90781 10.5223 4.96504 10.465C5.02228 10.4078 5.05 10.3347 5.05 10.25ZM7.05 10.25V5.75C7.05 5.66528 7.02228 5.59219 6.96504 5.53496C6.90781 5.47772 6.83472 5.45 6.75 5.45H6.25C6.16528 5.45 6.09219 5.47772 6.03496 5.53496C5.97772 5.59219 5.95 5.66528 5.95 5.75V10.25C5.95 10.3347 5.97772 10.4078 6.03496 10.465C6.09219 10.5223 6.16528 10.55 6.25 10.55H6.75C6.83472 10.55 6.90781 10.5223 6.96504 10.465C7.02228 10.4078 7.05 10.3347 7.05 10.25ZM9.05 10.25V5.75C9.05 5.66528 9.02228 5.59219 8.96504 5.53496C8.90781 5.47772 8.83472 5.45 8.75 5.45H8.25C8.16528 5.45 8.09219 5.47772 8.03496 5.53496C7.97772 5.59219 7.95 5.66528 7.95 5.75V10.25C7.95 10.3347 7.97772 10.4078 8.03496 10.465C8.09219 10.5223 8.16528 10.55 8.25 10.55H8.75C8.83472 10.55 8.90781 10.5223 8.96504 10.465C9.02228 10.4078 9.05 10.3347 9.05 10.25ZM3.05 11.4062V4.05H9.95V11.4062C9.95 11.5155 9.93264 11.6149 9.89855 11.705C9.86288 11.7992 9.82769 11.8629 9.79454 11.9005C9.7758 11.9218 9.76131 11.936 9.75077 11.9445C9.74753 11.9472 9.74509 11.9489 9.74338 11.95H3.25662C3.25491 11.9489 3.25247 11.9472 3.24923 11.9445C3.23869 11.936 3.2242 11.9218 3.20546 11.9005C3.17231 11.8629 3.13712 11.7992 3.10145 11.705C3.06736 11.6149 3.05 11.5155 3.05 11.4062ZM8.17544 2.95H4.82515L5.17624 2.11167C5.20412 2.07765 5.23555 2.0581 5.2709 2.05H7.73691C7.77222 2.05809 7.80361 2.0776 7.83146 2.11153L8.17544 2.95ZM12.05 3.75V3.25C12.05 3.16528 12.0223 3.09219 11.965 3.03496C11.9078 2.97772 11.8347 2.95 11.75 2.95H9.36919L8.8354 1.67653C8.83536 1.67644 8.83533 1.67634 8.83529 1.67625C8.75275 1.47284 8.60482 1.30145 8.39492 1.16152C8.18503 1.02159 7.96981 0.95 7.75 0.95H5.25C5.03019 0.95 4.81497 1.02159 4.60508 1.16152C4.39519 1.30145 4.24726 1.47283 4.16472 1.67624C4.16468 1.67633 4.16464 1.67643 4.1646 1.67653L3.63081 2.95H1.25C1.16528 2.95 1.09219 2.97772 1.03496 3.03496C0.977724 3.09219 0.95 3.16528 0.95 3.25V3.75C0.95 3.83472 0.977724 3.90781 1.03496 3.96504C1.09219 4.02228 1.16528 4.05 1.25 4.05H1.95V11.4375C1.95 11.8799 2.07552 12.2598 2.32821 12.5743C2.58102 12.889 2.8889 13.05 3.25 13.05H9.75C10.1118 13.05 10.4198 12.8831 10.6723 12.558C10.9245 12.2334 11.05 11.8487 11.05 11.4062V4.05H11.75C11.8347 4.05 11.9078 4.02228 11.965 3.96504C12.0223 3.90781 12.05 3.83472 12.05 3.75Z" fill="#3F92D1" stroke="#3F92D1" stroke-width="0.1"/>
</svg>
