<svg width="12" height="12" viewBox="0 0 12 12" fill="none" xmlns="http://www.w3.org/2000/svg">
<path d="M5.88889 0C5.32889 0 4.93333 0.395556 4.73778 0.888889H1V12H10.7778V0.888889H7.04C6.84444 0.395556 6.44889 0 5.88889 0ZM5.88889 0.888889C6.13333 0.888889 6.33333 1.08889 6.33333 1.33333V1.77778H7.66667V2.66667H4.11111V1.77778H5.44444V1.33333C5.44444 1.08889 5.64444 0.888889 5.88889 0.888889ZM1.88889 1.77778H3.22222V3.55556H8.55556V1.77778H9.88889V11.1111H1.88889V1.77778ZM2.77778 4.88889V5.77778H3.66667V4.88889H2.77778ZM4.55556 4.88889V5.77778H9V4.88889H4.55556ZM2.77778 6.66667V7.55556H3.66667V6.66667H2.77778ZM4.55556 6.66667V7.55556H9V6.66667H4.55556ZM2.77778 8.44444V9.33333H3.66667V8.44444H2.77778ZM4.55556 8.44444V9.33333H9V8.44444H4.55556Z" fill="#3F92D1"/>
</svg>
