<svg width="10" height="12" viewBox="0 0 10 12" fill="none" xmlns="http://www.w3.org/2000/svg">
<path d="M9.2117 3.06138C9.44314 2.82994 9.57049 2.52258 9.57049 2.19562C9.57049 1.86867 9.44314 1.5613 9.2117 1.32986L8.24063 0.358794C8.00918 0.127353 7.70182 0 7.37487 0C7.04791 0 6.74055 0.127353 6.50972 0.358182L0 6.8477V9.5509H2.70197L9.2117 3.06138ZM7.37487 1.22455L8.34655 2.19501L7.37303 3.16486L6.40196 2.1944L7.37487 1.22455ZM1.22455 8.32634V7.35589L5.53498 3.05893L6.50605 4.03L2.19623 8.32634H1.22455ZM0 10.7754H9.79642V12H0V10.7754Z" fill="#3F92D1"/>
</svg>
