<svg width="16" height="16" viewBox="0 0 16 16" fill="none" xmlns="http://www.w3.org/2000/svg">
<path d="M7.35267 1.69356C7.5507 1.58359 7.77348 1.52588 8 1.52588C8.22652 1.52588 8.4493 1.58359 8.64733 1.69356L13.6573 4.47623C13.7612 4.53399 13.8477 4.61847 13.908 4.72091C13.9682 4.82336 14 4.94005 14 5.0589V10.5489C13.9999 10.7867 13.9363 11.0201 13.8157 11.225C13.6951 11.4299 13.5219 11.5988 13.314 11.7142L8.64733 14.3076C8.4493 14.4175 8.22652 14.4752 8 14.4752C7.77348 14.4752 7.5507 14.4175 7.35267 14.3076L2.686 11.7142C2.47824 11.5989 2.30509 11.43 2.18448 11.2253C2.06386 11.0205 2.00018 10.7872 2 10.5496V5.0589C2 4.94005 2.03176 4.82336 2.09201 4.72091C2.15226 4.61847 2.2388 4.53399 2.34267 4.47623L7.35333 1.69356H7.35267Z" stroke="#575757" stroke-linecap="round" stroke-linejoin="round"/>
<path d="M2 4.66699L8 8.00033M8 8.00033L14 4.66699M8 8.00033V14.3337" stroke="#575757" stroke-linejoin="round"/>
<path d="M5 6.33333L11 3M4 8.21867L6 9.33333" stroke="#575757" stroke-linecap="round" stroke-linejoin="round"/>
</svg>
