<svg width="17" height="17" viewBox="0 0 17 17" fill="none" xmlns="http://www.w3.org/2000/svg">
<path d="M11.1421 2.125H5.85792L2.125 5.85792V11.1421L5.85792 14.875H11.1421L14.875 11.1421V5.85792L11.1421 2.125ZM13.4583 10.5542L10.5542 13.4583H6.44583L3.54167 10.5542V6.44583L6.44583 3.54167H10.5542L13.4583 6.44583V10.5542Z" fill="#3F92D1"/>
<path d="M8.49935 12.0417C8.89055 12.0417 9.20768 11.7245 9.20768 11.3333C9.20768 10.9421 8.89055 10.625 8.49935 10.625C8.10815 10.625 7.79102 10.9421 7.79102 11.3333C7.79102 11.7245 8.10815 12.0417 8.49935 12.0417Z" fill="#3F92D1"/>
<path d="M7.79102 4.9585H9.20768V9.91683H7.79102V4.9585Z" fill="#3F92D1"/>
</svg>
