<svg width="12" height="17" viewBox="0 0 12 17" fill="none" xmlns="http://www.w3.org/2000/svg">
<path d="M6.51135 0.0124459C6.788 0.0395878 7.06171 0.0804642 7.3328 0.143577C8.73535 0.469934 9.86844 1.21814 10.7334 2.35875C11.7376 3.68315 12.1428 5.18511 11.9554 6.83684C11.8338 7.90748 11.4342 8.88557 10.907 9.81689C10.2746 10.9343 9.48518 11.9418 8.71148 12.9601C7.9309 13.9876 7.16014 15.0216 6.52541 16.1488C6.45608 16.2721 6.38675 16.3954 6.32135 16.5206C6.2517 16.654 6.18139 16.7835 6.00186 16.7819C5.8207 16.7803 5.75726 16.6413 5.68859 16.5111C5.13725 15.4647 4.47407 14.4909 3.7795 13.5363C3.11076 12.6171 2.41259 11.7191 1.78048 10.7737C1.15392 9.83717 0.580018 8.87085 0.271647 7.77667C-0.315338 5.69688 0.0394686 3.7891 1.42861 2.12396C2.47309 0.872158 3.83639 0.169411 5.47112 0.0180051C5.60585 0.00557863 6.24483 -0.012407 6.51135 0.0124459ZM6.01069 2.8509C4.26968 2.85352 2.86157 4.26163 2.8655 5.99675C2.86942 7.73481 4.28702 9.1511 6.01298 9.14096C7.74581 9.13082 9.14771 7.72729 9.15033 6.00035C9.15229 4.26588 7.7396 2.84829 6.01069 2.8509Z" fill="#2196F3"/>
</svg>
