<svg width="143" height="123" viewBox="0 0 143 123" fill="none" xmlns="http://www.w3.org/2000/svg">
<rect width="143" height="123" fill="#F2F2F2"/>
<path d="M36.676 61.982H39.728V62.934H36.676V66H35.724V62.934H32.672V61.982H35.724V58.916H36.676V61.982ZM48.211 57.124H44.879V56.004H52.873V57.124H49.541V66H48.211V57.124ZM54.0661 56.004H55.2561V59.826H55.2841C55.4521 59.4153 55.7507 59.1073 56.1801 58.902C56.6187 58.6967 57.0807 58.594 57.5661 58.594C58.4621 58.594 59.1014 58.8273 59.4841 59.294C59.8667 59.7513 60.0581 60.4 60.0581 61.24V66H58.8681V61.1C58.8681 60.652 58.7374 60.2973 58.4761 60.036C58.2147 59.7747 57.8554 59.644 57.3981 59.644C56.6981 59.644 56.1661 59.854 55.8021 60.274C55.4381 60.6847 55.2561 61.2307 55.2561 61.912V66H54.0661V56.004ZM64.3374 55.766H65.6394L67.0954 57.768H65.9194L64.9534 56.424L63.9734 57.768H62.8954L64.3374 55.766ZM67.1514 61.688C67.114 61.1093 66.8994 60.624 66.5074 60.232C66.1247 59.84 65.644 59.644 65.0654 59.644C64.468 59.644 63.9827 59.84 63.6094 60.232C63.236 60.624 63.0307 61.1093 62.9934 61.688H67.1514ZM68.2994 63.704C68.1407 64.5067 67.7907 65.118 67.2494 65.538C66.7174 65.9487 66.036 66.154 65.2054 66.154C64.0947 66.154 63.2454 65.8133 62.6574 65.132C62.0787 64.4413 61.7707 63.5173 61.7334 62.36C61.7334 61.268 62.0507 60.3673 62.6854 59.658C63.3294 58.9487 64.146 58.594 65.1354 58.594C65.63 58.594 66.0734 58.6827 66.4654 58.86C66.8574 59.0373 67.1747 59.266 67.4174 59.546C67.66 59.826 67.8607 60.1527 68.0194 60.526C68.178 60.8993 68.2854 61.2727 68.3414 61.646C68.4067 62.01 68.43 62.374 68.4114 62.738H62.9934C62.9747 63.41 63.1567 63.9747 63.5394 64.432C63.922 64.8893 64.4914 65.118 65.2474 65.118C66.2927 65.118 66.918 64.6467 67.1234 63.704H68.2994ZM69.9249 58.762H71.0449V59.826H71.0729C71.6142 59.0047 72.3936 58.594 73.4109 58.594C74.4656 58.594 75.1282 59.0047 75.3989 59.826C75.9122 59.0047 76.6682 58.594 77.6669 58.594C79.2722 58.594 80.0749 59.294 80.0749 60.694V66H78.8849V61.254C78.8849 60.7407 78.7869 60.344 78.5909 60.064C78.3949 59.784 78.0262 59.644 77.4849 59.644C76.8969 59.644 76.4349 59.812 76.0989 60.148C75.7629 60.484 75.5949 60.932 75.5949 61.492V66H74.4049V61.254C74.4049 60.7407 74.3022 60.344 74.0969 60.064C73.9009 59.784 73.5509 59.644 73.0469 59.644C72.4309 59.644 71.9549 59.8587 71.6189 60.288C71.2829 60.708 71.1149 61.1093 71.1149 61.492V66H69.9249V58.762ZM88.5849 65.202C89.0143 65.202 89.4296 65.0993 89.8309 64.894C90.5216 64.5673 90.8669 64.026 90.8669 63.27V62.276C90.5683 62.4627 90.1389 62.5887 89.5789 62.654L88.8369 62.752C88.3983 62.808 88.0623 62.9013 87.8289 63.032C87.4556 63.2373 87.2689 63.578 87.2689 64.054C87.2689 64.3993 87.3949 64.6793 87.6469 64.894C87.8989 65.0993 88.2116 65.202 88.5849 65.202ZM88.2909 61.814L90.2509 61.562C90.5309 61.5247 90.7176 61.408 90.8109 61.212C90.8669 61.1 90.8949 60.9413 90.8949 60.736C90.8949 59.9427 90.3209 59.546 89.1729 59.546C88.5196 59.546 88.0623 59.7187 87.8009 60.064C87.6516 60.2413 87.5536 60.526 87.5069 60.918H86.3589C86.3683 60.0127 86.6576 59.3827 87.2269 59.028C87.8056 58.6733 88.4636 58.496 89.2009 58.496C90.0596 58.496 90.7549 58.664 91.2869 59C91.8283 59.3173 92.0989 59.826 92.0989 60.526V64.74C92.0989 64.88 92.1269 64.9873 92.1829 65.062C92.2389 65.1273 92.3463 65.16 92.5049 65.16C92.5516 65.16 92.6869 65.1507 92.9109 65.132V66.028C92.6216 66.112 92.3369 66.154 92.0569 66.154C91.6369 66.154 91.3289 66.0047 91.1329 65.706C91.0396 65.5473 90.9696 65.3233 90.9229 65.034C90.6523 65.3793 90.2789 65.6687 89.8029 65.902C89.3363 66.1353 88.8323 66.252 88.2909 66.252C87.6189 66.252 87.0636 66.0467 86.6249 65.636C86.1956 65.216 85.9809 64.698 85.9809 64.082C85.9809 63.4193 86.1863 62.8967 86.5969 62.514C87.0076 62.1313 87.5723 61.898 88.2909 61.814ZM89.5929 56.494C89.4809 56.41 89.3223 56.368 89.1169 56.368C89.0049 56.368 88.8556 56.382 88.6689 56.41L88.6409 55.864C88.6689 55.864 88.7529 55.8593 88.8929 55.85C89.0423 55.8313 89.1543 55.822 89.2289 55.822C89.7609 55.822 90.1483 56.004 90.3909 56.368C90.4936 56.536 90.5449 56.718 90.5449 56.914C90.5449 57.3993 90.2463 57.7073 89.6489 57.838L89.6209 58.132H89.0189V57.614C89.2803 57.586 89.4856 57.5067 89.6349 57.376C89.7936 57.2453 89.8729 57.1007 89.8729 56.942C89.8729 56.774 89.7796 56.6247 89.5929 56.494ZM94.3762 58.762H95.4962V59.91H95.5242C96.0096 59.0327 96.7936 58.594 97.8762 58.594C98.7722 58.594 99.4116 58.8273 99.7942 59.294C100.177 59.7513 100.368 60.4 100.368 61.24V66H99.1782V61.1C99.1782 60.652 99.0476 60.2973 98.7862 60.036C98.5249 59.7747 98.1656 59.644 97.7082 59.644C97.0082 59.644 96.4762 59.854 96.1122 60.274C95.7482 60.6847 95.5662 61.2307 95.5662 61.912V66H94.3762V58.762ZM102.436 56.004H103.626V59.826H103.654C103.822 59.4153 104.12 59.1073 104.55 58.902C104.988 58.6967 105.45 58.594 105.936 58.594C106.832 58.594 107.471 58.8273 107.854 59.294C108.236 59.7513 108.428 60.4 108.428 61.24V66H107.238V61.1C107.238 60.652 107.107 60.2973 106.846 60.036C106.584 59.7747 106.225 59.644 105.768 59.644C105.068 59.644 104.536 59.854 104.172 60.274C103.808 60.6847 103.626 61.2307 103.626 61.912V66H102.436V56.004Z" fill="#1771C1"/>
</svg>
