<svg width="20" height="20" viewBox="0 0 20 20" fill="none" xmlns="http://www.w3.org/2000/svg">
<g clip-path="url(#clip0_2735_4091)">
<path d="M15.9397 4.64673C12.8203 1.52737 7.7656 1.52737 4.64624 4.64673C1.52688 7.76609 1.52688 12.8208 4.64624 15.9402C7.7656 19.0595 12.8203 19.0595 15.9397 15.9402C19.0591 12.8208 19.0591 7.76609 15.9397 4.64673ZM12.9342 14.2097C12.7748 14.3691 12.5243 14.3463 12.3877 14.2097L10.293 12.115L8.19821 14.2097C8.03883 14.3691 7.78837 14.3463 7.65176 14.2097L6.37669 12.9347C6.21731 12.7753 6.21731 12.5476 6.37669 12.3882L8.47144 10.2935L6.37669 8.1987C6.21731 8.03932 6.21731 7.81163 6.37669 7.65224L7.65176 6.37718C7.78837 6.24056 8.03883 6.21779 8.19821 6.37718L10.293 8.47193L12.3877 6.37718C12.5243 6.24056 12.7748 6.21779 12.9342 6.37718L14.2092 7.65224C14.3459 7.78886 14.3459 8.06209 14.2092 8.1987L12.1145 10.2935L14.2092 12.3882C14.3459 12.5248 14.3459 12.7981 14.2092 12.9347L12.9342 14.2097Z" fill="#767676"/>
</g>
<defs>
<clipPath id="clip0_2735_4091">
<rect width="20" height="20" fill="white"/>
</clipPath>
</defs>
</svg>
