<svg width="20" height="20" viewBox="0 0 20 20" fill="none" xmlns="http://www.w3.org/2000/svg">
<path d="M7.64318 13.5348L9.99984 11.1782L12.3565 13.5348L13.5348 12.3565L11.1782 9.99984L13.5348 7.64318L12.3565 6.46484L9.99984 8.82151L7.64318 6.46484L6.46484 7.64318L8.82151 9.99984L6.46484 12.3565L7.64318 13.5348Z" fill="#BCBEC0"/>
<path d="M10.0003 18.3337C14.5953 18.3337 18.3337 14.5953 18.3337 10.0003C18.3337 5.40533 14.5953 1.66699 10.0003 1.66699C5.40533 1.66699 1.66699 5.40533 1.66699 10.0003C1.66699 14.5953 5.40533 18.3337 10.0003 18.3337ZM10.0003 3.33366C13.6762 3.33366 16.667 6.32449 16.667 10.0003C16.667 13.6762 13.6762 16.667 10.0003 16.667C6.32449 16.667 3.33366 13.6762 3.33366 10.0003C3.33366 6.32449 6.32449 3.33366 10.0003 3.33366Z" fill="#BCBEC0"/>
</svg>
