<svg width="12" height="12" viewBox="0 0 12 12" fill="none" xmlns="http://www.w3.org/2000/svg">
<path d="M7.55508 7.84219C7.54641 7.83011 7.53496 7.8203 7.52171 7.81357C7.50845 7.80684 7.49377 7.80339 7.47891 7.80352H6.96094C6.88477 7.80352 6.84023 7.89023 6.88477 7.95234L7.74961 9.14883C7.78711 9.20039 7.86328 9.20039 7.90078 9.14883L9.23906 7.29727C9.28359 7.23516 9.23906 7.14844 9.16289 7.14844H8.64375C8.61328 7.14844 8.58516 7.1625 8.56758 7.18711L7.82344 8.21602L7.55508 7.84219ZM8.0625 3.58594V3.02344C8.0625 2.97187 8.02031 2.92969 7.96875 2.92969H3.46875C3.41719 2.92969 3.375 2.97187 3.375 3.02344V3.58594C3.375 3.6375 3.41719 3.67969 3.46875 3.67969H7.96875C8.02031 3.67969 8.0625 3.6375 8.0625 3.58594ZM3.46875 4.61719C3.41719 4.61719 3.375 4.65937 3.375 4.71094V5.27344C3.375 5.325 3.41719 5.36719 3.46875 5.36719H5.625C5.67656 5.36719 5.71875 5.325 5.71875 5.27344V4.71094C5.71875 4.65937 5.67656 4.61719 5.625 4.61719H3.46875ZM5.625 9.98438H2.4375V1.73438H9V5.20312C9 5.25469 9.04219 5.29688 9.09375 5.29688H9.75C9.80156 5.29688 9.84375 5.25469 9.84375 5.20312V1.26562C9.84375 1.0582 9.67617 0.890625 9.46875 0.890625H1.96875C1.76133 0.890625 1.59375 1.0582 1.59375 1.26562V10.4531C1.59375 10.6605 1.76133 10.8281 1.96875 10.8281H5.625C5.67656 10.8281 5.71875 10.7859 5.71875 10.7344V10.0781C5.71875 10.0266 5.67656 9.98438 5.625 9.98438ZM10.343 6.225L8.09297 5.44336C8.08242 5.43984 8.07305 5.43867 8.0625 5.43867C8.05195 5.43867 8.04141 5.43984 8.03203 5.44336L5.78203 6.225C5.76365 6.23124 5.74767 6.24307 5.73633 6.25882C5.72499 6.27458 5.71884 6.29348 5.71875 6.31289V9.25547C5.71875 9.28477 5.73164 9.31172 5.75508 9.3293L8.00508 11.0895C8.02148 11.1023 8.04258 11.1094 8.0625 11.1094C8.08242 11.1094 8.10352 11.1023 8.11992 11.0895L10.3699 9.3293C10.3922 9.31172 10.4062 9.28477 10.4062 9.25547V6.31289C10.4062 6.27305 10.3805 6.23789 10.343 6.225ZM9.67969 8.94961L8.0625 10.2141L6.44531 8.94961V6.76172L8.0625 6.19922L9.67969 6.76172V8.94961Z" fill="black"/>
</svg>
