<svg width="12" height="12" viewBox="0 0 12 12" fill="none" xmlns="http://www.w3.org/2000/svg">
<path d="M5.5145 1.27029C5.66302 1.18781 5.83011 1.14453 6 1.14453C6.16989 1.14453 6.33698 1.18781 6.4855 1.27029L10.243 3.35729C10.3209 3.40061 10.3858 3.46397 10.431 3.54081C10.4762 3.61764 10.5 3.70516 10.5 3.79429V7.91179C10.5 8.09012 10.4522 8.26519 10.3618 8.41886C10.2713 8.57253 10.1414 8.69922 9.9855 8.78579L6.4855 10.7308C6.33698 10.8133 6.16989 10.8566 6 10.8566C5.83011 10.8566 5.66302 10.8133 5.5145 10.7308L2.0145 8.78579C1.85868 8.69926 1.72882 8.57265 1.63836 8.41907C1.5479 8.2655 1.50013 8.09053 1.5 7.91229V3.79429C1.5 3.70516 1.52382 3.61764 1.56901 3.54081C1.61419 3.46397 1.6791 3.40061 1.757 3.35729L5.515 1.27029H5.5145Z" stroke="black" stroke-linecap="round" stroke-linejoin="round"/>
<path d="M1.5 3.5L6 6M6 6L10.5 3.5M6 6V10.75" stroke="black" stroke-linejoin="round"/>
<path d="M3.75 4.75L8.25 2.25M3 6.164L4.5 7" stroke="black" stroke-linecap="round" stroke-linejoin="round"/>
</svg>
