<svg width="12" height="12" viewBox="0 0 12 12" fill="none" xmlns="http://www.w3.org/2000/svg">
<path d="M10.7996 3.99984C10.7387 4.00009 10.6785 3.98641 10.6236 3.95984L5.99962 1.59984L1.37562 3.94384C1.27696 3.99052 1.1638 3.99609 1.06103 3.95933C0.958257 3.92258 0.874298 3.8465 0.82762 3.74784C0.780942 3.64918 0.775368 3.53602 0.812125 3.43325C0.848882 3.33048 0.924959 3.24652 1.02362 3.19984L5.99962 0.73584L10.9756 3.19984C11.0805 3.22434 11.1715 3.28918 11.229 3.3803C11.2864 3.47143 11.3056 3.58151 11.2825 3.68671C11.2593 3.7919 11.1957 3.88375 11.1053 3.94236C11.0149 4.00097 10.9051 4.02162 10.7996 3.99984ZM3.99962 7.99984H1.59962V10.3998H3.99962V7.99984ZM7.19962 7.99984H4.79962V10.3998H7.19962V7.99984ZM10.3996 7.99984H7.99962V10.3998H10.3996V7.99984ZM8.79962 4.79984H6.39962V7.19984H8.79962V4.79984ZM5.59962 4.79984H3.19962V7.19984H5.59962V4.79984Z" fill="black"/>
</svg>
