<svg width="16" height="16" viewBox="0 0 16 16" fill="none" xmlns="http://www.w3.org/2000/svg">
<path d="M5.6682 2.39961H4.4002C4.08194 2.39961 3.77671 2.52604 3.55167 2.75108C3.32662 2.97613 3.2002 3.28135 3.2002 3.59961V13.1996C3.2002 13.5179 3.32662 13.8231 3.55167 14.0481C3.77671 14.2732 4.08194 14.3996 4.4002 14.3996H11.6002C11.9185 14.3996 12.2237 14.2732 12.4487 14.0481C12.6738 13.8231 12.8002 13.5179 12.8002 13.1996V3.59961C12.8002 3.28135 12.6738 2.97613 12.4487 2.75108C12.2237 2.52604 11.9185 2.39961 11.6002 2.39961H10.3322C10.2494 2.16555 10.0961 1.96291 9.89339 1.81963C9.69065 1.67635 9.44846 1.59948 9.20019 1.59961H6.8002C6.55193 1.59948 6.30974 1.67635 6.107 1.81963C5.90426 1.96291 5.75095 2.16555 5.6682 2.39961ZM6.8002 2.39961H9.20019C9.30628 2.39961 9.40802 2.44175 9.48304 2.51677C9.55805 2.59178 9.60019 2.69352 9.60019 2.79961C9.60019 2.9057 9.55805 3.00744 9.48304 3.08245C9.40802 3.15747 9.30628 3.19961 9.20019 3.19961H6.8002C6.69411 3.19961 6.59237 3.15747 6.51735 3.08245C6.44234 3.00744 6.4002 2.9057 6.4002 2.79961C6.4002 2.69352 6.44234 2.59178 6.51735 2.51677C6.59237 2.44175 6.69411 2.39961 6.8002 2.39961ZM7.2002 6.79961C7.2002 6.69352 7.24234 6.59178 7.31735 6.51677C7.39237 6.44175 7.49411 6.39961 7.60019 6.39961H10.4002C10.5063 6.39961 10.608 6.44175 10.683 6.51677C10.7581 6.59178 10.8002 6.69352 10.8002 6.79961C10.8002 6.9057 10.7581 7.00744 10.683 7.08245C10.608 7.15747 10.5063 7.19961 10.4002 7.19961H7.60019C7.49411 7.19961 7.39237 7.15747 7.31735 7.08245C7.24234 7.00744 7.2002 6.9057 7.2002 6.79961ZM7.2002 9.19961C7.2002 9.09352 7.24234 8.99178 7.31735 8.91677C7.39237 8.84175 7.49411 8.79961 7.60019 8.79961H10.4002C10.5063 8.79961 10.608 8.84175 10.683 8.91677C10.7581 8.99178 10.8002 9.09352 10.8002 9.19961C10.8002 9.3057 10.7581 9.40744 10.683 9.48245C10.608 9.55747 10.5063 9.59961 10.4002 9.59961H7.60019C7.49411 9.59961 7.39237 9.55747 7.31735 9.48245C7.24234 9.40744 7.2002 9.3057 7.2002 9.19961ZM7.2002 11.5996C7.2002 11.4935 7.24234 11.3918 7.31735 11.3168C7.39237 11.2418 7.49411 11.1996 7.60019 11.1996H10.4002C10.5063 11.1996 10.608 11.2418 10.683 11.3168C10.7581 11.3918 10.8002 11.4935 10.8002 11.5996C10.8002 11.7057 10.7581 11.8074 10.683 11.8825C10.608 11.9575 10.5063 11.9996 10.4002 11.9996H7.60019C7.49411 11.9996 7.39237 11.9575 7.31735 11.8825C7.24234 11.8074 7.2002 11.7057 7.2002 11.5996ZM6.4002 6.79961C6.4002 6.95874 6.33698 7.11135 6.22446 7.22387C6.11194 7.3364 5.95933 7.39961 5.8002 7.39961C5.64107 7.39961 5.48845 7.3364 5.37593 7.22387C5.26341 7.11135 5.2002 6.95874 5.2002 6.79961C5.2002 6.64048 5.26341 6.48787 5.37593 6.37535C5.48845 6.26282 5.64107 6.19961 5.8002 6.19961C5.95933 6.19961 6.11194 6.26282 6.22446 6.37535C6.33698 6.48787 6.4002 6.64048 6.4002 6.79961ZM6.4002 9.19961C6.4002 9.35874 6.33698 9.51135 6.22446 9.62387C6.11194 9.73639 5.95933 9.79961 5.8002 9.79961C5.64107 9.79961 5.48845 9.73639 5.37593 9.62387C5.26341 9.51135 5.2002 9.35874 5.2002 9.19961C5.2002 9.04048 5.26341 8.88787 5.37593 8.77535C5.48845 8.66282 5.64107 8.59961 5.8002 8.59961C5.95933 8.59961 6.11194 8.66282 6.22446 8.77535C6.33698 8.88787 6.4002 9.04048 6.4002 9.19961ZM5.8002 12.1996C5.64107 12.1996 5.48845 12.1364 5.37593 12.0239C5.26341 11.9114 5.2002 11.7587 5.2002 11.5996C5.2002 11.4405 5.26341 11.2879 5.37593 11.1753C5.48845 11.0628 5.64107 10.9996 5.8002 10.9996C5.95933 10.9996 6.11194 11.0628 6.22446 11.1753C6.33698 11.2879 6.4002 11.4405 6.4002 11.5996C6.4002 11.7587 6.33698 11.9114 6.22446 12.0239C6.11194 12.1364 5.95933 12.1996 5.8002 12.1996Z" fill="#B9BCBE"/>
</svg>
