<svg width="13" height="12" viewBox="0 0 13 12" fill="none" xmlns="http://www.w3.org/2000/svg">
<g clip-path="url(#clip0_2693_1042)">
<path d="M12.4169 6C12.4169 7.5913 11.7628 9.11742 10.5985 10.2426C9.43416 11.3679 7.85502 12 6.20844 12C4.56186 12 2.98272 11.3679 1.81841 10.2426C0.654101 9.11742 0 7.5913 0 6C0 4.4087 0.654101 2.88258 1.81841 1.75736C2.98272 0.632141 4.56186 0 6.20844 0C7.85502 0 9.43416 0.632141 10.5985 1.75736C11.7628 2.88258 12.4169 4.4087 12.4169 6ZM6.59646 3.375C6.59646 3.27554 6.55558 3.18016 6.48281 3.10984C6.41004 3.03951 6.31135 3 6.20844 3C6.10553 3 6.00683 3.03951 5.93406 3.10984C5.86129 3.18016 5.82041 3.27554 5.82041 3.375V7.71975L4.155 6.1095C4.08214 6.03908 3.98331 5.99953 3.88027 5.99953C3.77723 5.99953 3.67841 6.03908 3.60555 6.1095C3.53269 6.17991 3.49176 6.27542 3.49176 6.375C3.49176 6.47458 3.53269 6.57009 3.60555 6.6405L5.93371 8.8905C5.96976 8.92542 6.01258 8.95313 6.05972 8.97203C6.10686 8.99094 6.1574 9.00067 6.20844 9.00067C6.25948 9.00067 6.31001 8.99094 6.35715 8.97203C6.4043 8.95313 6.44712 8.92542 6.48316 8.8905L8.81132 6.6405C8.88418 6.57009 8.92512 6.47458 8.92512 6.375C8.92512 6.27542 8.88418 6.17991 8.81132 6.1095C8.73846 6.03908 8.63964 5.99953 8.5366 5.99953C8.43356 5.99953 8.33474 6.03908 8.26188 6.1095L6.59646 7.71975V3.375Z" fill="#B9BCBE"/>
</g>
<defs>
<clipPath id="clip0_2693_1042">
<rect width="12.4169" height="12" fill="white"/>
</clipPath>
</defs>
</svg>
