<svg width="10" height="8" viewBox="0 0 10 8" fill="none" xmlns="http://www.w3.org/2000/svg">
<path d="M4.95918 0C4.0571 0.000982992 3.19227 0.33242 2.5544 0.921607C1.91653 1.51079 1.55771 2.30962 1.55664 3.14286C1.55556 3.82378 1.79636 4.48622 2.2421 5.02857C2.2421 5.02857 2.3349 5.14143 2.35005 5.15771L4.95918 8L7.56954 5.15629C7.58315 5.14114 7.67626 5.02857 7.67626 5.02857L7.67657 5.02771C8.12208 4.4856 8.36277 3.82347 8.36171 3.14286C8.36065 2.30962 8.00183 1.51079 7.36396 0.921607C6.72609 0.33242 5.86126 0.000982992 4.95918 0ZM4.95918 4.28571C4.71447 4.28571 4.47525 4.21869 4.27178 4.09311C4.06831 3.96753 3.90972 3.78904 3.81608 3.58021C3.72243 3.37138 3.69793 3.14159 3.74567 2.9199C3.79341 2.6982 3.91125 2.49457 4.08429 2.33474C4.25732 2.1749 4.47779 2.06606 4.7178 2.02196C4.95781 1.97786 5.20658 2.00049 5.43267 2.08699C5.65875 2.1735 5.85199 2.31998 5.98794 2.50792C6.1239 2.69586 6.19646 2.91682 6.19646 3.14286C6.19606 3.44585 6.06557 3.73632 5.83362 3.95056C5.60167 4.16481 5.2872 4.28534 4.95918 4.28571Z" fill="#B9BCBE"/>
</svg>
