<svg width="10" height="8" viewBox="0 0 10 8" fill="none" xmlns="http://www.w3.org/2000/svg">
<path d="M6.47122 5.50787L7.25253 4.84025C7.35776 4.75145 7.4909 4.69066 7.63579 4.66526C7.78067 4.63987 7.93107 4.65096 8.06872 4.69719L9.02094 5.02206C9.16005 5.07031 9.27932 5.15266 9.36374 5.25874C9.44816 5.36482 9.49394 5.48987 9.49531 5.61815V7.10837C9.4945 7.19563 9.47303 7.28185 9.4322 7.36184C9.39137 7.44182 9.33202 7.51392 9.25772 7.57379C9.18342 7.63366 9.09571 7.68006 8.99987 7.7102C8.90403 7.74034 8.80204 7.75359 8.70005 7.74917C2.02751 7.39449 0.681144 2.56617 0.42652 0.718299C0.4147 0.627556 0.4255 0.535702 0.458208 0.448781C0.490916 0.361859 0.544792 0.281841 0.616291 0.213989C0.687789 0.146137 0.775291 0.0919901 0.873039 0.0551098C0.970786 0.0182295 1.07656 -0.000548151 1.18342 1.21808e-05H2.86812C3.01845 0.000392422 3.16522 0.0391953 3.28954 0.11143C3.41385 0.183665 3.51004 0.286028 3.56572 0.405353L3.94591 1.21901C4.0018 1.33617 4.01607 1.46479 3.98691 1.58883C3.95775 1.71287 3.88647 1.82681 3.78197 1.91644L3.00066 2.58406C3.00066 2.58406 3.45061 5.18599 6.47122 5.50787Z" fill="#B9BCBE"/>
</svg>
