<svg width="10" height="8" viewBox="0 0 10 8" fill="none" xmlns="http://www.w3.org/2000/svg">
<path d="M6.24723 4.89533C6.18969 4.87916 5.82602 4.73831 6.05327 4.14474H6.05001C6.64238 3.62051 7.09507 2.77694 7.09507 1.94644C7.09507 0.669439 6.10682 0 4.95827 0C3.809 0 2.82618 0.669128 2.82618 1.94644C2.82618 2.78036 3.27634 3.62735 3.87232 4.15034C4.10464 4.67395 3.68922 4.86828 3.60237 4.89564C2.39954 5.26938 0.988281 5.95064 0.988281 6.62319V6.87535C0.988281 7.79167 3.05596 8 4.96949 8C6.88591 8 8.92754 7.79167 8.92754 6.87535V6.62319C8.92754 5.93043 7.5094 5.25446 6.24723 4.89533Z" fill="#B9BCBE"/>
</svg>
