<svg width="141" height="32" viewBox="0 0 141 32" fill="none" xmlns="http://www.w3.org/2000/svg">
<g clip-path="url(#clip0_105_83700)">
<path d="M43.52 32.0001C43.3201 32.0001 43.1477 31.9335 43.0026 31.8002C42.8694 31.6591 42.7988 31.4866 42.7988 31.2828V27.3279C42.7988 27.2299 42.8341 27.1476 42.9007 27.081C42.9674 27.0065 43.0536 26.9673 43.1594 26.9673C43.2574 26.9673 43.3397 27.0065 43.4064 27.081C43.4808 27.1476 43.52 27.2299 43.52 27.3279V30.9222C43.52 31.028 43.5553 31.1143 43.622 31.1809C43.6886 31.2475 43.7748 31.2828 43.8806 31.2828H51.0654C51.1634 31.2828 51.2457 31.322 51.3123 31.3965C51.3868 31.4631 51.426 31.5454 51.426 31.6434C51.426 31.7493 51.3868 31.8355 51.3123 31.9021C51.2457 31.9688 51.1634 32.004 51.0654 32.004H43.52V32.0001Z" fill="#FCFDFF"/>
<path d="M53.3228 32.0001C53.1229 32.0001 52.9504 31.9335 52.8054 31.8002C52.6721 31.6591 52.6055 31.4866 52.6055 31.2828V27.6885C52.6055 27.4925 52.6721 27.324 52.8054 27.1829C52.9465 27.0417 53.1189 26.9712 53.3228 26.9712H60.5114C60.7035 26.9712 60.8759 27.0417 61.017 27.1829C61.1581 27.324 61.2326 27.4925 61.2326 27.6885V31.2828C61.2326 31.4866 61.1621 31.6552 61.017 31.8002C60.8759 31.9335 60.7074 32.0001 60.5114 32.0001H53.3228ZM60.1508 31.2828C60.2488 31.2828 60.3311 31.2475 60.3977 31.1809C60.4722 31.1143 60.5075 31.028 60.5075 30.9222V28.0491C60.5075 27.9511 60.4683 27.8688 60.3977 27.8022C60.3272 27.7277 60.2449 27.6885 60.1508 27.6885H53.6834C53.5775 27.6885 53.4913 27.7277 53.4247 27.8022C53.358 27.8688 53.3228 27.9511 53.3228 28.0491V30.9222C53.3228 31.028 53.358 31.1143 53.4247 31.1809C53.4913 31.2475 53.5775 31.2828 53.6834 31.2828H60.1508Z" fill="#FCFDFF"/>
<path d="M63.1265 32.0001C62.9266 32.0001 62.7502 31.9335 62.6091 31.8002C62.4719 31.6591 62.4053 31.4866 62.4053 31.2828V27.6885C62.4053 27.4925 62.4719 27.324 62.6091 27.1829C62.7502 27.0417 62.9227 26.9712 63.1265 26.9712H70.6719C70.7699 26.9712 70.8522 27.0104 70.9188 27.0849C70.9933 27.1515 71.0325 27.2338 71.0325 27.3318C71.0325 27.4376 70.9933 27.5239 70.9188 27.5905C70.8522 27.6571 70.7699 27.6924 70.6719 27.6924H63.4871C63.3813 27.6924 63.295 27.7316 63.2284 27.8061C63.1618 27.8727 63.1265 27.955 63.1265 28.053V30.9261C63.1265 31.0319 63.1618 31.1182 63.2284 31.1848C63.295 31.2514 63.3813 31.2867 63.4871 31.2867H69.9546C70.0526 31.2867 70.1349 31.2514 70.2015 31.1848C70.276 31.1182 70.3152 31.0319 70.3152 30.9261V30.2088C70.3152 30.1108 70.276 30.0285 70.2015 29.9619C70.1349 29.8874 70.0526 29.8482 69.9546 29.8482H64.9217C64.8159 29.8482 64.7336 29.8129 64.663 29.7463C64.5964 29.6797 64.5611 29.5934 64.5611 29.4876C64.5611 29.3896 64.5964 29.3073 64.663 29.2407C64.7336 29.1662 64.8159 29.127 64.9217 29.127H70.3113C70.5034 29.127 70.6719 29.1976 70.8169 29.3387C70.958 29.4798 71.0325 29.6483 71.0325 29.8443V31.2828C71.0325 31.4866 70.962 31.6552 70.8169 31.8002C70.6758 31.9335 70.5073 32.0001 70.3113 32.0001H63.1265Z" fill="#FCFDFF"/>
<path d="M72.3099 31.8982C72.2433 31.8316 72.208 31.7453 72.208 31.6395V27.3279C72.208 27.2299 72.2433 27.1476 72.3099 27.081C72.3766 27.0065 72.4628 26.9673 72.5687 26.9673C72.6667 26.9673 72.749 27.0065 72.8156 27.081C72.8901 27.1476 72.9293 27.2299 72.9293 27.3279V31.6395C72.9293 31.7453 72.8901 31.8316 72.8156 31.8982C72.749 31.9648 72.6667 32.0001 72.5687 32.0001C72.4628 32.0001 72.3766 31.9648 72.3099 31.8982Z" fill="#FCFDFF"/>
<path d="M74.4651 32.0001C74.3593 32.0001 74.273 31.9648 74.2064 31.8982C74.1398 31.8316 74.1084 31.7453 74.1084 31.6395C74.1084 31.5415 74.1398 31.4592 74.2064 31.3926C74.273 31.3181 74.3593 31.2789 74.4651 31.2789H81.6537C81.7517 31.2789 81.8301 31.2436 81.9006 31.177C81.9751 31.1104 82.0104 31.0241 82.0104 30.9183V30.201C82.0104 30.103 81.9751 30.0207 81.9006 29.9541C81.834 29.8796 81.7517 29.8404 81.6537 29.8404H74.8257C74.6258 29.8404 74.4533 29.7738 74.3083 29.6366C74.175 29.4955 74.1084 29.323 74.1084 29.1192V27.6807C74.1084 27.4847 74.175 27.3161 74.3083 27.175C74.4494 27.0339 74.6219 26.9634 74.8257 26.9634H82.371C82.469 26.9634 82.5513 27.0026 82.6179 27.077C82.6924 27.1437 82.7277 27.226 82.7277 27.324C82.7277 27.4298 82.6885 27.516 82.6179 27.5827C82.5474 27.6493 82.4651 27.6846 82.371 27.6846H75.1863C75.0805 27.6846 74.9942 27.7238 74.9276 27.7983C74.861 27.8649 74.8257 27.9472 74.8257 28.0452V28.7625C74.8257 28.8683 74.861 28.9546 74.9276 29.0212C74.9942 29.0878 75.0805 29.1231 75.1863 29.1231H82.0143C82.2103 29.1231 82.3788 29.1937 82.52 29.3348C82.6611 29.4759 82.7355 29.6444 82.7355 29.8404V31.2789C82.7355 31.4827 82.665 31.6513 82.52 31.7963C82.3788 31.9296 82.2103 31.9962 82.0143 31.9962H74.4651V32.0001Z" fill="#FCFDFF"/>
<path d="M87.6045 31.8982C87.5378 31.8316 87.5026 31.7453 87.5026 31.6395V27.6885H84.2688C84.163 27.6885 84.0807 27.6532 84.0101 27.5866C83.9435 27.52 83.9082 27.4337 83.9082 27.3279C83.9082 27.2299 83.9435 27.1476 84.0101 27.081C84.0807 27.0065 84.163 26.9673 84.2688 26.9673H91.4575C91.5555 26.9673 91.6378 27.0065 91.7045 27.081C91.779 27.1476 91.8182 27.2299 91.8182 27.3279C91.8182 27.4337 91.779 27.52 91.7045 27.5866C91.6378 27.6532 91.5555 27.6885 91.4575 27.6885H88.2238V31.6395C88.2238 31.7453 88.1846 31.8316 88.1101 31.8982C88.0435 31.9648 87.9612 32.0001 87.8632 32.0001C87.7573 32.0001 87.6711 31.9648 87.6045 31.8982Z" fill="#FCFDFF"/>
<path d="M93.0921 31.8982C93.0255 31.8316 92.9902 31.7453 92.9902 31.6395V27.3279C92.9902 27.2299 93.0255 27.1476 93.0921 27.081C93.1588 27.0065 93.245 26.9673 93.3508 26.9673C93.4488 26.9673 93.5311 27.0065 93.5977 27.081C93.6722 27.1476 93.7114 27.2299 93.7114 27.3279V31.6395C93.7114 31.7453 93.6722 31.8316 93.5977 31.8982C93.5311 31.9648 93.4488 32.0001 93.3508 32.0001C93.245 32.0001 93.1627 31.9648 93.0921 31.8982Z" fill="#FCFDFF"/>
<path d="M95.6079 32.0001C95.408 32.0001 95.2356 31.9335 95.0905 31.8002C94.9573 31.6591 94.8906 31.4866 94.8906 31.2828V27.6885C94.8906 27.4925 94.9573 27.324 95.0905 27.1829C95.2316 27.0417 95.4041 26.9712 95.6079 26.9712H103.153C103.251 26.9712 103.334 27.0104 103.4 27.0849C103.475 27.1515 103.514 27.2338 103.514 27.3318C103.514 27.4376 103.475 27.5239 103.4 27.5905C103.334 27.6571 103.251 27.6924 103.153 27.6924H95.9685C95.8627 27.6924 95.7765 27.7316 95.7098 27.8061C95.6432 27.8727 95.6079 27.955 95.6079 28.053V30.9261C95.6079 31.0319 95.6432 31.1182 95.7098 31.1848C95.7765 31.2514 95.8627 31.2867 95.9685 31.2867H103.153C103.251 31.2867 103.334 31.3259 103.4 31.4004C103.475 31.467 103.514 31.5493 103.514 31.6473C103.514 31.7532 103.475 31.8394 103.4 31.906C103.334 31.9727 103.251 32.0079 103.153 32.0079H95.6079V32.0001Z" fill="#FCFDFF"/>
<path d="M105.051 32.0001C104.945 32.0001 104.859 31.9648 104.792 31.8982C104.726 31.8316 104.69 31.7453 104.69 31.6395C104.69 31.5415 104.726 31.4592 104.792 31.3926C104.859 31.3181 104.945 31.2789 105.051 31.2789H112.236C112.334 31.2789 112.416 31.2436 112.483 31.177C112.557 31.1104 112.592 31.0241 112.592 30.9183V30.201C112.592 30.103 112.553 30.0207 112.483 29.9541C112.416 29.8796 112.334 29.8404 112.236 29.8404H105.408C105.208 29.8404 105.035 29.7738 104.89 29.6366C104.757 29.4955 104.69 29.323 104.69 29.1192V27.6807C104.69 27.4847 104.757 27.3161 104.89 27.175C105.031 27.0339 105.204 26.9634 105.408 26.9634H112.953C113.051 26.9634 113.133 27.0026 113.2 27.077C113.274 27.1437 113.31 27.226 113.31 27.324C113.31 27.4298 113.271 27.516 113.2 27.5827C113.133 27.6493 113.047 27.6846 112.953 27.6846H105.768C105.663 27.6846 105.576 27.7238 105.51 27.7983C105.443 27.8649 105.408 27.9472 105.408 28.0452V28.7625C105.408 28.8683 105.443 28.9546 105.51 29.0212C105.576 29.0878 105.663 29.1231 105.768 29.1231H112.596C112.792 29.1231 112.961 29.1937 113.102 29.3348C113.243 29.4759 113.318 29.6444 113.318 29.8404V31.2789C113.318 31.4827 113.247 31.6513 113.102 31.7963C112.961 31.9296 112.792 31.9962 112.596 31.9962H105.051V32.0001Z" fill="#FCFDFF"/>
<path d="M6.68692 24.6464H4.89564V15.6391H0V13.9536H11.5786V15.6391H6.68692V24.6464Z" fill="#FCFDFF"/>
<path d="M13.4404 13.9536H15.2317V18.2848H23.5845V13.9536H25.3836V24.6464H23.5845V19.8723H15.2317V24.6464H13.4404V13.9536Z" fill="#FCFDFF"/>
<path d="M30.1067 22.9649H37.9343V13.9536H39.7295V22.2907C39.7295 22.7297 39.6903 23.0981 39.6079 23.3999C39.5256 23.7017 39.3924 23.9408 39.2081 24.129C39.0239 24.3132 38.7809 24.4465 38.4791 24.5288C38.1773 24.6111 37.8088 24.6503 37.3698 24.6503H30.6672C30.2282 24.6503 29.8598 24.6111 29.5619 24.5288C29.2601 24.4465 29.021 24.3132 28.8407 24.129C28.6604 23.9448 28.5271 23.7017 28.4409 23.3999C28.3546 23.0981 28.3115 22.7297 28.3115 22.2907V13.9536H30.1067V22.9649Z" fill="#FCFDFF"/>
<path d="M54.3934 22.2907C54.3934 22.7297 54.3503 23.0981 54.264 23.3999C54.1778 23.7017 54.0445 23.9408 53.8603 24.129C53.6761 24.3132 53.4331 24.4465 53.1313 24.5288C52.8294 24.6111 52.4649 24.6503 52.0377 24.6503H44.7863C44.3473 24.6503 43.9828 24.6111 43.6888 24.5288C43.3948 24.4465 43.1518 24.3132 42.9676 24.129C42.7834 23.9448 42.6501 23.7017 42.5678 23.3999C42.4855 23.0981 42.4463 22.7297 42.4463 22.2907V16.3093C42.4463 15.4431 42.6188 14.8355 42.9676 14.4828C43.3125 14.13 43.9201 13.9536 44.7863 13.9536H52.0377C52.9039 13.9536 53.5115 14.13 53.8642 14.4828C54.217 14.8355 54.3934 15.447 54.3934 16.3093V22.2907ZM52.5903 22.9649V15.6391H44.2219V22.9649H52.5903Z" fill="#FCFDFF"/>
<path d="M57.207 13.9536H58.4927L67.5353 21.9693V13.9536H69.3266V24.6464H68.0449L59.0022 16.6307V24.6464H57.211V13.9536H57.207Z" fill="#FCFDFF"/>
<path d="M82.3053 16.6307V15.6391H73.9368V22.9649H82.3053V20.1075H77.978V18.5278H84.1044V22.2946C84.1044 22.7336 84.0613 23.1021 83.9751 23.4039C83.8888 23.7057 83.7556 23.9448 83.5713 24.1329C83.3871 24.3172 83.1441 24.4504 82.8423 24.5327C82.5405 24.6151 82.172 24.6542 81.7487 24.6542H74.4973C74.0622 24.6542 73.6937 24.6151 73.3998 24.5327C73.1058 24.4504 72.8628 24.3172 72.6785 24.1329C72.4943 23.9487 72.361 23.7057 72.2787 23.4039C72.1964 23.1021 72.1572 22.7336 72.1572 22.2946V16.3093C72.1572 15.4431 72.3297 14.8355 72.6785 14.4828C73.0274 14.13 73.631 13.9536 74.4973 13.9536H81.7487C82.6149 13.9536 83.2225 14.13 83.5752 14.4828C83.928 14.8355 84.1044 15.447 84.1044 16.3093V16.6307H82.3053Z" fill="#FCFDFF"/>
<path d="M86.9258 13.9536H94.2828C95.0393 13.9536 95.6468 14.0006 96.1015 14.0908C96.5601 14.181 96.9599 14.3456 97.3127 14.5808C97.8614 14.9178 98.2573 15.4039 98.5042 16.0349C98.7512 16.666 98.8727 17.5009 98.8727 18.5396V20.0565C98.8727 20.6797 98.8374 21.1971 98.7668 21.6126C98.6963 22.032 98.5709 22.4201 98.3866 22.7807C98.1397 23.3177 97.7869 23.7292 97.3166 24.0193C96.9677 24.2544 96.564 24.4152 96.1054 24.5092C95.6508 24.5994 95.0393 24.6464 94.2868 24.6464H86.9297V13.9536H86.9258ZM94.2672 22.9649C94.7257 22.9649 95.0863 22.9374 95.3568 22.8826C95.6233 22.8277 95.8624 22.7336 96.0741 22.5964C96.3955 22.3848 96.6346 22.0908 96.7835 21.7145C96.9325 21.3421 97.0069 20.8444 97.0069 20.2211V18.375C97.0069 18.0144 96.9873 17.7086 96.9442 17.4539C96.9011 17.1991 96.8266 16.9678 96.7169 16.7522C96.5248 16.3485 96.2465 16.0624 95.8781 15.8899C95.5097 15.7175 94.9727 15.6312 94.2711 15.6312H88.721V22.957H94.2672V22.9649Z" fill="#FCFDFF"/>
<path d="M111.639 22.9649H103.271V15.6391H107.375V13.9536H103.835C102.969 13.9536 102.361 14.13 102.016 14.4828C101.668 14.8355 101.495 15.447 101.495 16.3093V22.2907C101.495 22.7297 101.534 23.0981 101.617 23.3999C101.699 23.7017 101.832 23.9408 102.016 24.129C102.201 24.3132 102.44 24.4465 102.738 24.5288C103.032 24.6111 103.396 24.6503 103.839 24.6503H111.086C111.514 24.6503 111.878 24.6111 112.184 24.5288C112.486 24.4465 112.729 24.3132 112.913 24.129C113.097 23.9448 113.231 23.7017 113.317 23.3999C113.403 23.0981 113.446 22.7297 113.446 22.2907V19.4019H111.647V22.9649H111.639Z" fill="#FCFDFF"/>
<path d="M113.533 13.6834C113.18 13.3307 112.572 13.1543 111.706 13.1543H107.994V14.8358H112.259V18.5987H114.058V15.51C114.058 14.6477 113.885 14.0362 113.533 13.6834Z" fill="#F2C431"/>
<path d="M117.919 25.3563L117.617 29.3387L126.217 24.6664L128.537 16.2549L117.919 25.3563Z" fill="#E0B030"/>
<path d="M115.556 1.11719L106.439 1.62282L99.8301 7.89034L106.317 8.65075L115.556 1.11719Z" fill="#FFD426"/>
<path d="M118.696 0.940708L108.873 8.95247L119.068 10.148L132.983 0.14502L118.696 0.940708Z" fill="#F2C431"/>
<path d="M129.419 13.0642L132.982 0.14502L119.068 10.1479L118.115 22.7535L129.419 13.0642Z" fill="#E0B030"/>
<path d="M137.364 6.91426C135.459 6.91426 133.907 5.36208 133.907 3.45713C133.907 1.55218 135.459 0 137.364 0C139.269 0 140.821 1.55218 140.821 3.45713C140.821 5.36208 139.269 6.91426 137.364 6.91426ZM137.364 0.344929C135.648 0.344929 134.252 1.74032 134.252 3.45713C134.252 5.17393 135.648 6.56933 137.364 6.56933C139.081 6.56933 140.477 5.17393 140.477 3.45713C140.477 1.74032 139.081 0.344929 137.364 0.344929Z" fill="#FCFDFF"/>
<path d="M136.439 3.78616V5.42065H135.98V1.49316H137.058C137.54 1.49316 137.897 1.58724 138.125 1.77146C138.356 1.95568 138.469 2.23398 138.469 2.60242C138.469 3.11982 138.207 3.47258 137.682 3.65681L138.748 5.42065H138.207L137.254 3.78616H136.439ZM136.439 3.39419H137.066C137.388 3.39419 137.627 3.33148 137.776 3.20213C137.929 3.07278 138.003 2.88072 138.003 2.62594C138.003 2.36724 137.925 2.1791 137.772 2.06543C137.619 1.95176 137.372 1.89297 137.035 1.89297H136.443V3.39419H136.439Z" fill="#FCFDFF"/>
</g>
<defs>
<clipPath id="clip0_105_83700">
<rect width="140.821" height="32" fill="white"/>
</clipPath>
</defs>
</svg>
