<svg width="27" height="27" viewBox="0 0 27 27" fill="none" xmlns="http://www.w3.org/2000/svg">
<path d="M13.5 0C6.04234 0 0 6.04234 0 13.5C0 20.9577 6.04234 27 13.5 27C20.9577 27 27 20.9577 27 13.5C27 6.04234 20.9577 0 13.5 0ZM13.5 5.22581C16.1129 5.22581 18.2903 7.40323 18.2903 10.0161C18.2903 12.6835 16.1129 14.8065 13.5 14.8065C10.8327 14.8065 8.70968 12.6835 8.70968 10.0161C8.70968 7.40323 10.8327 5.22581 13.5 5.22581ZM13.5 23.9516C10.2883 23.9516 7.40323 22.5363 5.49798 20.25C6.53226 18.3448 8.54637 16.9839 10.8871 16.9839C10.996 16.9839 11.1048 17.0383 11.2681 17.0927C11.9758 17.3105 12.6835 17.4194 13.5 17.4194C14.2621 17.4194 15.0242 17.3105 15.6774 17.0927C15.8407 17.0383 15.9496 16.9839 16.1129 16.9839C18.3992 16.9839 20.4133 18.3448 21.4476 20.25C19.5423 22.5363 16.6573 23.9516 13.5 23.9516Z" fill="white"/>
</svg>
