<svg width="16" height="16" viewBox="0 0 16 16" fill="none" xmlns="http://www.w3.org/2000/svg">
<path d="M11.5 10.5H2C1.94255 10.5 1.88685 10.4802 1.84228 10.444C1.7977 10.4077 1.76697 10.3572 1.75525 10.301L0.50525 4.301C0.497669 4.26462 0.498293 4.22701 0.507076 4.19091C0.51586 4.1548 0.532581 4.12111 0.556024 4.09228C0.579466 4.06345 0.60904 4.04021 0.642595 4.02424C0.67615 4.00828 0.712842 4 0.75 4H12.7138L13.2567 1.69272C13.2696 1.63787 13.3006 1.589 13.3448 1.55402C13.389 1.51904 13.4437 1.5 13.5 1.5H15.25C15.3163 1.5 15.3799 1.52634 15.4268 1.57322C15.4737 1.62011 15.5 1.6837 15.5 1.75C15.5 1.8163 15.4737 1.87989 15.4268 1.92678C15.3799 1.97366 15.3163 2 15.25 2H13.698L11.8045 10.0476C12.0062 10.1123 12.1823 10.2394 12.3073 10.4106C12.4322 10.5817 12.4997 10.7881 12.5 11V11.5C12.4997 11.7651 12.3942 12.0193 12.2068 12.2068C12.0193 12.3942 11.7651 12.4997 11.5 12.5H11.4993C11.6388 12.6857 11.7239 12.9065 11.7449 13.1378C11.7659 13.3691 11.7221 13.6017 11.6183 13.8094C11.5145 14.0172 11.3549 14.1919 11.1574 14.3141C10.9599 14.4362 10.7322 14.5009 10.5 14.5009C10.2678 14.5009 10.0401 14.4362 9.84259 14.3141C9.64507 14.1919 9.48547 14.0172 9.38171 13.8094C9.27795 13.6017 9.23411 13.3691 9.25513 13.1378C9.27614 12.9065 9.36118 12.6857 9.50069 12.5H4.49931C4.63882 12.6857 4.72386 12.9065 4.74487 13.1378C4.76589 13.3691 4.72205 13.6017 4.61829 13.8094C4.51453 14.0172 4.35493 14.1919 4.15741 14.3141C3.95988 14.4362 3.73224 14.5009 3.5 14.5009C3.26776 14.5009 3.04012 14.4362 2.84259 14.3141C2.64507 14.1919 2.48547 14.0172 2.38171 13.8094C2.27795 13.6017 2.23411 13.3691 2.25513 13.1378C2.27614 12.9065 2.36118 12.6857 2.50069 12.5H1.5C1.4337 12.5 1.37011 12.4737 1.32322 12.4268C1.27634 12.3799 1.25 12.3163 1.25 12.25C1.25 12.1837 1.27634 12.1201 1.32322 12.0732C1.37011 12.0263 1.4337 12 1.5 12H11.5C11.6326 11.9998 11.7596 11.9471 11.8534 11.8534C11.9471 11.7596 11.9998 11.6326 12 11.5V11C11.9998 10.8674 11.9471 10.7404 11.8534 10.6466C11.7596 10.5529 11.6326 10.5002 11.5 10.5ZM11.302 10L11.5373 9H10.1582L10.0332 10H11.3019H11.302ZM5.88562 7.5L5.92731 8.5H7.57269L7.61438 7.5H5.88562ZM7.63519 7L7.67688 6H5.82312L5.86481 7H7.63519ZM8.07312 8.5H9.71688L9.84188 7.5H8.11487L8.07312 8.5ZM8.05231 9L8.01062 10H9.52938L9.65438 9H8.05231ZM7.55188 9H5.94812L5.98981 10H7.51019L7.55188 9ZM5.44769 9H3.84569L3.97069 10H5.48944L5.44769 9ZM5.42688 8.5L5.38519 7.5H3.65819L3.78319 8.5H5.42688ZM3.15431 7.5H1.68244L1.89062 8.5H3.27931L3.15431 7.5ZM3.09181 7L2.96681 6H1.36994L1.57812 7H3.09181ZM3.59569 7H5.36444L5.32275 6H3.47075L3.59569 7ZM5.30194 5.5L5.26025 4.5H3.28325L3.40825 5.5H5.30194ZM5.80237 5.5H7.69769L7.73938 4.5H5.76062L5.80237 5.5ZM8.19819 5.5H10.0919L10.2169 4.5H8.23994L8.19819 5.5ZM8.17737 6L8.13569 7H9.90444L10.0294 6H8.17737ZM10.4082 7H12.0079L12.2432 6H10.5332L10.4082 7ZM10.3457 7.5L10.2207 8.5H11.6551L11.8904 7.5H10.3457ZM2.20312 10H3.46681L3.34181 9H1.99494L2.20312 10ZM1.26562 5.5H2.90431L2.77931 4.5H1.05744L1.26562 5.5ZM10.7207 4.5L10.5957 5.5H12.3608L12.5961 4.5H10.7207ZM9.75 13.25C9.75 13.3983 9.79399 13.5433 9.8764 13.6667C9.95881 13.79 10.0759 13.8861 10.213 13.9429C10.35 13.9997 10.5008 14.0145 10.6463 13.9856C10.7918 13.9566 10.9254 13.8852 11.0303 13.7803C11.1352 13.6754 11.2067 13.5418 11.2356 13.3963C11.2645 13.2508 11.2497 13.1 11.1929 12.963C11.1361 12.8259 11.04 12.7088 10.9167 12.6264C10.7933 12.544 10.6483 12.5 10.5 12.5C10.3012 12.5002 10.1105 12.5793 9.96993 12.7199C9.82932 12.8605 9.75023 13.0512 9.75 13.25ZM2.75 13.25C2.75 13.3983 2.79399 13.5433 2.8764 13.6667C2.95881 13.79 3.07594 13.8861 3.21299 13.9429C3.35003 13.9997 3.50083 14.0145 3.64632 13.9856C3.7918 13.9566 3.92544 13.8852 4.03033 13.7803C4.13522 13.6754 4.20665 13.5418 4.23559 13.3963C4.26453 13.2508 4.24967 13.1 4.19291 12.963C4.13614 12.8259 4.04001 12.7088 3.91668 12.6264C3.79334 12.544 3.64834 12.5 3.5 12.5C3.30116 12.5002 3.11053 12.5793 2.96993 12.7199C2.82932 12.8605 2.75023 13.0512 2.75 13.25Z" fill="white"/>
<path d="M10.5 13.5C10.3619 13.5 10.25 13.3881 10.25 13.25C10.25 13.1119 10.3619 13 10.5 13C10.6381 13 10.75 13.1119 10.75 13.25C10.75 13.3881 10.6381 13.5 10.5 13.5Z" fill="white"/>
<path d="M3.5 13.5C3.36193 13.5 3.25 13.3881 3.25 13.25C3.25 13.1119 3.36193 13 3.5 13C3.63807 13 3.75 13.1119 3.75 13.25C3.75 13.3881 3.63807 13.5 3.5 13.5Z" fill="white"/>
</svg>
