<svg width="14" height="16" viewBox="0 0 14 16" fill="none" xmlns="http://www.w3.org/2000/svg">
<g clip-path="url(#clip0_105_83752)">
<path d="M13.282 2.6665H0.717965C0.323066 2.6665 0 3.03572 0 3.487V12.5127C0 12.9639 0.323066 13.3332 0.717965 13.3332H13.2821C13.6769 13.3332 14 12.964 14 12.5127V3.487C14 3.03572 13.6769 2.6665 13.282 2.6665ZM13.0126 3.28185L7.413 8.08191C7.31232 8.16947 7.15777 8.22425 6.99997 8.22344C6.8422 8.22425 6.68768 8.16947 6.58697 8.08191L0.987355 3.28185H13.0126ZM10.0215 8.39863L13.0728 12.7063C13.0758 12.7107 13.0796 12.7139 13.0828 12.7178H0.917164C0.920391 12.7138 0.924164 12.7107 0.927227 12.7063L3.97852 8.39863C4.072 8.26653 4.05429 8.07288 3.93848 7.96579C3.8229 7.85894 3.65345 7.87919 3.55994 8.01132L0.538453 12.277V3.66647L6.26407 8.57416C6.47929 8.75735 6.74114 8.83797 6.99995 8.83879C7.2584 8.83816 7.52046 8.75753 7.73582 8.57416L13.4614 3.66647V12.2769L10.44 8.01132C10.3465 7.87922 10.1769 7.85891 10.0615 7.96579C9.94571 8.07263 9.92794 8.26653 10.0215 8.39863Z" fill="white"/>
</g>
<defs>
<clipPath id="clip0_105_83752">
<rect width="14" height="16" fill="white"/>
</clipPath>
</defs>
</svg>
