<svg width="20" height="16" viewBox="0 0 20 16" fill="none" xmlns="http://www.w3.org/2000/svg">
<g clip-path="url(#clip0_105_83735)">
<path d="M7.66036 0C9.21986 0 10.7794 0 12.3389 0C12.3394 0.542271 12.3443 1.08454 12.3383 1.62654C12.3342 1.98194 12.2442 2.31929 12.0759 2.63311C12.0043 2.76662 11.92 2.8933 11.8404 3.02462C14.2267 3.8197 15.8368 6.0435 15.8428 8.55568C15.848 10.7518 15.8439 12.948 15.8439 15.1445C15.8439 15.4131 15.842 15.6821 15.8412 15.9508C11.9471 15.9508 8.0527 15.9508 4.15859 15.9508C4.15613 15.919 4.15175 15.8876 4.15175 15.8558C4.15147 13.4257 4.15093 10.9953 4.15202 8.56525C4.1523 8.13598 4.19935 7.71163 4.29566 7.29248C4.5906 6.00602 5.2486 4.94172 6.25352 4.09083C6.81768 3.61313 7.45571 3.2632 8.15174 3.02681C8.15721 2.98769 8.13286 2.96963 8.11726 2.94829C7.80427 2.51792 7.65489 2.03748 7.66063 1.50451C7.66583 1.00301 7.66063 0.501505 7.66036 0ZM7.66255 8.38577C7.66255 8.91929 7.6672 9.45253 7.65926 9.98605C7.65735 10.1097 7.6921 10.1335 7.80947 10.133C8.88087 10.128 9.95228 10.1316 11.0237 10.1278C11.1307 10.1275 11.175 10.1434 11.1712 10.2648C11.1616 10.5655 11.1616 10.8668 11.1712 11.1674C11.175 11.2856 11.1375 11.3064 11.0275 11.3059C9.95146 11.3015 8.87568 11.3045 7.79962 11.3015C7.70112 11.3012 7.65571 11.3133 7.65926 11.4309C7.66884 11.7406 7.6672 12.0509 7.65981 12.3609C7.65735 12.464 7.6962 12.4769 7.78512 12.4761C8.29127 12.4722 8.79715 12.4763 9.30331 12.472C9.39277 12.4711 9.41685 12.4947 9.41521 12.5841C9.40946 12.8985 9.41548 13.2134 9.41138 13.5278C9.41028 13.6071 9.42424 13.6397 9.51398 13.638C9.83299 13.6323 10.1523 13.632 10.4713 13.638C10.5649 13.6397 10.5857 13.609 10.5843 13.5215C10.5796 13.2115 10.5865 12.9015 10.5799 12.5915C10.578 12.4958 10.6029 12.4706 10.6992 12.4717C11.2007 12.4769 11.7022 12.4698 12.2037 12.4772C12.3219 12.4788 12.3427 12.4432 12.3422 12.3332C12.3378 11.2572 12.3375 10.1814 12.3424 9.10534C12.343 8.99261 12.3173 8.96306 12.2023 8.96361C11.1263 8.96854 10.0505 8.96389 8.97444 8.9699C8.84777 8.97073 8.82506 8.93242 8.82807 8.81724C8.836 8.5212 8.83765 8.22435 8.82752 7.92832C8.82342 7.80821 8.86391 7.79097 8.97171 7.79124C10.0521 7.79535 11.1329 7.79234 12.2133 7.79617C12.3132 7.79644 12.3452 7.77592 12.3424 7.67031C12.3345 7.36498 12.3337 7.05937 12.3427 6.75404C12.3463 6.6394 12.3055 6.62189 12.2043 6.62298C11.6981 6.62763 11.1922 6.62298 10.6861 6.62709C10.6013 6.62791 10.5791 6.60575 10.5805 6.5212C10.5857 6.20219 10.5794 5.8829 10.5846 5.56389C10.5859 5.47825 10.5599 5.45581 10.4768 5.45691C10.1578 5.46129 9.83846 5.46293 9.51945 5.45609C9.42123 5.45417 9.41056 5.49412 9.41165 5.57538C9.41548 5.88071 9.40919 6.18632 9.41548 6.49166C9.41767 6.59316 9.39825 6.62955 9.28525 6.62818C8.78375 6.62107 8.28224 6.62763 7.78074 6.62271C7.68416 6.62161 7.65954 6.6487 7.66036 6.74391C7.66501 7.29166 7.66255 7.83885 7.66255 8.38577Z" fill="#F1C430"/>
<path d="M0 8.94678C0.0574555 8.95225 0.114911 8.96265 0.172367 8.96292C0.815048 8.96401 1.45746 8.9662 2.10014 8.961C2.20492 8.96018 2.229 8.98973 2.22681 9.09042C2.21997 9.39548 2.2197 9.70109 2.22681 10.0064C2.22927 10.1082 2.20356 10.1358 2.09986 10.135C1.45746 10.1298 0.814774 10.1325 0.172093 10.1323C0.113817 10.1323 0.0560875 10.1309 0.000273598 10.1509C0 9.74924 0 9.34815 0 8.94678Z" fill="#F1C430"/>
<path d="M19.9996 10.1506C19.9438 10.1306 19.886 10.1317 19.8278 10.132C19.1859 10.1323 18.5438 10.1295 17.9019 10.135C17.7963 10.1358 17.7747 10.1055 17.7769 10.0059C17.7837 9.70546 17.7845 9.40478 17.7766 9.10464C17.7736 8.99384 17.7988 8.95964 17.9153 8.96073C18.5528 8.96675 19.19 8.96401 19.8275 8.96292C19.8849 8.96292 19.9421 8.95252 19.9996 8.94678C19.9996 9.34815 19.9996 9.74924 19.9996 10.1506Z" fill="#F1C430"/>
<path d="M7.66266 8.38575C7.66266 7.83855 7.66512 7.29163 7.66047 6.74443C7.65965 6.64895 7.68427 6.62214 7.78085 6.62323C8.28236 6.62815 8.78386 6.62159 9.28537 6.6287C9.39809 6.63034 9.41751 6.59368 9.4156 6.49218C9.40931 6.18684 9.4156 5.88123 9.41177 5.5759C9.41067 5.49464 9.42134 5.45469 9.51957 5.45661C9.83858 5.46318 10.1579 5.46153 10.4769 5.45743C10.5601 5.45634 10.5861 5.47904 10.5847 5.56441C10.5795 5.88342 10.5858 6.20271 10.5806 6.52172C10.5792 6.60627 10.6016 6.62815 10.6862 6.62761C11.1923 6.6235 11.6982 6.62815 12.2044 6.6235C12.3056 6.62268 12.3464 6.63992 12.3428 6.75456C12.3335 7.05962 12.3346 7.3655 12.3425 7.67084C12.3453 7.77617 12.3133 7.79696 12.2134 7.79669C11.133 7.79286 10.0523 7.79587 8.97182 7.79177C8.86375 7.79122 8.82353 7.80845 8.82764 7.92884C8.83776 8.22487 8.83639 8.52145 8.82818 8.81776C8.82517 8.93294 8.84788 8.97097 8.97456 8.97042C10.0506 8.96441 11.1264 8.96906 12.2025 8.96413C12.3174 8.96359 12.3431 8.99313 12.3425 9.10586C12.3379 10.1819 12.3379 11.2577 12.3423 12.3338C12.3428 12.4437 12.322 12.4793 12.2038 12.4777C11.7023 12.4703 11.2008 12.4771 10.6993 12.4722C10.603 12.4711 10.5781 12.4963 10.58 12.592C10.5866 12.902 10.5795 13.212 10.5844 13.522C10.5858 13.6093 10.565 13.6402 10.4714 13.6386C10.1524 13.6325 9.83311 13.6328 9.51409 13.6386C9.42435 13.6402 9.4104 13.6076 9.41149 13.5283C9.4156 13.2137 9.40985 12.899 9.41533 12.5847C9.41697 12.4955 9.39262 12.4717 9.30342 12.4725C8.79727 12.4769 8.29139 12.4725 7.78523 12.4766C7.69631 12.4774 7.65746 12.4645 7.65992 12.3614C7.66731 12.0517 7.66895 11.7411 7.65937 11.4314C7.65582 11.3138 7.70096 11.3018 7.79973 11.302C8.87579 11.305 9.95158 11.3023 11.0276 11.3064C11.1376 11.307 11.1748 11.2862 11.1713 11.168C11.1617 10.8673 11.1617 10.566 11.1713 10.2654C11.1751 10.1439 11.1308 10.1277 11.0238 10.1283C9.9524 10.1321 8.88099 10.1286 7.80958 10.1335C7.69221 10.134 7.65746 10.1102 7.65937 9.98657C7.66731 9.45278 7.66266 8.91926 7.66266 8.38575Z" fill="#436092"/>
<path d="M3.02803 6.07506C3.00696 6.12349 2.98289 6.17711 2.96018 6.23183C2.85074 6.49585 2.7413 6.75987 2.6335 7.02444C2.60943 7.08354 2.59547 7.12239 2.51038 7.08627C1.89643 6.82608 1.27947 6.57191 0.662504 6.31884C0.592462 6.29011 0.560999 6.26658 0.597114 6.18286C0.725431 5.88737 0.849918 5.59025 0.967018 5.29039C1.00149 5.20201 1.04007 5.20201 1.11558 5.23348C1.7309 5.49093 2.34759 5.7451 2.96319 6.00174C2.99137 6.01323 3.04253 6.01159 3.02803 6.07506Z" fill="#F1C430"/>
<path d="M3.03213 13.0318C3.04882 13.0825 3.00395 13.0811 2.97851 13.0915C2.34568 13.3544 1.71202 13.6157 1.07974 13.8808C1.02748 13.9027 1.00888 13.8948 0.988904 13.8463C0.857851 13.5273 0.72625 13.2083 0.59164 12.8909C0.566743 12.8321 0.586989 12.8143 0.63952 12.7927C1.26496 12.5355 1.88959 12.2764 2.51366 12.016C2.57522 11.9903 2.60532 11.9946 2.63268 12.0628C2.7558 12.3703 2.88466 12.6756 3.01134 12.9815C3.01845 12.9982 3.02529 13.0152 3.03213 13.0318Z" fill="#F1C430"/>
<path d="M19.4302 6.23083C19.4401 6.27762 19.4067 6.28309 19.3768 6.2954C18.7443 6.55751 18.1117 6.81934 17.48 7.08391C17.4247 7.10689 17.4017 7.09485 17.3807 7.0426C17.251 6.72331 17.121 6.40429 16.9856 6.08719C16.9612 6.03029 16.984 6.0177 17.0255 6.00046C17.6584 5.73945 18.2915 5.47871 18.9238 5.21579C18.9749 5.19444 19.0001 5.19061 19.025 5.25245C19.152 5.56791 19.2846 5.8809 19.4152 6.19499C19.4204 6.20758 19.4256 6.22016 19.4302 6.23083Z" fill="#F1C430"/>
<path d="M19.4353 12.8537C19.4298 12.8685 19.4244 12.886 19.4173 12.9027C19.2884 13.2124 19.1582 13.5216 19.0315 13.8324C19.0088 13.8885 18.9945 13.9093 18.9264 13.8805C18.2993 13.6168 17.6709 13.3569 17.0408 13.1002C16.9666 13.0701 16.9757 13.0389 16.9998 12.9818C17.1267 12.6811 17.2539 12.3801 17.3727 12.0761C17.4049 11.9935 17.4383 11.9916 17.5106 12.0217C18.1294 12.2811 18.75 12.5374 19.3699 12.7943C19.3981 12.8061 19.4345 12.808 19.4353 12.8537Z" fill="#F1C430"/>
</g>
<defs>
<clipPath id="clip0_105_83735">
<rect width="20" height="15.9508" fill="white"/>
</clipPath>
</defs>
</svg>
