<svg width="14" height="14" viewBox="0 0 14 14" fill="none" xmlns="http://www.w3.org/2000/svg">
<g clip-path="url(#clip0_105_83759)">
<path d="M12.7915 11.8083L11.7894 10.1388C11.3274 9.36818 11.0829 8.48618 11.0829 7.58725V6.12483C11.0829 3.87375 9.25068 2.0415 6.9996 2.0415C4.74853 2.0415 2.91628 3.87375 2.91628 6.12483V7.58725C2.91628 8.48618 2.67185 9.36818 2.20985 10.1388L1.20768 11.8083C1.15343 11.8981 1.15225 12.0107 1.2036 12.1017C1.25553 12.1933 1.35293 12.2499 1.45793 12.2499H12.5413C12.6463 12.2499 12.7437 12.1933 12.7956 12.1017C12.8469 12.0107 12.8458 11.8981 12.7915 11.8083ZM1.97303 11.6665L2.70978 10.4386C3.2266 9.57758 3.4996 8.59175 3.4996 7.58725V6.12483C3.4996 4.19458 5.06935 2.62483 6.9996 2.62483C8.92985 2.62483 10.4996 4.19458 10.4996 6.12483V7.58725C10.4996 8.59175 10.7726 9.57758 11.2889 10.4386L12.0262 11.6665H1.97303Z" fill="white"/>
<path d="M6.99969 0C6.35626 0 5.83301 0.52325 5.83301 1.16668V2.33335C5.83301 2.49432 5.96368 2.625 6.12469 2.625C6.28569 2.625 6.41636 2.49432 6.41636 2.33332V1.16668C6.41636 0.844676 6.67769 0.583352 6.99969 0.583352C7.32169 0.583352 7.58302 0.844676 7.58302 1.16668V2.33335C7.58302 2.49432 7.71369 2.625 7.8747 2.625C8.0357 2.625 8.16637 2.49432 8.16637 2.33332V1.16668C8.16637 0.52325 7.64312 0 6.99969 0Z" fill="white"/>
<path d="M8.26266 11.8107C8.18041 11.6719 8.00248 11.6264 7.86308 11.7063C7.72366 11.788 7.67701 11.967 7.75866 12.1059C7.83448 12.2348 7.87591 12.3894 7.87591 12.5416C7.87591 13.0241 7.48334 13.4166 7.00091 13.4166C6.51849 13.4166 6.12592 13.0241 6.12592 12.5416C6.12592 12.3894 6.16734 12.2348 6.24317 12.1059C6.32424 11.9664 6.27759 11.7879 6.13874 11.7063C5.99817 11.6264 5.82082 11.6719 5.73917 11.8107C5.61024 12.0312 5.54199 12.2838 5.54199 12.5417C5.54202 13.3461 6.19592 14 7.00034 14C7.80476 14 8.45866 13.3461 8.45983 12.5417C8.45983 12.2838 8.39158 12.0312 8.26266 11.8107Z" fill="white"/>
</g>
<defs>
<clipPath id="clip0_105_83759">
<rect width="14" height="14" fill="white"/>
</clipPath>
</defs>
</svg>
