<svg width="12" height="12" viewBox="0 0 12 12" fill="none" xmlns="http://www.w3.org/2000/svg">
<g clip-path="url(#clip0_105_83795)">
<path d="M9.27934 11.9999C9.14482 11.9555 9.00277 11.9565 8.865 11.9309C8.18876 11.8044 7.5588 11.5534 6.95471 11.2313C5.93649 10.6881 5.03709 9.98137 4.18946 9.20576C3.41234 8.49474 2.68312 7.73747 2.02319 6.91541C1.36999 6.10191 0.794028 5.23952 0.401088 4.26711C0.136139 3.6115 -0.0307794 2.93409 0.0034602 2.22022C0.0211914 1.85697 0.0605262 1.49718 0.241507 1.16937C0.379892 0.91858 0.599596 0.760077 0.840292 0.620317C1.13887 0.446942 1.43174 0.263176 1.72991 0.0889855C2.01076 -0.0752221 2.29201 -0.00921306 2.4736 0.262565C3.0196 1.07892 3.56418 1.89629 4.10793 2.71427C4.29279 2.99236 4.24673 3.26964 3.98443 3.47561C3.69624 3.70175 3.40643 3.92545 3.11743 4.15037C2.85411 4.35532 2.81355 4.60653 2.96661 4.90397C3.42599 5.79611 4.0794 6.53484 4.78355 7.23568C5.27473 7.72463 5.78058 8.19546 6.35368 8.58947C6.61089 8.76631 6.88236 8.91911 7.15893 9.06193C7.40288 9.18783 7.64908 9.13079 7.82273 8.91361C8.05568 8.62227 8.28272 8.32605 8.5118 8.03166C8.73171 7.74908 9.00501 7.70304 9.30339 7.90147C10.1076 8.43647 10.9116 8.97147 11.7148 9.5079C12.021 9.71224 12.0811 9.98565 11.8915 10.3045C11.701 10.6252 11.5053 10.9426 11.3174 11.2647C11.0849 11.6634 10.7304 11.8687 10.2843 11.9413C10.1667 11.9604 10.0457 11.96 9.93172 12.0003C9.71426 11.9999 9.4968 11.9999 9.27934 11.9999Z" fill="white"/>
<path d="M10.7599 5.19838C10.7599 5.25258 10.7605 5.30697 10.7597 5.36116C10.7583 5.48972 10.6749 5.58242 10.5594 5.58507C10.4422 5.58771 10.349 5.50337 10.345 5.37481C10.3391 5.19146 10.3307 5.00891 10.3003 4.82779C10.1652 4.02122 9.79815 3.33892 9.19406 2.78803C8.54432 2.19578 7.77678 1.89018 6.89755 1.86532C6.81908 1.86308 6.74 1.86268 6.6807 1.79911C6.6222 1.73636 6.60162 1.66119 6.63545 1.58316C6.6754 1.49148 6.75101 1.44666 6.85414 1.44829C7.25686 1.4546 7.65409 1.50696 8.03378 1.64081C9.37158 2.11225 10.2433 3.02904 10.6321 4.39588C10.7065 4.65707 10.7446 4.92599 10.7599 5.19838Z" fill="white"/>
<path d="M6.96379 2.69558C8.19214 2.76872 9.19467 3.62255 9.45921 4.82232C9.49875 5.00161 9.51138 5.18476 9.5175 5.36792C9.52137 5.48078 9.43536 5.57593 9.3304 5.58387C9.21423 5.59263 9.11824 5.5199 9.10723 5.39644C9.0895 5.19393 9.07952 4.99162 9.02306 4.7938C8.80804 4.04081 8.33175 3.52802 7.60599 3.24382C7.36672 3.1501 7.11522 3.11689 6.85944 3.10426C6.7017 3.09652 6.61589 3.01116 6.62242 2.88545C6.62894 2.75792 6.73125 2.68457 6.89267 2.69191C6.91631 2.69313 6.93995 2.69456 6.96379 2.69558Z" fill="white"/>
<path d="M8.27333 5.3184C8.28535 5.4684 8.21137 5.57479 8.08807 5.58457C7.95518 5.59517 7.8704 5.50712 7.85858 5.34673C7.81619 4.77138 7.43262 4.38475 6.85319 4.34888C6.72214 4.34073 6.61066 4.24168 6.62187 4.12184C6.63329 4.00119 6.72907 3.92863 6.87643 3.93332C7.60239 3.95655 8.23644 4.53659 8.27333 5.3184Z" fill="white"/>
</g>
<defs>
<clipPath id="clip0_105_83795">
<rect width="12" height="12" fill="white"/>
</clipPath>
</defs>
</svg>
