<svg width="12" height="15" viewBox="0 0 12 15" fill="none" xmlns="http://www.w3.org/2000/svg">
<g clip-path="url(#clip0_2_17594)">
<path d="M6.00156 0C7.06577 0.613918 8.10783 1.21522 9.1665 1.82607C8.10998 2.43568 7.06423 3.03945 6.00156 3.65275C6.00156 3.27874 5.99756 2.92226 6.00402 2.56547C6.00587 2.45752 5.98864 2.41722 5.865 2.41907C3.72305 2.4529 1.77303 4.05321 1.32859 6.15271C1.02224 7.59954 1.31044 8.91934 2.19318 10.1072C2.24946 10.1829 2.26115 10.2207 2.16242 10.2739C1.87084 10.4314 1.58418 10.5984 1.30029 10.7697C1.22893 10.8128 1.19479 10.8118 1.14589 10.7429C0.622705 10.0097 0.25946 9.20446 0.103828 8.31711C-0.190828 6.63622 0.137661 5.08205 1.14066 3.69612C2.10798 2.35971 3.42101 1.5594 5.05146 1.28258C5.31998 1.23706 5.59003 1.21553 5.86069 1.21C5.99326 1.20723 6.00556 1.15525 6.00371 1.04729C5.99818 0.704652 6.00156 0.362015 6.00156 0Z" fill="white"/>
<path d="M5.97548 14.4482C4.91189 13.8346 3.86645 13.2311 2.81055 12.6218C3.86368 12.0141 4.90851 11.4112 5.97548 10.7955C5.97548 11.1049 5.97548 11.3983 5.97548 11.6917C5.97548 11.7277 5.97548 11.7634 5.97548 11.7994C5.97548 12.0002 5.97548 12.0002 6.18156 11.9941C8.39886 11.9289 10.319 10.2769 10.7124 8.09127C10.9622 6.70442 10.6577 5.44614 9.82016 4.31489C9.79894 4.28628 9.78017 4.25583 9.76018 4.22569C10.0804 4.04084 10.3996 3.85968 10.7149 3.67236C10.7902 3.62777 10.8272 3.62654 10.8831 3.70589C11.5041 4.58801 11.8843 5.55994 11.975 6.63768C12.1383 8.58462 11.5106 10.2418 10.1034 11.5899C9.22131 12.4348 8.15926 12.9414 6.94957 13.1358C6.67552 13.1798 6.40024 13.2019 6.12466 13.2084C5.98902 13.2115 5.96933 13.2585 5.97271 13.3775C5.98102 13.6796 5.97548 13.9822 5.97548 14.2846C5.97548 14.3335 5.97548 14.3824 5.97548 14.4482Z" fill="white"/>
</g>
<defs>
<clipPath id="clip0_2_17594">
<rect width="12" height="14.4483" fill="white"/>
</clipPath>
</defs>
</svg>
