<svg width="14" height="14" viewBox="0 0 14 14" fill="none" xmlns="http://www.w3.org/2000/svg">
<g clip-path="url(#clip0_1578_13316)">
<path d="M6.23646 0.599609C3.12838 0.599609 0.599609 3.12838 0.599609 6.23646C0.599609 9.34471 3.12838 11.8733 6.23646 11.8733C9.34471 11.8733 11.8733 9.34471 11.8733 6.23646C11.8733 3.12838 9.34471 0.599609 6.23646 0.599609ZM6.23646 10.8327C3.70213 10.8327 1.64026 8.77081 1.64026 6.23648C1.64026 3.70216 3.70213 1.64026 6.23646 1.64026C8.77078 1.64026 10.8327 3.70213 10.8327 6.23646C10.8327 8.77078 8.77078 10.8327 6.23646 10.8327Z" fill="white"/>
<path d="M13.2464 12.5107L10.2632 9.52746C10.0599 9.32418 9.73073 9.32418 9.52746 9.52746C9.32418 9.73056 9.32418 10.0601 9.52746 10.2632L12.5107 13.2464C12.6123 13.348 12.7454 13.3989 12.8786 13.3989C13.0116 13.3989 13.1448 13.348 13.2464 13.2464C13.4497 13.0433 13.4497 12.7138 13.2464 12.5107Z" fill="white"/>
</g>
<defs>
<clipPath id="clip0_1578_13316">
<rect width="12.8" height="12.8" fill="white" transform="translate(0.599609 0.599609)"/>
</clipPath>
</defs>
</svg>
