<svg width="13" height="13" viewBox="0 0 13 13" fill="none" xmlns="http://www.w3.org/2000/svg">
<path d="M2.81885 10.3423L5.86042 10.3323L12.4991 3.97226C12.7596 3.72026 12.903 3.38559 12.903 3.02959C12.903 2.67359 12.7596 2.33893 12.4991 2.08693L11.406 1.02959C10.8849 0.525594 9.97582 0.52826 9.4589 1.02759L2.81885 7.38893V10.3423ZM10.4314 1.97226L11.5266 3.02759L10.4259 4.08226L9.33277 3.02559L10.4314 1.97226ZM4.19731 7.94493L8.35337 3.96293L9.44649 5.02026L5.29112 9.00093L4.19731 9.00426V7.94493Z" fill="#575757"/>
<path d="M1.43998 13H11.0892C11.8494 13 12.4677 12.402 12.4677 11.6667V5.888L11.0892 7.22133V11.6667H3.61658C3.59866 11.6667 3.58005 11.6733 3.56213 11.6733C3.53938 11.6733 3.51664 11.6673 3.4932 11.6667H1.43998V2.33333H6.15915L7.53761 1H1.43998C0.679763 1 0.0615234 1.598 0.0615234 2.33333V11.6667C0.0615234 12.402 0.679763 13 1.43998 13Z" fill="#575757"/>
</svg>
