<svg width="14" height="12" viewBox="0 0 14 12" fill="none" xmlns="http://www.w3.org/2000/svg">
<g clip-path="url(#clip0_1574_11330)">
<path d="M13.2821 6C13.2821 7.5913 12.628 9.11742 11.4637 10.2426C10.2994 11.3679 8.72025 12 7.07367 12C5.42709 12 3.84795 11.3679 2.68364 10.2426C1.51934 9.11742 0.865234 7.5913 0.865234 6C0.865234 4.4087 1.51934 2.88258 2.68364 1.75736C3.84795 0.632141 5.42709 0 7.07367 0C8.72025 0 10.2994 0.632141 11.4637 1.75736C12.628 2.88258 13.2821 4.4087 13.2821 6ZM7.4617 3.375C7.4617 3.27554 7.42082 3.18016 7.34805 3.10984C7.27528 3.03951 7.17658 3 7.07367 3C6.97076 3 6.87206 3.03951 6.79929 3.10984C6.72652 3.18016 6.68564 3.27554 6.68564 3.375V7.71975L5.02023 6.1095C4.94737 6.03908 4.84855 5.99953 4.74551 5.99953C4.64247 5.99953 4.54364 6.03908 4.47078 6.1095C4.39792 6.17991 4.35699 6.27542 4.35699 6.375C4.35699 6.47458 4.39792 6.57009 4.47078 6.6405L6.79895 8.8905C6.83499 8.92542 6.87781 8.95313 6.92495 8.97203C6.97209 8.99094 7.02263 9.00067 7.07367 9.00067C7.12471 9.00067 7.17525 8.99094 7.22239 8.97203C7.26953 8.95313 7.31235 8.92542 7.34839 8.8905L9.67656 6.6405C9.74942 6.57009 9.79035 6.47458 9.79035 6.375C9.79035 6.27542 9.74942 6.17991 9.67656 6.1095C9.6037 6.03908 9.50488 5.99953 9.40183 5.99953C9.29879 5.99953 9.19997 6.03908 9.12711 6.1095L7.4617 7.71975V3.375Z" fill="#B9BCBE"/>
</g>
<defs>
<clipPath id="clip0_1574_11330">
<rect width="12.4169" height="12" fill="white" transform="translate(0.865234)"/>
</clipPath>
</defs>
</svg>
