<svg width="10" height="12" viewBox="0 0 10 12" fill="none" xmlns="http://www.w3.org/2000/svg">
<path d="M9.86648 8.99196L6.80966 11.8741C6.72443 11.9545 6.60938 12 6.48864 12H0.454545C0.203125 12 0 11.8085 0 11.5714V0.428572C0 0.191518 0.203125 0 0.454545 0H9.54545C9.79688 0 10 0.191518 10 0.428572V8.68795C10 8.80179 9.9517 8.91161 9.86648 8.99196ZM8.9517 8.49107H6.27841V11.0116L8.9517 8.49107ZM8.97727 0.964286H1.02273V11.0357H5.3125V8.14286C5.3125 7.99367 5.37536 7.8506 5.48724 7.74511C5.59912 7.63962 5.75087 7.58036 5.90909 7.58036H8.97727V0.964286ZM5.02983 5.08795L4.15199 6.45937C4.12074 6.50759 4.06534 6.53705 4.00568 6.53705H3.46023C3.42756 6.53705 3.39631 6.52902 3.36932 6.51161C3.28977 6.46473 3.26562 6.36562 3.31676 6.28929L4.4858 4.54286L3.30114 2.76429C3.28504 2.73989 3.27615 2.71189 3.27538 2.68317C3.27462 2.65445 3.282 2.62605 3.29677 2.60093C3.31155 2.5758 3.33317 2.55485 3.35941 2.54025C3.38565 2.52564 3.41555 2.51791 3.44602 2.51786H3.93608C3.99574 2.51786 4.04972 2.54732 4.08097 2.5942L4.97159 3.95357L5.85653 2.59554C5.88778 2.54732 5.94318 2.5192 6.00142 2.5192H6.53409C6.56676 2.5192 6.59801 2.52857 6.62642 2.54464C6.70597 2.59286 6.72869 2.69196 6.67756 2.76696L5.48438 4.51339L6.69602 6.28795C6.71242 6.31227 6.72161 6.34029 6.72263 6.3691C6.72365 6.3979 6.71646 6.42644 6.70181 6.45173C6.68716 6.47703 6.66559 6.49817 6.63934 6.51293C6.61309 6.5277 6.58312 6.53557 6.55256 6.53571H6.04545C5.9858 6.53571 5.9304 6.50625 5.89915 6.45804L5.02983 5.08795Z" fill="#575757"/>
</svg>
