<svg width="12" height="12" viewBox="0 0 12 12" fill="none" xmlns="http://www.w3.org/2000/svg">
<path d="M3 10C2.58333 10 2.22917 9.85417 1.9375 9.5625C1.64583 9.27083 1.5 8.91667 1.5 8.5C1.225 8.5 0.989667 8.40217 0.794 8.2065C0.598 8.0105 0.5 7.775 0.5 7.5V3C0.5 2.725 0.598 2.48967 0.794 2.294C0.989667 2.098 1.225 2 1.5 2H7.5C7.775 2 8.0105 2.098 8.2065 2.294C8.40217 2.48967 8.5 2.725 8.5 3V4H9.75C9.83333 4 9.90833 4.01667 9.975 4.05C10.0417 4.08333 10.1 4.13333 10.15 4.2L11.4 5.8625C11.4333 5.90417 11.4583 5.95 11.475 6C11.4917 6.05 11.5 6.10417 11.5 6.1625V8C11.5 8.14167 11.452 8.26033 11.356 8.356C11.2603 8.452 11.1417 8.5 11 8.5H10.5C10.5 8.91667 10.3542 9.27083 10.0625 9.5625C9.77083 9.85417 9.41667 10 9 10C8.58333 10 8.22917 9.85417 7.9375 9.5625C7.64583 9.27083 7.5 8.91667 7.5 8.5H4.5C4.5 8.91667 4.35417 9.27083 4.0625 9.5625C3.77083 9.85417 3.41667 10 3 10ZM3 9C3.14167 9 3.2605 8.952 3.3565 8.856C3.45217 8.76033 3.5 8.64167 3.5 8.5C3.5 8.35833 3.45217 8.23967 3.3565 8.144C3.2605 8.048 3.14167 8 3 8C2.85833 8 2.7395 8.048 2.6435 8.144C2.54783 8.23967 2.5 8.35833 2.5 8.5C2.5 8.64167 2.54783 8.76033 2.6435 8.856C2.7395 8.952 2.85833 9 3 9ZM1.5 3V7.5H1.9C2.04167 7.35 2.20417 7.22917 2.3875 7.1375C2.57083 7.04583 2.775 7 3 7C3.225 7 3.42917 7.04583 3.6125 7.1375C3.79583 7.22917 3.95833 7.35 4.1 7.5H7.5V3H1.5ZM9 9C9.14167 9 9.26033 8.952 9.356 8.856C9.452 8.76033 9.5 8.64167 9.5 8.5C9.5 8.35833 9.452 8.23967 9.356 8.144C9.26033 8.048 9.14167 8 9 8C8.85833 8 8.73967 8.048 8.644 8.144C8.548 8.23967 8.5 8.35833 8.5 8.5C8.5 8.64167 8.548 8.76033 8.644 8.856C8.73967 8.952 8.85833 9 9 9ZM8.5 6.5H10.625L9.5 5H8.5V6.5Z" fill="#26B01C"/>
</svg>
