<svg width="13" height="8" viewBox="0 0 13 8" fill="none" xmlns="http://www.w3.org/2000/svg">
<path d="M2.83381 8C2.36639 8 1.96909 7.85417 1.64189 7.5625C1.3147 7.27083 1.1511 6.91667 1.1511 6.5C0.842607 6.5 0.578608 6.40217 0.359108 6.2065C0.139234 6.0105 0.0292969 5.775 0.0292969 5.5V1C0.0292969 0.725 0.139234 0.489667 0.359108 0.294C0.578608 0.0979999 0.842607 0 1.1511 0H7.88194C8.19044 0 8.45463 0.0979999 8.6745 0.294C8.894 0.489667 9.00375 0.725 9.00375 1V2H10.406C10.4995 2 10.5836 2.01667 10.6584 2.05C10.7332 2.08333 10.7986 2.13333 10.8547 2.2L12.257 3.8625C12.2944 3.90417 12.3224 3.95 12.3411 4C12.3598 4.05 12.3692 4.10417 12.3692 4.1625V6C12.3692 6.14167 12.3153 6.26033 12.2076 6.356C12.1003 6.452 11.9672 6.5 11.8083 6.5H11.2474C11.2474 6.91667 11.0838 7.27083 10.7566 7.5625C10.4294 7.85417 10.0321 8 9.56465 8C9.09723 8 8.69993 7.85417 8.37273 7.5625C8.04554 7.27083 7.88194 6.91667 7.88194 6.5H4.51652C4.51652 6.91667 4.35293 7.27083 4.02573 7.5625C3.69854 7.85417 3.30123 8 2.83381 8ZM2.83381 7C2.99274 7 3.12604 6.952 3.23374 6.856C3.34106 6.76033 3.39472 6.64167 3.39472 6.5C3.39472 6.35833 3.34106 6.23967 3.23374 6.144C3.12604 6.048 2.99274 6 2.83381 6C2.67489 6 2.54158 6.048 2.43389 6.144C2.32657 6.23967 2.27291 6.35833 2.27291 6.5C2.27291 6.64167 2.32657 6.76033 2.43389 6.856C2.54158 6.952 2.67489 7 2.83381 7ZM1.1511 1V5.5H1.59983C1.75875 5.35 1.94104 5.22917 2.14671 5.1375C2.35237 5.04583 2.58141 5 2.83381 5C3.08622 5 3.31526 5.04583 3.52092 5.1375C3.72658 5.22917 3.90888 5.35 4.0678 5.5H7.88194V1H1.1511ZM9.56465 7C9.72358 7 9.8567 6.952 9.96402 6.856C10.0717 6.76033 10.1256 6.64167 10.1256 6.5C10.1256 6.35833 10.0717 6.23967 9.96402 6.144C9.8567 6.048 9.72358 6 9.56465 6C9.40573 6 9.27261 6.048 9.16529 6.144C9.0576 6.23967 9.00375 6.35833 9.00375 6.5C9.00375 6.64167 9.0576 6.76033 9.16529 6.856C9.27261 6.952 9.40573 7 9.56465 7ZM9.00375 4.5H11.3876L10.1256 3H9.00375V4.5Z" fill="#E6E6E6"/>
</svg>
