<svg width="12" height="12" viewBox="0 0 12 12" fill="none" xmlns="http://www.w3.org/2000/svg">
<path d="M5.58357 1.27029C5.75019 1.18781 5.93763 1.14453 6.12821 1.14453C6.31879 1.14453 6.50623 1.18781 6.67285 1.27029L10.888 3.35729C10.9754 3.40061 11.0482 3.46397 11.0989 3.54081C11.1496 3.61764 11.1763 3.70516 11.1763 3.79429V7.91179C11.1763 8.09012 11.1228 8.26519 11.0213 8.41886C10.9198 8.57253 10.7741 8.69922 10.5992 8.78579L6.67285 10.7308C6.50623 10.8133 6.31879 10.8566 6.12821 10.8566C5.93763 10.8566 5.75019 10.8133 5.58357 10.7308L1.65725 8.78579C1.48245 8.69926 1.33677 8.57265 1.23529 8.41907C1.13381 8.2655 1.08023 8.09053 1.08008 7.91229V3.79429C1.08007 3.70516 1.1068 3.61764 1.15749 3.54081C1.20818 3.46397 1.28099 3.40061 1.36838 3.35729L5.58413 1.27029H5.58357Z" stroke="#E6E6E6" stroke-linecap="round" stroke-linejoin="round"/>
<path d="M1.08008 3.5L6.12821 6M6.12821 6L11.1763 3.5M6.12821 6V10.75" stroke="#E6E6E6" stroke-linejoin="round"/>
<path d="M3.60503 4.75L8.65316 2.25M2.76367 6.164L4.44638 7" stroke="#E6E6E6" stroke-linecap="round" stroke-linejoin="round"/>
</svg>
