<svg width="12" height="12" viewBox="0 0 12 12" fill="none" xmlns="http://www.w3.org/2000/svg">
<path d="M5.58552 1.27029C5.75214 1.18781 5.93958 1.14453 6.13016 1.14453C6.32074 1.14453 6.50818 1.18781 6.6748 1.27029L10.89 3.35729C10.9774 3.40061 11.0502 3.46397 11.1009 3.54081C11.1516 3.61764 11.1783 3.70516 11.1783 3.79429V7.91179C11.1782 8.09012 11.1247 8.26519 11.0232 8.41886C10.9217 8.57253 10.776 8.69922 10.6011 8.78579L6.6748 10.7308C6.50818 10.8133 6.32074 10.8566 6.13016 10.8566C5.93958 10.8566 5.75214 10.8133 5.58552 10.7308L1.6592 8.78579C1.4844 8.69926 1.33872 8.57265 1.23724 8.41907C1.13576 8.2655 1.08218 8.09053 1.08203 7.91229V3.79429C1.08203 3.70516 1.10875 3.61764 1.15944 3.54081C1.21013 3.46397 1.28295 3.40061 1.37034 3.35729L5.58609 1.27029H5.58552Z" stroke="#26B01C" stroke-linecap="round" stroke-linejoin="round"/>
<path d="M1.08203 3.5L6.13016 6M6.13016 6L11.1783 3.5M6.13016 6V10.75" stroke="#26B01C" stroke-linejoin="round"/>
<path d="M3.60698 4.75L8.65511 2.25M2.76562 6.164L4.44833 7" stroke="#26B01C" stroke-linecap="round" stroke-linejoin="round"/>
</svg>
