<svg width="12" height="12" viewBox="0 0 12 12" fill="none" xmlns="http://www.w3.org/2000/svg">
<path d="M6 12C2.68661 12 0 9.31339 0 6C0 2.68661 2.68661 0 6 0C9.31339 0 12 2.68661 12 6C12 9.31339 9.31339 12 6 12ZM6 1.01786C3.24911 1.01786 1.01786 3.24911 1.01786 6C1.01786 7.19196 1.43705 8.2875 2.13616 9.14464L9.14464 2.13616C8.2875 1.43705 7.19196 1.01786 6 1.01786ZM9.86384 2.85536L2.85536 9.86384C3.7125 10.5629 4.80804 10.9821 6 10.9821C8.75089 10.9821 10.9821 8.75089 10.9821 6C10.9821 4.80804 10.5629 3.7125 9.86384 2.85536Z" fill="#1771C1"/>
</svg>
