<svg width="12" height="12" viewBox="0 0 12 12" fill="none" xmlns="http://www.w3.org/2000/svg">
<path d="M2.57617 8.97772L5.41846 8.96859L11.6221 3.16129C11.8656 2.93119 11.9996 2.62561 11.9996 2.30054C11.9996 1.97548 11.8656 1.6699 11.6221 1.4398L10.6007 0.474349C10.1137 0.0141477 9.2642 0.0165826 8.78115 0.472523L2.57617 6.28104V8.97772ZM9.68994 1.3351L10.7134 2.29872L9.68478 3.26173L8.66329 2.29689L9.68994 1.3351ZM3.86431 6.78872L7.74806 3.15277L8.76956 4.11822L4.88645 7.75296L3.86431 7.756V6.78872Z" fill="#1771C1"/>
<path d="M1.28814 11.4044H10.3051C11.0155 11.4044 11.5933 10.8584 11.5933 10.187V4.91049L10.3051 6.12795V10.187H3.32212C3.30537 10.187 3.28798 10.1931 3.27124 10.1931C3.24998 10.1931 3.22873 10.1876 3.20683 10.187H1.28814V1.66473H5.69809L6.98624 0.447266H1.28814C0.577732 0.447266 0 0.993298 0 1.66473V10.187C0 10.8584 0.577732 11.4044 1.28814 11.4044Z" fill="#1771C1"/>
</svg>
