<svg width="16" height="13" viewBox="0 0 16 13" fill="none" xmlns="http://www.w3.org/2000/svg">
<path d="M6.85742 2.88867H10.5435V3.61089H6.85742V2.88867Z" fill="#1771C1"/>
<path d="M6.85742 4.33301H10.5435V5.05523H6.85742V4.33301Z" fill="#1771C1"/>
<path d="M6.85742 5.77734H10.5435V6.49957H6.85742V5.77734Z" fill="#1771C1"/>
<path d="M6.85742 7.22266H10.5435V7.94488H6.85742V7.22266Z" fill="#1771C1"/>
<path d="M6.85742 8.66699H10.5435V9.38921H6.85742V8.66699Z" fill="#1771C1"/>
<path d="M5.2207 2.88867H6.03918V3.61089H5.2207V2.88867Z" fill="#1771C1"/>
<path d="M5.2207 4.33301H6.03918V5.05523H5.2207V4.33301Z" fill="#1771C1"/>
<path d="M5.2207 5.77734H6.03918V6.49957H5.2207V5.77734Z" fill="#1771C1"/>
<path d="M5.2207 7.22266H6.03918V7.94488H5.2207V7.22266Z" fill="#1771C1"/>
<path d="M5.2207 8.66699H6.03918V9.38921H5.2207V8.66699Z" fill="#1771C1"/>
<path d="M12.1823 0.722656H3.991C3.77376 0.722656 3.56541 0.798747 3.41179 0.93419C3.25818 1.06963 3.17188 1.25333 3.17188 1.44488V11.556C3.17188 11.7475 3.25818 11.9312 3.41179 12.0667C3.56541 12.2021 3.77376 12.2782 3.991 12.2782H12.1823C12.3995 12.2782 12.6079 12.2021 12.7615 12.0667C12.9151 11.9312 13.0014 11.7475 13.0014 11.556V1.44488C13.0014 1.25333 12.9151 1.06963 12.7615 0.93419C12.6079 0.798747 12.3995 0.722656 12.1823 0.722656ZM12.1823 11.556H3.991V1.44488H12.1823V11.556Z" fill="#1771C1"/>
</svg>
