<svg width="16" height="13" viewBox="0 0 16 13" fill="none" xmlns="http://www.w3.org/2000/svg">
<path d="M15.1994 0.40845C15.1313 0.40161 15.0626 0.40161 14.9944 0.40845H0.994491C0.904764 0.409797 0.81563 0.4229 0.729492 0.447407L7.95446 7.45484L15.1994 0.40845Z" fill="white"/>
<path d="M15.9399 1.08545L8.65996 8.14644C8.4726 8.32784 8.21915 8.42966 7.95497 8.42966C7.69078 8.42966 7.43733 8.32784 7.24997 8.14644L0.0349999 1.13902C0.0128197 1.21841 0.00105934 1.30022 0 1.3825V11.1218C0 11.3801 0.105356 11.6278 0.292892 11.8105C0.480428 11.9931 0.734781 12.0957 0.999996 12.0957H14.9999C15.2652 12.0957 15.5195 11.9931 15.707 11.8105C15.8946 11.6278 15.9999 11.3801 15.9999 11.1218V1.3825C15.996 1.28104 15.9757 1.18081 15.9399 1.08545ZM1.68499 11.1218H0.989996V10.4254L4.62498 6.91442L5.32998 7.60104L1.68499 11.1218ZM14.9899 11.1218H14.2899L10.645 7.60104L11.35 6.91442L14.9849 10.4254L14.9899 11.1218Z" fill="white"/>
</svg>
