<svg width="17" height="16" viewBox="0 0 17 16" fill="none" xmlns="http://www.w3.org/2000/svg">
<path d="M11.2709 11.0157L12.6486 9.68051C12.8342 9.5029 13.069 9.38132 13.3245 9.33053C13.5799 9.27974 13.8451 9.30192 14.0879 9.39439L15.767 10.0441C16.0123 10.1406 16.2226 10.3053 16.3715 10.5175C16.5204 10.7296 16.6011 10.9797 16.6035 11.2363V14.2167C16.6021 14.3913 16.5642 14.5637 16.4922 14.7237C16.4202 14.8836 16.3156 15.0278 16.1845 15.1476C16.0535 15.2673 15.8989 15.3601 15.7299 15.4204C15.5609 15.4807 15.381 15.5072 15.2012 15.4983C3.43488 14.789 1.06071 5.13235 0.611707 1.4366C0.590864 1.25511 0.609907 1.0714 0.667585 0.897561C0.725262 0.723719 0.820266 0.563682 0.946346 0.427978C1.07243 0.292275 1.22673 0.18398 1.39909 0.11022C1.57146 0.036459 1.75799 -0.0010963 1.94641 2.43616e-05H4.91719C5.18229 0.000784844 5.4411 0.0783906 5.66032 0.22286C5.87954 0.367329 6.04915 0.572055 6.14733 0.810705L6.81776 2.43803C6.91633 2.67233 6.94147 2.92959 6.89006 3.17766C6.83865 3.42574 6.71295 3.65363 6.52868 3.83288L5.15092 5.16812C5.15092 5.16812 5.94436 10.372 11.2709 11.0157Z" fill="white"/>
</svg>
