<svg width="16" height="16" viewBox="0 0 16 16" fill="none" xmlns="http://www.w3.org/2000/svg">
<g clip-path="url(#clip0_235_9208)">
<path d="M3.61163 15.443C3.22563 15.641 2.78763 15.294 2.86563 14.851L3.69563 10.121L0.17263 6.76501C-0.15637 6.45101 0.01463 5.87701 0.45563 5.81501L5.35363 5.11901L7.53763 0.792012C7.73463 0.402012 8.26763 0.402012 8.46463 0.792012L10.6486 5.11901L15.5466 5.81501C15.9876 5.87701 16.1586 6.45101 15.8286 6.76501L12.3066 10.121L13.1366 14.851C13.2146 15.294 12.7766 15.641 12.3906 15.443L7.99963 13.187L3.61063 15.443H3.61163Z" fill="#F1C430"/>
<path d="M3.61065 14.9435C3.22465 15.1415 2.78665 14.7945 2.86465 14.3515L3.69465 9.6215L0.171653 6.2655C-0.157347 5.9515 0.0136534 5.3775 0.454653 5.3155L5.35265 4.6195L7.53665 0.2925C7.73365 -0.0975 8.26665 -0.0975 8.46365 0.2925L10.6477 4.6195L15.5457 5.3155C15.9867 5.3775 16.1577 5.9515 15.8277 6.2655L12.3057 9.6215L13.1357 14.3515C13.2137 14.7945 12.7757 15.1415 12.3897 14.9435L7.99865 12.6875L3.60965 14.9435H3.61065Z" fill="#F1C430"/>
</g>
<defs>
<clipPath id="clip0_235_9208">
<rect width="16" height="16" fill="white"/>
</clipPath>
</defs>
</svg>
