<svg width="36" height="36" viewBox="0 0 36 36" fill="none" xmlns="http://www.w3.org/2000/svg">
<g clip-path="url(#clip0_2_19699)">
<path d="M34.1999 16.2H19.8001V1.79989C19.8001 0.806506 18.9936 0 17.9999 0C17.0065 0 16.2 0.806506 16.2 1.79989V16.2H1.79989C0.806506 16.2 0 17.0065 0 17.9999C0 18.9936 0.806506 19.8001 1.79989 19.8001H16.2V34.1999C16.2 35.1936 17.0065 36.0001 17.9999 36.0001C18.9936 36.0001 19.8001 35.1936 19.8001 34.1999V19.8001H34.1999C35.1936 19.8001 36.0001 18.9936 36.0001 17.9999C36.0001 17.0065 35.1936 16.2 34.1999 16.2Z" fill="#9EC0E4"/>
</g>
<defs>
<clipPath id="clip0_2_19699">
<rect width="36" height="36" fill="white"/>
</clipPath>
</defs>
</svg>
