<svg width="168" height="100" viewBox="0 0 168 100" fill="none" xmlns="http://www.w3.org/2000/svg">
<rect x="0.5" y="0.5" width="167" height="99" rx="7.5" fill="white" stroke="#5998DB" stroke-dasharray="8 5"/>
<g clip-path="url(#clip0_404_138)">
<path d="M102.2 48.2H87.8001V33.7999C87.8001 32.8065 86.9936 32 85.9999 32C85.0065 32 84.2 32.8065 84.2 33.7999V48.2H69.7999C68.8065 48.2 68 49.0065 68 49.9999C68 50.9936 68.8065 51.8001 69.7999 51.8001H84.2V66.1999C84.2 67.1936 85.0065 68.0001 85.9999 68.0001C86.9936 68.0001 87.8001 67.1936 87.8001 66.1999V51.8001H102.2C103.194 51.8001 104 50.9936 104 49.9999C104 49.0065 103.194 48.2 102.2 48.2V48.2Z" fill="#9EC0E4"/>
</g>
<defs>
<clipPath id="clip0_404_138">
<rect width="36" height="36" fill="white" transform="translate(68 32)"/>
</clipPath>
</defs>
</svg>
