<svg width="32" height="35" viewBox="0 0 32 35" fill="none" xmlns="http://www.w3.org/2000/svg">
<g clip-path="url(#clip0_165_22095)">
<path d="M7.64459 27.4731C7.64459 26.9972 7.30699 26.4149 6.89234 26.1748C6.68389 26.0547 6.49356 26.0433 6.35761 26.1226L5.93164 26.3945L7.03962 28.2026L7.42481 27.9579C7.56076 27.8786 7.64459 27.711 7.64459 27.4731Z" fill="#25242F"/>
<path d="M7.23692 27.7337C7.23692 28.2095 6.89931 28.4021 6.48467 28.1619C6.07003 27.9217 5.73242 27.3417 5.73242 26.8636C5.73242 26.3855 6.07003 26.1952 6.48467 26.4354C6.90158 26.6755 7.23692 27.2556 7.23692 27.7337Z" fill="#393842"/>
<path d="M7.02384 27.6113C7.02384 27.9534 6.7814 28.0916 6.48458 27.9194C6.18549 27.7472 5.94531 27.3303 5.94531 26.9882C5.94531 26.6461 6.18776 26.5079 6.48458 26.6801C6.78367 26.8523 7.02384 27.2692 7.02384 27.6113Z" fill="#7C0328"/>
<path d="M13.4932 24.1784C13.4932 23.7026 13.1556 23.1203 12.741 22.8801C12.5325 22.76 12.3422 22.7487 12.2062 22.828L11.7803 23.0999L12.8883 24.908L13.2734 24.661C13.4094 24.584 13.4932 24.4163 13.4932 24.1784Z" fill="#7C0D20"/>
<path d="M13.0875 24.4368C13.0875 24.9126 12.7499 25.1052 12.3353 24.865C11.9206 24.6249 11.583 24.0448 11.583 23.5667C11.583 23.0887 11.9206 22.8983 12.3353 23.1385C12.7499 23.3787 13.0875 23.961 13.0875 24.4368Z" fill="#393842"/>
<path d="M12.8744 24.3144C12.8744 24.6565 12.632 24.7948 12.3352 24.6226C12.0361 24.4504 11.7959 24.0335 11.7959 23.6913C11.7959 23.3492 12.0383 23.211 12.3352 23.3832C12.632 23.5554 12.8744 23.9723 12.8744 24.3144Z" fill="#C62A4B"/>
<path d="M20.0792 33.4115C20.0792 32.9357 19.7416 32.3534 19.3269 32.1132C19.1185 31.9931 18.9281 31.9818 18.7922 32.0611L18.3662 32.333L19.4742 34.1411L19.8594 33.8964C19.9931 33.8194 20.0792 33.6517 20.0792 33.4115Z" fill="#25242F"/>
<path d="M19.6715 33.6722C19.6715 34.148 19.3339 34.3406 18.9192 34.1004C18.5046 33.8602 18.167 33.2802 18.167 32.8021C18.167 32.324 18.5046 32.1337 18.9192 32.3739C19.3339 32.614 19.6715 33.1963 19.6715 33.6722Z" fill="#393842"/>
<path d="M19.4584 33.5498C19.4584 33.8919 19.216 34.0301 18.9191 33.8579C18.6201 33.6857 18.3799 33.2688 18.3799 32.9267C18.3799 32.5845 18.6223 32.4463 18.9191 32.6185C19.2182 32.7907 19.4584 33.2076 19.4584 33.5498Z" fill="#7C0328"/>
<path d="M25.2842 30.5114C25.2842 30.0356 24.9466 29.4533 24.532 29.2131C24.3235 29.093 24.1332 29.0817 23.9973 29.161L23.5713 29.4329L24.6793 31.241L25.0645 30.9963C25.2004 30.917 25.2842 30.7516 25.2842 30.5114Z" fill="#25242F"/>
<path d="M24.8785 30.772C24.8785 31.2478 24.5409 31.4404 24.1263 31.2003C23.7116 30.9601 23.374 30.38 23.374 29.9019C23.374 29.4239 23.7116 29.2335 24.1263 29.4737C24.5409 29.7139 24.8785 30.2939 24.8785 30.772Z" fill="#393842"/>
<path d="M24.6655 30.6496C24.6655 30.9918 24.423 31.13 24.1262 30.9578C23.8271 30.7856 23.5869 30.3687 23.5869 30.0265C23.5869 29.6844 23.8294 29.5462 24.1262 29.7184C24.423 29.8906 24.6655 30.3075 24.6655 30.6496Z" fill="#7C0328"/>
<path d="M25.2204 29.4351C25.1886 29.5235 25.132 29.6028 25.064 29.6685C24.9938 29.7342 24.9031 29.7773 24.8669 29.7977L24.5723 29.9517L23.9787 30.2599L22.7937 30.8716L21.6109 31.4879L21.0173 31.7961C20.793 31.9116 20.5505 31.9864 20.3013 32.0204C20.052 32.0544 19.7983 32.0453 19.5513 31.9955C19.3066 31.9502 19.0641 31.8346 18.8716 31.7485L17.6526 31.2047L12.7811 29.025L7.90957 26.8453L6.69057 26.2992L6.37789 26.1588C6.23741 26.0908 6.11279 25.9866 6.02215 25.8597C5.83409 25.6104 5.78424 25.2592 5.88847 24.9692L6.74948 22.4429L7.0531 22.8983L7.14826 23.0388L6.42094 25.1505C6.37562 25.2796 6.39601 25.4201 6.47305 25.5289C6.51157 25.5833 6.56368 25.6263 6.62259 25.6558L6.74948 25.7124L6.91715 25.7894L8.13389 26.3378L13.0008 28.5356L17.8655 30.7312L19.0823 31.2795C19.2953 31.3769 19.4584 31.454 19.6533 31.4925C19.8436 31.531 20.0384 31.5401 20.231 31.5151C20.4236 31.4902 20.6094 31.4313 20.7839 31.3429L21.3753 31.037L22.5603 30.423L23.743 29.8044L24.3344 29.4963L24.629 29.3422C24.6924 29.3105 24.7015 29.3037 24.7128 29.2924C24.7241 29.281 24.7332 29.2675 24.7377 29.2516C24.7513 29.2199 24.7445 29.1791 24.7309 29.1519C24.7241 29.1383 24.7105 29.127 24.6969 29.1179C24.6924 29.1156 24.6947 29.1156 24.6834 29.1088L24.6448 29.0885L24.5701 29.0499L23.9764 28.7463L22.7891 28.1368L18.0423 25.6965L13.2999 23.2585L12.1126 22.649C12.0741 22.6286 11.9858 22.5833 11.9269 22.5357C11.8634 22.4882 11.8068 22.4338 11.7569 22.3703C11.6572 22.248 11.587 22.1007 11.5575 21.9444C11.5258 21.7903 11.5326 21.6249 11.5779 21.4731C11.5983 21.4006 11.6368 21.3145 11.6663 21.2646L11.7433 21.1174L13.0031 18.7632L13.5356 19.0509L12.2645 21.3983L12.1852 21.5456C12.1602 21.5909 12.1534 21.609 12.1421 21.643C12.124 21.7042 12.1217 21.7676 12.133 21.8311C12.1466 21.8945 12.1738 21.9534 12.2123 22.0033C12.2327 22.0282 12.2554 22.0509 12.2803 22.069C12.3098 22.0917 12.3211 22.0984 12.38 22.1279L13.565 22.7442L18.3006 25.2071L23.0384 27.6701L24.2234 28.2864L24.8148 28.5945L24.8895 28.633C24.9122 28.6444 24.9371 28.6557 24.9847 28.6874C25.0617 28.7395 25.132 28.8098 25.1773 28.8913C25.2725 29.0567 25.2906 29.2584 25.2204 29.4351Z" fill="url(#paint0_linear_165_22095)"/>
<path d="M25.0396 28.8142C25.0079 28.7576 24.9557 28.7032 24.8968 28.6624C24.8629 28.6398 24.8425 28.6307 24.8266 28.6216L12.308 22.112C12.2491 22.0803 12.2264 22.0689 12.1879 22.0417C12.1471 22.01 12.1154 21.976 12.0882 21.9443C12.0339 21.8741 11.9953 21.7902 11.9772 21.7019C11.9613 21.6158 11.9659 21.5251 11.9908 21.4413L11.9953 21.4254C12.0089 21.3869 12.018 21.3643 12.0474 21.3121L13.3231 18.958L13.0716 18.822L11.805 21.1853C11.7801 21.2283 11.7484 21.3031 11.7302 21.362C11.694 21.4911 11.6872 21.6271 11.7121 21.7585C11.7393 21.8877 11.7959 22.0123 11.8798 22.1142C11.9251 22.1709 11.9749 22.2162 12.0271 22.257C12.0497 22.2751 12.095 22.3068 12.1857 22.3521L24.7586 28.8142C24.7654 28.8188 24.7745 28.821 24.779 28.8278L24.7903 28.8346C24.8153 28.8527 24.8493 28.8799 24.8696 28.9207C24.9127 28.9955 24.9172 29.0884 24.8878 29.1586C24.8742 29.1926 24.8538 29.2243 24.8221 29.2561C24.7926 29.2832 24.77 29.2946 24.702 29.3308L22.6333 30.4139L21.4483 31.0279L20.8569 31.3338C20.6688 31.429 20.4649 31.4924 20.2542 31.5196C20.1726 31.5309 20.0911 31.5355 20.0095 31.5355C19.8803 31.5355 19.7489 31.5219 19.6243 31.4969C19.4181 31.4562 19.2527 31.3791 19.0397 31.2817L7.15557 25.9163L6.85648 25.7803C6.82023 25.7622 6.78624 25.7418 6.75452 25.7169L6.65483 25.6716C6.57099 25.6716 6.48716 25.6738 6.40332 25.6761C6.41692 25.701 6.43278 25.7259 6.4509 25.7486C6.52567 25.8528 6.62764 25.9389 6.74319 25.9956L7.05587 26.136L18.9514 31.4562C19.1326 31.54 19.3592 31.642 19.5813 31.685C19.7195 31.7122 19.8622 31.7281 20.0027 31.7281C20.0956 31.7281 20.1885 31.7213 20.2791 31.7099C20.5125 31.6782 20.7368 31.608 20.943 31.5015L22.7194 30.5748L24.8085 29.4962C24.8447 29.4781 24.9104 29.4441 24.9557 29.3988C25.0079 29.3512 25.0486 29.29 25.0736 29.2221C25.1257 29.0907 25.1121 28.9388 25.0396 28.8142Z" fill="url(#paint1_linear_165_22095)"/>
<path d="M16.051 19.7397L9.02539 23.8086L9.18665 24.087L16.2123 20.0181L16.051 19.7397Z" fill="#D60B4A"/>
<path d="M18.4983 20.8224L11.4727 24.8914L11.6339 25.1698L18.6596 21.1009L18.4983 20.8224Z" fill="#D60B4A"/>
<path d="M20.7307 21.7746L13.7051 25.8428L13.8663 26.1212L20.8919 22.0531L20.7307 21.7746Z" fill="#D60B4A"/>
<path d="M22.8929 22.7986L15.8672 26.8667L16.0284 27.1451L23.0541 23.077L22.8929 22.7986Z" fill="#D60B4A"/>
<path d="M9.79649 20.6671L9.67285 20.9617L22.4761 26.3351L22.5997 26.0405L9.79649 20.6671Z" fill="#D60B4A"/>
<path d="M11.3678 19.6996L11.2441 19.9941L24.0474 25.3676L24.171 25.073L11.3678 19.6996Z" fill="#D60B4A"/>
<path d="M8.19493 21.6168L8.07129 21.9114L20.8745 27.2848L20.9982 26.9902L8.19493 21.6168Z" fill="#D60B4A"/>
<path d="M18.682 28.2638C18.4033 28.2638 18.1291 28.2139 17.9071 28.1142L7.18754 23.2541C6.90884 23.1272 6.75024 22.9369 6.73891 22.7171C6.72758 22.495 6.87032 22.2866 7.13996 22.1302L12.5779 18.9876C13.065 18.7066 13.8467 18.6658 14.3566 18.8969L25.0761 23.7571C25.3548 23.884 25.5134 24.0743 25.5247 24.2941C25.5361 24.5161 25.3933 24.7246 25.1237 24.8809L19.6857 28.0236C19.4093 28.1799 19.0422 28.2638 18.682 28.2638ZM13.5839 19.0691C13.278 19.0691 12.9631 19.1371 12.7388 19.2663L7.30083 22.4089C7.14675 22.4996 7.05612 22.6083 7.06065 22.7012C7.06518 22.7941 7.16035 22.8893 7.32122 22.9618L18.0408 27.822C18.4509 28.0077 19.1306 27.9738 19.5271 27.7449L24.9651 24.6022C25.1214 24.5116 25.2098 24.4028 25.2052 24.3099C25.2007 24.2171 25.1055 24.1219 24.9447 24.0494L14.2229 19.1892C14.0461 19.1077 13.8173 19.0691 13.5839 19.0691Z" fill="url(#paint2_linear_165_22095)"/>
<path d="M18.6821 28.0781C18.4102 28.0781 18.1519 28.0282 17.9525 27.9376L7.233 23.0775C6.99509 22.9687 6.85688 22.8124 6.85008 22.6356C6.84102 22.4566 6.96337 22.2844 7.19448 22.1507L12.6324 19.0081C12.8817 18.8653 13.2261 18.7815 13.5795 18.7815C13.8514 18.7815 14.1097 18.8313 14.3091 18.922L25.0287 23.7821C25.2666 23.8909 25.4048 24.0472 25.4116 24.224C25.4206 24.403 25.2983 24.5752 25.0649 24.7088L19.627 27.8515C19.38 27.9965 19.0356 28.0781 18.6821 28.0781ZM13.5841 18.8835C13.2442 18.8835 12.9156 18.9605 12.6845 19.0942L7.2466 22.2368C7.05174 22.3501 6.94298 22.4929 6.94977 22.6311C6.95657 22.7693 7.07213 22.8962 7.27605 22.9868L17.9956 27.847C18.1791 27.9308 18.4238 27.9761 18.6821 27.9761C19.022 27.9761 19.3505 27.8991 19.5839 27.7654L19.9419 27.5592L25.0219 24.6227C25.2167 24.5094 25.3255 24.3667 25.3187 24.2285C25.3119 24.0903 25.1963 23.9634 24.9924 23.8728L14.2751 19.0126C14.0848 18.931 13.8401 18.8835 13.5841 18.8835Z" fill="url(#paint3_linear_165_22095)"/>
<path d="M7.33907 1.26435L6.74316 0.240202L7.11023 0.0294823C7.18726 -0.0158338 7.29376 -0.0113022 7.41158 0.056672C7.64269 0.190354 7.83302 0.514365 7.83302 0.78173C7.83302 0.906349 7.79224 0.996981 7.72426 1.0423C7.71293 1.04909 7.70387 1.05363 7.69481 1.05816L7.33907 1.26435Z" fill="#D10527"/>
<path d="M6.62305 0.507617C6.62305 0.774982 6.81111 1.09899 7.04449 1.23267C7.2756 1.36636 7.46593 1.25986 7.46593 0.992499C7.46593 0.725134 7.27787 0.401124 7.04449 0.267441C6.81111 0.133759 6.62305 0.242517 6.62305 0.507617Z" fill="#C60C35"/>
<path d="M6.63672 0.534831C6.63672 0.788602 6.81572 1.09449 7.0355 1.22364C7.25528 1.35052 7.43428 1.24856 7.43428 0.997056C7.43428 0.743285 7.25528 0.437402 7.0355 0.308251C6.81345 0.181366 6.63672 0.283327 6.63672 0.534831Z" fill="#C60C35"/>
<path d="M0.224609 4.16687L0.24047 4.19406L0.31071 4.31642C0.333368 4.4433 0.410406 4.57698 0.507835 4.65855C0.507835 4.65855 0.507835 4.65855 0.510101 4.65855L0.544088 4.71973L0.589404 4.79677L0.596202 4.8081L0.623392 4.79224L7.06055 1.16242L7.14212 1.1171C7.19197 1.09218 7.22142 1.03553 7.22369 0.956227V0.938101C7.22142 0.768165 7.10134 0.566509 6.95632 0.48494C6.89062 0.448687 6.8317 0.441889 6.78639 0.462282C6.77959 0.466813 6.77279 0.469079 6.766 0.473611L0.256331 4.15101L0.224609 4.16687Z" fill="#FFE254"/>
<path d="M0.543945 4.72207L0.593793 4.81043L7.14198 1.11717C7.18956 1.09225 7.22128 1.0356 7.22355 0.956299L0.543945 4.72207Z" fill="#FFCC54"/>
<path d="M0.161133 4.36407C0.163399 4.51588 0.267626 4.69714 0.396777 4.77871C0.401308 4.78098 0.408106 4.78551 0.412638 4.78777C0.455688 4.81043 0.494207 4.82176 0.528194 4.8195C0.550852 4.81723 0.571244 4.81043 0.589371 4.7991C0.630155 4.77191 0.655079 4.71527 0.655079 4.6405C0.655079 4.61784 0.652813 4.59518 0.648282 4.57252C0.621092 4.42978 0.523662 4.2825 0.40584 4.21679C0.342397 4.18054 0.283486 4.17601 0.240436 4.19866C0.19512 4.22132 0.165664 4.2689 0.161133 4.34141V4.34368C0.161133 4.34821 0.161133 4.355 0.161133 4.36407Z" fill="#E2103D"/>
<path d="M6.96795 0.500732C6.96795 0.500732 7.00421 0.521125 7.02686 0.546049C6.99741 0.561909 0.505864 4.22798 0.505864 4.22798C0.505864 4.22798 0.490003 4.20759 0.449219 4.18267C0.474143 4.17134 6.96795 0.500732 6.96795 0.500732Z" fill="#FFF887"/>
<path d="M0.716025 5.04828L0.120117 4.02414L0.487178 3.81342C0.564216 3.7681 0.670709 3.77263 0.788531 3.84061C1.01964 3.97429 1.20997 4.2983 1.20997 4.56567C1.20997 4.69029 1.16919 4.78092 1.10121 4.82623C1.09215 4.83077 1.08535 4.83756 1.07629 4.84209L0.716025 5.04828Z" fill="#D10527"/>
<path d="M0.72076 5.04591C0.883887 4.95054 0.881987 4.64378 0.716516 4.36074C0.551046 4.0777 0.284665 3.92556 0.121539 4.02093C-0.0415879 4.11629 -0.0396878 4.42305 0.125783 4.70609C0.291253 4.98913 0.557633 5.14127 0.72076 5.04591Z" fill="#C60C35"/>
<path d="M0.0117188 4.31877C0.0117188 4.57254 0.190718 4.87842 0.410501 5.00757C0.630284 5.13446 0.809283 5.0325 0.809283 4.78099C0.809283 4.52722 0.630284 4.22134 0.410501 4.09219C0.190718 3.9653 0.0117188 4.06726 0.0117188 4.31877Z" fill="#C60C35"/>
<path d="M6.7226 22.7328L2.64641 6.76342C2.47874 6.12446 2.05503 5.5648 1.48178 5.23173L0.919861 4.90772C0.847355 4.78084 0.926659 4.61996 1.07167 4.59731L1.10339 4.59277L1.66531 4.91678C2.32013 5.29744 2.80728 5.93866 2.99987 6.67278L7.07606 22.6445L6.7226 22.7328Z" fill="url(#paint4_linear_165_22095)"/>
<path d="M2.80246 6.65455C2.62572 5.9816 2.18162 5.39702 1.57892 5.04582L1.05325 4.74221C1.04872 4.71728 1.05552 4.69915 1.06005 4.69009C1.06458 4.67876 1.08044 4.65384 1.11443 4.64478L1.63783 4.94613C2.26546 5.31092 2.72995 5.92269 2.91348 6.62509L6.96021 22.4744L6.84919 22.5039L2.80246 6.65455Z" fill="url(#paint5_linear_165_22095)"/>
<path d="M13.1989 18.7565L9.12276 2.78709C8.95282 2.13907 8.54044 1.59301 7.95813 1.2554L7.59787 1.04468L7.59334 1.02656C7.56841 0.892874 7.64998 0.763723 7.7814 0.729736L8.14166 0.940456C8.80781 1.32791 9.28136 1.95101 9.47622 2.69646L13.5524 18.6681L13.1989 18.7565Z" fill="url(#paint6_linear_165_22095)"/>
<path d="M9.28137 2.67599C9.10238 1.99398 8.66961 1.423 8.05784 1.06727L7.75195 0.88827C7.75422 0.847485 7.77688 0.811232 7.8086 0.788574L8.11675 0.967573C8.75344 1.3369 9.2066 1.93281 9.3924 2.64653L13.4369 18.4981L13.3258 18.5276L9.28137 2.67599Z" fill="url(#paint7_linear_165_22095)"/>
<path d="M10.967 17.5351C10.9489 17.4467 10.89 17.4059 10.8378 17.4399C10.7857 17.4762 10.6634 17.6416 10.6815 17.7299L11.1165 19.7193C11.1347 19.8077 11.223 19.8643 11.3091 19.8439C11.3952 19.8258 11.4496 19.7374 11.4315 19.6491L10.967 17.5351Z" fill="#D60B4A"/>
<path d="M9.33069 18.4822C9.3103 18.3938 9.24912 18.3462 9.19474 18.3757C9.14036 18.4051 9.01801 18.5547 9.0384 18.6408L9.52555 20.6573C9.54594 20.7457 9.63431 20.8001 9.72041 20.7797C9.80651 20.7593 9.85862 20.6709 9.83823 20.5826L9.33069 18.4822Z" fill="#D60B4A"/>
<path d="M7.6883 19.4067C7.66564 19.3206 7.6022 19.273 7.55009 19.3024C7.49797 19.3319 7.37562 19.4814 7.39828 19.5675L7.93527 21.5954C7.95793 21.6815 8.0463 21.7359 8.1324 21.7132C8.2185 21.6906 8.26835 21.6 8.24569 21.5139L7.6883 19.4067Z" fill="#D60B4A"/>
<path d="M23.0737 21.1217C23.0125 21.0945 22.9627 21.1467 22.9649 21.235L22.9853 23.1088C22.9853 23.1995 23.0601 23.272 23.1484 23.2697C23.2368 23.2697 23.307 23.1949 23.307 23.1043L23.2889 21.3959C23.2867 21.3075 23.1349 21.1489 23.0737 21.1217Z" fill="#D60B4A"/>
<path d="M20.7302 20.0069C20.669 19.9842 20.6237 20.0386 20.6282 20.1269L20.7597 22.0597C20.7665 22.1503 20.8435 22.2183 20.9296 22.2115C21.018 22.2047 21.0837 22.1276 21.0791 22.037L20.9591 20.2652C20.9545 20.1791 20.7936 20.0318 20.7302 20.0069Z" fill="#D60B4A"/>
<path d="M18.639 19.1369C18.6277 19.0485 18.5687 18.9579 18.5053 18.9375C18.4419 18.9171 18.2901 18.9216 18.3014 19.0122L18.5393 21.0152C18.5506 21.1036 18.6299 21.1693 18.7183 21.1579C18.8067 21.1466 18.8678 21.065 18.8588 20.9767L18.639 19.1369Z" fill="#D60B4A"/>
<path d="M16.3208 17.9949C16.3072 17.9065 16.2438 17.8181 16.1803 17.7977C16.1169 17.7773 15.9628 17.8 15.9787 17.8884L16.3185 19.9639C16.3321 20.0522 16.416 20.1134 16.5043 20.0998C16.5904 20.0862 16.6516 20.0024 16.6358 19.9117L16.3208 17.9949Z" fill="#D60B4A"/>
<path d="M14.0123 16.8915C13.9942 16.8031 13.9285 16.7238 13.865 16.7125C13.8016 16.7034 13.6543 16.7419 13.6724 16.828L14.1007 18.9126C14.1188 19.0009 14.2049 19.0576 14.291 19.0395C14.3771 19.0213 14.4337 18.9352 14.4156 18.8469L14.0123 16.8915Z" fill="#D60B4A"/>
<path d="M6.42664 20.2743C6.42211 20.1746 6.51048 20.0636 6.66682 19.9752L12.1931 16.7827C12.4084 16.6581 12.7097 16.5946 13.0088 16.5946C13.2649 16.5946 13.5209 16.6422 13.718 16.7351L25.0176 22.1957C25.1264 22.2478 25.2057 22.309 25.2533 22.3724L25.2963 22.5378L25.6203 22.4925L25.6022 22.3724C25.5523 22.1866 25.3983 22.0235 25.1558 21.9057L13.8562 16.4451C13.3283 16.1913 12.5285 16.2162 12.0323 16.5017L6.50595 19.6965C6.23858 19.8506 6.09584 20.059 6.1049 20.2856C6.1049 20.2947 6.10716 20.3037 6.10716 20.3128C6.21366 20.3015 6.32015 20.2901 6.42438 20.2766C6.42664 20.2766 6.42664 20.2766 6.42664 20.2743Z" fill="#D60B4A"/>
<path d="M10.4226 15.0495C10.4045 14.9611 10.3297 14.9271 10.2594 14.9724C10.2594 14.9724 10.2594 14.9724 10.1937 15.0132C10.162 15.0313 10.162 15.0313 10.162 15.0313C10.1258 15.0495 10.1122 15.1356 10.1326 15.2239L10.588 17.3107C10.6061 17.3991 10.6831 17.4286 10.7579 17.3787C10.7579 17.3787 10.8055 17.347 10.8961 17.2813C10.9007 17.279 10.9007 17.279 10.9007 17.279C10.9052 17.2768 10.8916 17.2043 10.8735 17.1159L10.4226 15.0495Z" fill="#D60B4A"/>
<path d="M8.73729 16.0169C8.7169 15.9285 8.65572 15.8832 8.60361 15.9149C8.5515 15.9466 8.42914 16.103 8.44954 16.1891L8.94121 18.226C8.96161 18.3144 9.02278 18.362 9.07716 18.3325C9.13154 18.3031 9.25389 18.1558 9.2335 18.0674L8.73729 16.0169Z" fill="#D60B4A"/>
<path d="M7.59958 19.1663C7.60864 19.1618 7.60864 19.1618 7.60864 19.1618C7.6177 19.1618 7.60637 19.0893 7.58145 19.0032L7.04219 16.964C7.01953 16.8779 6.95836 16.8348 6.90624 16.8688C6.85413 16.9028 6.73631 17.0659 6.76123 17.152L7.29143 19.1573C7.31409 19.2434 7.39792 19.2796 7.47722 19.2366C7.47496 19.2366 7.51121 19.2162 7.59958 19.1663Z" fill="#D60B4A"/>
<path d="M23.048 19.1754C22.9891 19.1437 22.9392 19.189 22.9415 19.2796L22.9596 20.8C22.9596 20.8906 23.0027 20.9858 23.0525 21.0152C23.0525 21.0152 23.0525 21.0152 23.0978 21.0401C23.1567 21.0719 23.1567 21.0719 23.1567 21.0719C23.227 21.1058 23.2813 21.0583 23.2813 20.9676L23.2655 19.4609C23.2632 19.3725 23.1069 19.2071 23.048 19.1754Z" fill="#D60B4A"/>
<path d="M20.8167 18.1446C20.8099 18.054 20.7556 17.9701 20.6966 17.9565C20.6355 17.9429 20.4837 17.9724 20.4905 18.063L20.6015 19.6989C20.6083 19.7895 20.6627 19.8802 20.7238 19.9028C20.785 19.9255 20.9368 19.921 20.9323 19.8326L20.8167 18.1446Z" fill="#D60B4A"/>
<path d="M18.3741 16.8938C18.3627 16.8055 18.3061 16.7239 18.2449 16.7126C18.1837 16.7035 18.0342 16.7488 18.0455 16.8372L18.2517 18.5728C18.2631 18.6611 18.3197 18.7586 18.3809 18.7858C18.4421 18.813 18.6007 18.7971 18.5893 18.7087L18.3741 16.8938Z" fill="#D60B4A"/>
<path d="M16.1623 17.6913C16.2257 17.7117 16.2643 17.6551 16.2507 17.5667L15.9312 15.6204C15.9176 15.532 15.8541 15.4414 15.7907 15.421C15.7272 15.4006 15.5732 15.4255 15.589 15.5139L15.9085 17.4602C15.9221 17.5486 16.0988 17.6709 16.1623 17.6913Z" fill="#D60B4A"/>
<path d="M13.8447 16.6128C13.9081 16.6219 13.9444 16.5584 13.9263 16.4701L13.4958 14.3674C13.4776 14.279 13.4119 14.2043 13.3508 14.1997C13.2896 14.1952 13.1446 14.2473 13.1627 14.3357L13.5864 16.4066C13.6023 16.495 13.7813 16.6015 13.8447 16.6128Z" fill="#D60B4A"/>
<path d="M5.79158 17.85C5.78931 17.7435 5.87315 17.6348 6.03175 17.5441L11.6464 14.2995C11.8549 14.1794 12.1426 14.1205 12.4349 14.1205C12.7136 14.1205 12.9946 14.1749 13.2098 14.2859L25.0872 20.3469C25.2141 20.4126 25.3047 20.4874 25.3523 20.5667C25.4656 20.5622 25.5811 20.5599 25.6944 20.5576C25.6446 20.3628 25.4837 20.1883 25.2322 20.0592L13.3548 13.9981C12.8088 13.7217 11.9863 13.7308 11.4855 14.0208L5.87088 17.2654C5.60578 17.4172 5.4653 17.628 5.46983 17.8591C5.46983 17.8908 5.47436 17.9225 5.48116 17.9542C5.58539 17.9338 5.69188 17.9112 5.79611 17.8885C5.79384 17.8749 5.79158 17.8613 5.79158 17.85Z" fill="#D60B4A"/>
<path d="M9.8842 12.5864C9.86607 12.498 9.8049 12.4505 9.75279 12.4799C9.69841 12.5094 9.57152 12.6521 9.58965 12.7405L10.0428 14.8114C10.0609 14.8998 10.0859 14.9678 10.0972 14.961C10.0972 14.961 10.0972 14.961 10.1062 14.9564C10.1946 14.9066 10.2309 14.8839 10.2309 14.8839C10.3056 14.8341 10.351 14.7231 10.3328 14.6347L9.8842 12.5864Z" fill="#D60B4A"/>
<path d="M8.16181 13.6331C8.14141 13.5448 8.07797 13.4926 8.02359 13.5153C7.96921 13.538 7.84233 13.6807 7.86499 13.7691L8.34987 15.7766C8.37026 15.865 8.43144 15.9103 8.48355 15.8785C8.53566 15.8468 8.65802 15.6928 8.63763 15.6044L8.16181 13.6331Z" fill="#D60B4A"/>
<path d="M6.8798 16.7692C6.93192 16.7352 6.95457 16.6355 6.93192 16.5494L6.40398 14.5555C6.38133 14.4694 6.32015 14.4264 6.26804 14.4626C6.21592 14.4989 6.10037 14.6643 6.12303 14.7526L6.64869 16.7375C6.67362 16.8258 6.82769 16.8054 6.8798 16.7692Z" fill="#D60B4A"/>
<path d="M23.0348 17.1928C22.9963 17.1656 22.9963 17.1656 22.9963 17.1656C22.951 17.1384 22.917 17.1883 22.917 17.2767L22.9351 18.8423C22.9351 18.933 22.985 19.0327 23.0461 19.0644C23.105 19.0961 23.2591 19.112 23.2591 19.0236L23.241 17.4919C23.241 17.4013 23.1775 17.288 23.1005 17.2404C23.1028 17.2404 23.1028 17.2404 23.0348 17.1928Z" fill="#D60B4A"/>
<path d="M20.6738 16.0487C20.667 15.9581 20.6534 15.8901 20.6398 15.8969C20.6398 15.8969 20.6398 15.8969 20.6239 15.8924C20.5265 15.8607 20.4857 15.8448 20.4857 15.8448C20.4019 15.8131 20.3384 15.8584 20.3452 15.949L20.4608 17.6393C20.4676 17.73 20.5197 17.8161 20.5809 17.8319C20.6398 17.8478 20.7939 17.8115 20.7893 17.7232L20.6738 16.0487Z" fill="#D60B4A"/>
<path d="M18.1152 14.7254C18.1039 14.637 18.045 14.5486 17.9838 14.5282C17.9226 14.5101 17.7686 14.5328 17.7799 14.6234L17.9929 16.4111C18.0042 16.4995 18.0608 16.5811 18.122 16.5924C18.1832 16.6037 18.3327 16.5561 18.3214 16.4678L18.1152 14.7254Z" fill="#D60B4A"/>
<path d="M15.7724 15.3121C15.8359 15.3325 15.8744 15.2759 15.8585 15.1875L15.5527 13.3205C15.5391 13.2321 15.4756 13.1483 15.4122 13.1369C15.3487 13.1256 15.1992 13.1528 15.215 13.2434L15.5187 15.0878C15.5323 15.1739 15.7113 15.294 15.7724 15.3121Z" fill="#D60B4A"/>
<path d="M13.33 14.1023C13.3912 14.1068 13.4275 14.0388 13.4093 13.9505L13.0015 11.9588C12.9834 11.8705 12.9154 11.7866 12.8519 11.7708C12.7885 11.7549 12.6367 11.7753 12.6548 11.8637L13.0763 13.9165C13.0921 14.0049 13.2666 14.0978 13.33 14.1023Z" fill="#D60B4A"/>
<path d="M5.39528 15.1107L11.1006 11.8162C11.3 11.7006 11.5787 11.644 11.8642 11.644C12.1633 11.644 12.4691 11.7074 12.7048 11.832L25.1622 18.4935C25.3525 18.5955 25.4681 18.7224 25.4862 18.8447C25.5904 18.822 25.6947 18.7903 25.7944 18.7495C25.7445 18.5411 25.5768 18.3485 25.314 18.2103L12.8566 11.5488C12.2924 11.2475 11.4518 11.2452 10.942 11.5398L5.23667 14.832C4.97837 14.9815 4.83789 15.1877 4.83789 15.4165C4.94438 15.4165 5.05088 15.4165 5.15737 15.4188C5.15737 15.3101 5.2412 15.199 5.39528 15.1107Z" fill="#D60B4A"/>
<path d="M23.0037 15.251C22.9448 15.217 22.8972 15.2624 22.8995 15.353L22.9154 16.8394C22.9154 16.93 22.9448 17.0184 22.9788 17.0388C22.9788 17.0388 22.9788 17.0388 23.0083 17.0569C23.0876 17.1067 23.1079 17.1203 23.1079 17.1203C23.1805 17.1747 23.2394 17.143 23.2371 17.0546L23.219 15.5343C23.2212 15.4436 23.0626 15.285 23.0037 15.251Z" fill="#D60B4A"/>
<path d="M20.5357 14.0093C20.5289 13.9186 20.4745 13.8325 20.4156 13.8144C20.3544 13.7963 20.2026 13.8235 20.2071 13.9118L20.3159 15.5115C20.3227 15.6021 20.3952 15.7018 20.479 15.7335C20.479 15.7335 20.5402 15.7585 20.649 15.7947C20.6512 15.7947 20.6512 15.7947 20.6512 15.7947C20.6535 15.797 20.6512 15.7245 20.6444 15.6338L20.5357 14.0093Z" fill="#D60B4A"/>
<path d="M17.8552 12.532C17.8438 12.4437 17.7849 12.3576 17.7237 12.344C17.6626 12.3304 17.5108 12.3598 17.5221 12.4505L17.7283 14.1951C17.7396 14.2835 17.7985 14.3719 17.8597 14.3923C17.9209 14.4104 18.075 14.3877 18.0636 14.2971L17.8552 12.532Z" fill="#D60B4A"/>
<path d="M15.397 13.0351C15.4604 13.0487 15.4989 12.9853 15.4831 12.8969L15.1749 11.0254C15.1613 10.937 15.1432 10.8645 15.1387 10.8622C15.1387 10.8622 15.1387 10.8622 15.1341 10.86C15.0209 10.8079 14.9461 10.7716 14.9461 10.7716C14.8645 10.7331 14.8101 10.7739 14.826 10.8622L15.1455 12.8131C15.1591 12.9037 15.3335 13.0216 15.397 13.0351Z" fill="#D60B4A"/>
<path d="M12.8298 11.6643C12.8932 11.6824 12.9318 11.6235 12.9136 11.5351L12.5058 9.54346C12.4877 9.45509 12.4084 9.34633 12.3313 9.30101C12.3313 9.30101 12.3155 9.29195 12.2362 9.25343C12.1931 9.23304 12.1931 9.23304 12.1931 9.23304C12.1455 9.21265 12.1206 9.26703 12.1387 9.35539L12.5647 11.4331C12.5828 11.5215 12.7641 11.6484 12.8298 11.6643Z" fill="#D60B4A"/>
<path d="M9.72966 12.3802C9.78404 12.3507 9.81123 12.2533 9.79083 12.1672L9.3354 10.0872C9.31728 9.99883 9.2561 9.94898 9.20172 9.97617C9.14734 10.0034 9.02272 10.1506 9.04085 10.239L9.49628 12.3235C9.51667 12.4119 9.67754 12.4096 9.72966 12.3802Z" fill="#D60B4A"/>
<path d="M7.99836 13.418C8.05274 13.3953 8.0822 13.3069 8.05954 13.2186L7.55427 11.1295C7.53387 11.0411 7.45457 11.0094 7.37753 11.0593C7.37753 11.0593 7.35714 11.0729 7.2801 11.125C7.26424 11.1363 7.26424 11.1363 7.26424 11.1363C7.24612 11.1476 7.24838 11.2292 7.26878 11.3153L7.76046 13.3523C7.78538 13.4406 7.94399 13.4406 7.99836 13.418Z" fill="#D60B4A"/>
<path d="M6.24283 14.3651C6.29494 14.3289 6.3176 14.2269 6.29494 14.1408L5.76474 12.1356C5.74208 12.0495 5.67638 11.9928 5.622 12.0132C5.56535 12.0336 5.443 12.1673 5.46566 12.2534L6.01851 14.3379C6.03664 14.4263 6.19071 14.4014 6.24283 14.3651Z" fill="#D60B4A"/>
<path d="M4.52294 12.9965C4.52294 12.8809 4.60678 12.7677 4.76312 12.677L10.5568 9.33044C10.7517 9.21941 11.019 9.16277 11.2977 9.16277C11.6149 9.16277 11.948 9.23527 12.2018 9.37575L25.2392 16.6376C25.4228 16.7396 25.5406 16.862 25.5768 16.9843C25.6879 16.9843 25.8034 16.9843 25.9008 16.9617C25.8601 16.7328 25.6811 16.5153 25.3956 16.3567L12.3558 9.09706C11.7735 8.77305 10.9125 8.75492 10.3959 9.05401L4.59998 12.4006C4.33941 12.5501 4.19893 12.7631 4.2012 12.9988C4.2012 13.0373 4.208 13.0781 4.21479 13.1166C4.32355 13.1053 4.43005 13.0962 4.5388 13.0871C4.52974 13.0577 4.52294 13.026 4.52294 12.9965Z" fill="#D60B4A"/>
<path d="M9.24773 9.67259L8.74925 7.38866C8.74245 7.35241 8.72206 7.32295 8.69713 7.30029C8.6133 7.36374 8.52719 7.42718 8.44336 7.49062L8.95317 9.81987C8.9713 9.90823 9.1299 9.9037 9.18428 9.87878C9.23866 9.85385 9.26812 9.76096 9.24773 9.67259Z" fill="#D60B4A"/>
<path d="M7.23599 11.0411C7.32209 10.9822 7.35834 10.9595 7.35834 10.9595C7.43538 10.9119 7.4807 10.8009 7.45804 10.7148L6.93917 8.56682C6.91877 8.47845 6.83041 8.42407 6.74431 8.44447C6.65821 8.46486 6.60609 8.55322 6.62649 8.64159L7.17028 10.8983C7.19067 10.9867 7.2156 11.0524 7.22466 11.0456C7.22692 11.0479 7.22692 11.0479 7.23599 11.0411Z" fill="#D60B4A"/>
<path d="M5.59513 11.9202C5.65178 11.8998 5.67897 11.8137 5.65404 11.7276L5.12837 9.74504C5.10572 9.65894 5.01735 9.60456 4.93125 9.62722C4.84515 9.64988 4.7953 9.74051 4.81796 9.82661L5.35269 11.8432C5.37761 11.9293 5.53849 11.9406 5.59513 11.9202Z" fill="#D60B4A"/>
<path d="M23.1093 15.1991C23.1683 15.233 23.2158 15.1855 23.2158 15.0971L23.1977 13.5677C23.1977 13.477 23.1229 13.4045 23.0346 13.4068C22.9462 13.4068 22.876 13.4816 22.876 13.5722L22.8918 14.9158C22.8941 15.0042 23.0504 15.1673 23.1093 15.1991Z" fill="#D60B4A"/>
<path d="M20.4068 13.7126C20.468 13.7307 20.5111 13.6718 20.5043 13.5812L20.391 11.9045C20.3842 11.8138 20.3072 11.7459 20.2211 11.7527C20.1327 11.7595 20.067 11.8365 20.0715 11.9271L20.178 13.4837C20.1848 13.5721 20.3479 13.6945 20.4068 13.7126Z" fill="#D60B4A"/>
<path d="M17.7122 12.2444C17.7734 12.258 17.8142 12.1968 17.8051 12.1084L17.5831 10.2414C17.5717 10.1531 17.4924 10.0874 17.4041 10.0987C17.3157 10.11 17.2545 10.1916 17.2636 10.2799L17.4698 12.0246C17.4834 12.1107 17.651 12.2285 17.7122 12.2444Z" fill="#D60B4A"/>
<path d="M15.014 10.6991C15.0797 10.7285 15.1205 10.6809 15.1046 10.5926L14.7738 8.57827C14.7602 8.4899 14.6764 8.42873 14.588 8.44232C14.5019 8.45592 14.4408 8.53975 14.4566 8.63038L14.7512 10.4272C14.767 10.5155 14.9483 10.6696 15.014 10.6991Z" fill="#D60B4A"/>
<path d="M12.1862 9.12433C12.2723 9.16512 12.3063 9.18551 12.3063 9.18551C12.3833 9.23083 12.4309 9.19684 12.4128 9.10847L11.9619 6.91517C11.9438 6.82681 11.8577 6.77016 11.7716 6.78829C11.6855 6.80642 11.6288 6.89252 11.6469 6.98088L12.0457 8.92041C12.0638 9.00878 12.1092 9.09261 12.1477 9.10847C12.1522 9.10847 12.1522 9.10847 12.1862 9.12433Z" fill="#D60B4A"/>
<path d="M18.8379 19.4565C18.4482 19.4565 18.0404 19.3614 17.7164 19.1733L4.09887 11.311C3.76127 11.1161 3.56641 10.8465 3.56641 10.57C3.56641 10.3299 3.70915 10.1169 3.96519 9.96733L9.84722 6.57088C10.3729 6.26727 11.2543 6.30125 11.8525 6.64792L25.47 14.5103C25.8076 14.7051 26.0024 14.9748 26.0024 15.2512C26.0024 15.4914 25.8597 15.7044 25.6036 15.8539L19.7216 19.2503C19.4814 19.3886 19.1665 19.4565 18.8379 19.4565ZM10.7286 6.68871C10.4567 6.68871 10.1984 6.74082 10.0104 6.84958L4.12606 10.246C4.0173 10.3095 3.88589 10.416 3.88589 10.57C3.88589 10.7264 4.0241 10.8986 4.25748 11.0345L17.875 18.8969C18.3689 19.1824 19.1393 19.2164 19.5607 18.9739L25.4428 15.5775C25.5515 15.514 25.683 15.4075 25.683 15.2535C25.683 15.0971 25.5447 14.9249 25.3114 14.789L11.6939 6.92662C11.422 6.77027 11.064 6.68871 10.7286 6.68871Z" fill="url(#paint8_linear_165_22095)"/>
<path d="M22.745 9.93324L13.8154 5.36084L14.5541 19.6218L24.3922 24.6587L22.745 9.93324Z" fill="#BAA190"/>
<path d="M14.5534 19.6218L13.5745 20.467L13.5723 6.1652L13.8147 5.36084L14.5534 19.6218Z" fill="#CCBBAF"/>
<path d="M11.6738 21.396L13.5748 20.467L13.5726 6.16528L12.3083 6.2106L11.6738 21.396Z" fill="#EEDBB9"/>
<path d="M21.2401 10.7851L12.3083 6.21045L11.6738 21.3959L21.512 26.435L21.2401 10.7851Z" fill="#FCF4E8"/>
<path d="M24.3921 24.6588L22.2917 24.8899L21.3809 10.1214L22.7449 9.93335L24.3921 24.6588Z" fill="#EEDBB9"/>
<path d="M21.5121 26.4351L22.2916 24.8899L21.3807 10.1213L21.2402 10.7852L21.5121 26.4351Z" fill="#CCBBAF"/>
<path d="M21.5117 26.4351L24.3916 24.6587L22.2912 24.8898L21.5117 26.4351Z" fill="#F7EDDE"/>
<path d="M15.1952 9.33741C15.1952 9.48695 15.0887 9.55039 14.955 9.48242C14.8236 9.41444 14.7148 9.23998 14.7148 9.09043C14.7148 8.94089 14.8213 8.87745 14.955 8.94542C15.0887 9.0134 15.1952 9.18786 15.1952 9.33741Z" fill="#67565B"/>
<path d="M18.5849 11.073C18.5849 11.2225 18.4784 11.286 18.3447 11.218C18.2133 11.15 18.1045 10.9756 18.1045 10.826C18.1045 10.6765 18.211 10.613 18.3447 10.681C18.4761 10.749 18.5849 10.9235 18.5849 11.073Z" fill="#67565B"/>
<path d="M16.7268 14.8455C16.9058 14.8364 17.0712 14.7866 17.2184 14.696C17.5674 14.4807 17.76 14.0638 17.76 13.5223V11.7481C17.76 11.7232 17.7464 11.2746 18.3763 11.0389L18.3151 10.8577C17.5357 11.15 17.5606 11.7391 17.5629 11.764V13.5313C17.5629 14.0004 17.4065 14.3561 17.121 14.5306C16.8333 14.7073 16.4413 14.6869 16.0198 14.4716C15.1135 14.0071 14.3749 12.8017 14.3749 11.7867V10.1281C14.3749 9.53445 14.964 9.3124 14.9889 9.30334L14.93 9.12207C14.9232 9.12434 14.1777 9.40076 14.1777 10.1394V11.798C14.1777 12.8765 14.9594 14.1544 15.9201 14.6461C16.2011 14.7911 16.4753 14.8591 16.7268 14.8455Z" fill="#C6A67D"/>
<path d="M17.7843 16.5064L10.4816 12.7678L10.0557 21.2963L18.208 25.4722L17.7843 16.5064Z" fill="#BA9463"/>
<path d="M10.0563 21.2963L9.5918 21.4889L10.1854 13.3955L10.4823 12.7678L10.0563 21.2963Z" fill="#C6A67D"/>
<path d="M8.03027 22.5471L9.59141 21.489L10.1851 13.3955L9.12692 13.604L8.03027 22.5471Z" fill="#C29F73"/>
<path d="M16.4274 17.3426L9.12692 13.604L8.03027 22.5471L16.1826 26.7208L16.4274 17.3426Z" fill="#FF8154"/>
<path d="M18.2078 25.4721L17.0659 25.4563L16.624 16.6808L17.7841 16.5063L18.2078 25.4721Z" fill="#C6A67D"/>
<path d="M16.1826 26.7207L17.0663 25.4564L16.6245 16.6809L16.4273 17.3425L16.1826 26.7207Z" fill="#C29F73"/>
<path d="M16.1826 26.7206L18.2083 25.4722L17.0663 25.4563L16.1826 26.7206Z" fill="#BA9463"/>
<path d="M11.3648 15.9716C11.3648 16.0872 11.2809 16.137 11.179 16.0849C11.077 16.0328 10.9932 15.8969 10.9932 15.7836C10.9932 15.668 11.077 15.6182 11.179 15.6703C11.2809 15.7201 11.3648 15.8561 11.3648 15.9716Z" fill="#67565B"/>
<path d="M13.9819 17.3107C13.9819 17.4263 13.8981 17.4762 13.7961 17.424C13.6942 17.3719 13.6104 17.236 13.6104 17.1227C13.6104 17.0071 13.6942 16.9573 13.7961 17.0094C13.9004 17.0615 13.9819 17.1975 13.9819 17.3107Z" fill="#67565B"/>
<path d="M12.5479 21.0516C12.6907 21.0448 12.8221 21.0041 12.9377 20.9316C13.2141 20.7616 13.3682 20.4308 13.3682 20.0048V17.8297C13.3659 17.8047 13.3387 17.4943 13.8304 17.304L13.7647 17.125C13.1167 17.3765 13.1665 17.8342 13.1688 17.8523V20.0139C13.1688 20.3674 13.0509 20.6347 12.838 20.7662C12.6227 20.8998 12.3282 20.8817 12.0087 20.7186C11.3153 20.3628 10.7511 19.4407 10.7511 18.6635V16.5767C10.7511 16.0623 11.1749 15.9694 11.193 15.9672L11.1635 15.7769C10.9505 15.8176 10.5518 16.0397 10.5518 16.588V18.6748C10.5518 19.5154 11.1613 20.5101 11.909 20.893C12.1333 21.0109 12.3508 21.063 12.5479 21.0516Z" fill="#FCF4E8"/>
<path d="M3.88352 10.5221L3.57227 10.6035L6.74474 22.7293L7.05599 22.6479L3.88352 10.5221Z" fill="#7C0328"/>
<path d="M19.5586 26.2269C19.4997 26.2337 19.4498 26.313 19.4498 26.4014L19.4453 27.7201C19.4453 27.8107 19.5178 27.8832 19.6062 27.8832C19.6945 27.8832 19.767 27.8107 19.767 27.7201L19.7738 26.3584C19.7716 26.27 19.6175 26.2201 19.5586 26.2269Z" fill="#B71837"/>
<path d="M25.3879 22.8122C25.329 22.8168 25.2769 22.8938 25.2723 22.9844L25.2112 24.1581C25.2066 24.2488 25.2746 24.3258 25.363 24.3303C25.4513 24.3349 25.5261 24.2646 25.5306 24.1763L25.5941 22.9618C25.5986 22.8712 25.4468 22.8077 25.3879 22.8122Z" fill="#B71837"/>
<path d="M17.8836 26.2405C17.8247 26.2383 17.7771 26.3085 17.7794 26.3991L17.8066 27.8062C17.8088 27.8968 17.8813 27.9694 17.9697 27.9671C18.0581 27.9648 18.1283 27.8901 18.126 27.7994L18.0989 26.4195C18.0989 26.3312 17.9425 26.2451 17.8836 26.2405Z" fill="#C62A4B"/>
<path d="M15.6224 25.1597C15.534 25.1597 15.4683 25.2322 15.4751 25.3228L15.5929 26.7933C15.5997 26.884 15.679 26.9497 15.7651 26.9429C15.8535 26.9361 15.9192 26.8568 15.9124 26.7661L15.7968 25.3205C15.7878 25.2344 15.7107 25.1597 15.6224 25.1597Z" fill="#C62A4B"/>
<path d="M13.2528 24.0359C13.1939 24.0313 13.1531 24.1016 13.1667 24.1922L13.3797 25.7805C13.391 25.8689 13.4726 25.9323 13.5609 25.921C13.6493 25.9097 13.7105 25.8258 13.6991 25.7375L13.4952 24.2103C13.4794 24.122 13.3117 24.0381 13.2528 24.0359Z" fill="#C62A4B"/>
<path d="M10.9888 22.8938C10.8982 22.8938 10.8393 22.9663 10.8551 23.0547L11.1655 24.7654C11.1814 24.8537 11.2652 24.9126 11.3536 24.8968C11.4397 24.8809 11.4986 24.7948 11.4827 24.7064L11.1837 23.0547C11.1655 22.9663 11.0794 22.8938 10.9888 22.8938Z" fill="#C62A4B"/>
<path d="M8.87957 21.9401C8.85918 21.8517 8.77081 21.7815 8.68018 21.7815H8.67791C8.58728 21.7815 8.53064 21.854 8.55103 21.9401L8.95661 23.7505C8.977 23.8388 9.0631 23.8932 9.1492 23.8751C9.2353 23.857 9.28968 23.7686 9.26929 23.6802L8.87957 21.9401Z" fill="#B2143A"/>
<path d="M6.33062 20.5261C6.23998 20.5261 6.1856 20.5964 6.20826 20.6847L6.74299 22.733C6.76565 22.8191 6.85402 22.8735 6.94012 22.8508C7.02622 22.8282 7.07607 22.7398 7.05341 22.6515L6.53907 20.6847C6.51641 20.5986 6.42351 20.5261 6.33515 20.5261H6.33062Z" fill="#B71A43"/>
<path d="M24.5133 23.5035C24.4091 23.5057 24.366 23.5057 24.366 23.5057C24.2754 23.508 24.1983 23.5828 24.1938 23.6734L24.1213 25.0329C24.1168 25.1235 24.1848 25.2006 24.2731 25.2051C24.3615 25.2096 24.4363 25.1394 24.4431 25.051L24.5156 23.6643C24.5201 23.5737 24.5201 23.5012 24.5178 23.5035C24.5178 23.5035 24.5178 23.5035 24.5133 23.5035Z" fill="#B71837"/>
<path d="M22.6851 24.4529C22.6262 24.4665 22.5763 24.5503 22.5718 24.6387L22.5333 25.9709C22.531 26.0616 22.6012 26.1363 22.6896 26.1386C22.778 26.1409 22.8527 26.0706 22.855 25.98L22.8958 24.5684C22.8981 24.48 22.744 24.4415 22.6851 24.4529Z" fill="#B71837"/>
<path d="M21.056 25.3411C20.9971 25.3524 20.9495 25.434 20.9472 25.5246L20.9404 26.909C20.9404 26.9997 21.0129 27.0722 21.1013 27.0722C21.1897 27.0722 21.2622 26.9997 21.2622 26.909L21.269 25.4634C21.269 25.3751 21.1149 25.3297 21.056 25.3411Z" fill="#B71837"/>
<path d="M25.2935 22.5403C25.2754 22.6286 25.1916 22.7193 25.0579 22.7986L19.5316 25.9888C19.1328 26.2199 18.4349 26.2403 18.0067 26.0341L6.70708 20.5735C6.61645 20.5305 6.54394 20.4784 6.49636 20.4263C6.37853 20.4421 6.25845 20.4512 6.14062 20.458C6.20633 20.6189 6.35135 20.7593 6.56886 20.8636L17.8662 26.3242C18.1109 26.442 18.4123 26.4986 18.7159 26.4986C19.0693 26.4986 19.4251 26.4193 19.6902 26.2652L25.2165 23.0727C25.4793 22.9209 25.6198 22.7147 25.6153 22.4904C25.511 22.5108 25.4023 22.5267 25.2935 22.5403Z" fill="url(#paint9_linear_165_22095)"/>
<path d="M18.716 26.3152C18.4191 26.3152 18.1336 26.2563 17.9139 26.152L6.61655 20.6915C6.49419 20.6326 6.39903 20.5623 6.33105 20.4853C6.37184 20.4807 6.41489 20.4785 6.45794 20.4717C6.51232 20.5193 6.58029 20.5646 6.6596 20.6031L17.9569 26.0637C18.1608 26.1611 18.4305 26.2155 18.7137 26.2155C19.0309 26.2155 19.3368 26.1475 19.5588 26.0274L25.1123 22.819C25.2392 22.7443 25.3299 22.6582 25.3729 22.5675C25.4114 22.563 25.4477 22.5585 25.4862 22.5517C25.4431 22.6831 25.3321 22.8077 25.1622 22.9051L19.6359 26.0977C19.398 26.2359 19.0626 26.3152 18.716 26.3152Z" fill="url(#paint10_linear_165_22095)"/>
<path d="M19.5654 24.5071C19.5065 24.5185 19.4567 24.6 19.4567 24.6907L19.4521 25.8916C19.4521 25.9822 19.4997 26.0502 19.5586 26.0434C19.6176 26.0366 19.7716 25.9369 19.7739 25.8462L19.7784 24.6227C19.7784 24.5321 19.6244 24.4958 19.5654 24.5071Z" fill="#B71837"/>
<path d="M25.5497 20.7661C25.4613 20.7661 25.3843 20.8386 25.3797 20.9293L25.2982 22.4723C25.2936 22.5629 25.3389 22.6331 25.3979 22.6286C25.4568 22.6241 25.6176 22.5402 25.6222 22.4496L25.7015 20.9315C25.706 20.8409 25.638 20.7661 25.5497 20.7661Z" fill="#B71837"/>
<path d="M17.8504 24.507C17.7915 24.5025 17.7439 24.575 17.7462 24.6634L17.7711 25.8869C17.7734 25.9775 17.8232 26.0523 17.8821 26.0568C17.941 26.0591 18.0951 26.0002 18.0928 25.9096L18.0679 24.6815C18.0657 24.5931 17.9093 24.5116 17.8504 24.507Z" fill="#C62A4B"/>
<path d="M15.422 23.3266C15.3631 23.3221 15.3201 23.3901 15.3269 23.4807L15.4334 24.813C15.4402 24.9036 15.5195 24.9761 15.6078 24.9761C15.6962 24.9761 15.7619 24.9036 15.7551 24.813L15.6509 23.5079C15.6441 23.4195 15.481 23.3312 15.422 23.3266Z" fill="#C62A4B"/>
<path d="M12.9885 22.0645C12.9296 22.0645 12.891 22.1347 12.9024 22.2253L13.0972 23.6822C13.1086 23.7706 13.1675 23.8476 13.2286 23.8499C13.2876 23.8544 13.4371 23.7887 13.4235 23.7004L13.2264 22.2299C13.2151 22.1415 13.0496 22.0667 12.9885 22.0645Z" fill="#C62A4B"/>
<path d="M10.8015 20.9565C10.7856 20.8682 10.6995 20.7957 10.6089 20.7957C10.5183 20.7957 10.4594 20.8682 10.4752 20.9565L10.7653 22.5494C10.7811 22.6378 10.8672 22.7103 10.9579 22.7103C11.0485 22.7103 11.1074 22.6378 11.0915 22.5494L10.8015 20.9565Z" fill="#C62A4B"/>
<path d="M8.37025 19.6672C8.34985 19.5788 8.28641 19.5085 8.22523 19.5085C8.16632 19.5085 8.02358 19.5856 8.04397 19.6739L8.43822 21.4367C8.45861 21.5251 8.54698 21.5954 8.63761 21.5954H8.63988C8.73051 21.5954 8.78716 21.5228 8.76677 21.4367L8.37025 19.6672Z" fill="#B2143A"/>
<path d="M5.89165 18.1968C5.86899 18.1107 5.80102 18.045 5.74211 18.0518C5.68319 18.0586 5.54725 18.1469 5.5699 18.233L6.07971 20.1816C6.10237 20.2677 6.19527 20.3402 6.28363 20.3402H6.28816C6.3788 20.3402 6.43318 20.27 6.41052 20.1816L5.89165 18.1968Z" fill="#B71A43"/>
<path d="M24.4009 21.8174C24.342 21.8197 24.2899 21.8967 24.2853 21.9873L24.2219 23.1656C24.2174 23.2562 24.2876 23.3264 24.376 23.3242C24.376 23.3242 24.4122 23.3242 24.5119 23.3219C24.521 23.3219 24.521 23.3219 24.521 23.3219C24.5278 23.3242 24.5368 23.2517 24.5436 23.1633L24.6071 21.9579C24.6116 21.865 24.4621 21.8129 24.4009 21.8174Z" fill="#B71837"/>
<path d="M22.7919 22.6287C22.7035 22.6287 22.6288 22.7012 22.6265 22.7918L22.588 24.1218C22.5857 24.2124 22.631 24.2736 22.6899 24.2623C22.7488 24.2487 22.9075 24.1399 22.9097 24.0516L22.946 22.7918C22.9505 22.7034 22.8803 22.6287 22.7919 22.6287Z" fill="#B71837"/>
<path d="M21.0632 23.6303C21.0043 23.6598 20.9567 23.7572 20.9567 23.8478L20.9521 25.0124C20.9521 25.1031 20.9997 25.1665 21.0586 25.1552C21.1176 25.1438 21.2739 25.0419 21.2739 24.9513L21.2784 23.6915C21.2784 23.6008 21.1221 23.6008 21.0632 23.6303Z" fill="#B71837"/>
<path d="M25.3937 20.7027C25.3869 20.8047 25.3054 20.9066 25.1558 20.9927L19.5411 24.2374C19.1378 24.4708 18.4196 24.4776 17.9777 24.2532L6.09583 18.1899C5.98707 18.1356 5.9055 18.0699 5.85338 18.0042C5.75142 18.0449 5.6472 18.0812 5.54297 18.1174C5.62001 18.2557 5.75822 18.378 5.95081 18.4754L17.8282 24.5365C18.0933 24.6701 18.4218 24.7381 18.7481 24.7381C19.0948 24.7381 19.4392 24.6633 19.6975 24.5138L25.3122 21.2692C25.5773 21.1174 25.7177 20.9066 25.7132 20.6755C25.7132 20.6597 25.7109 20.6461 25.7087 20.6302C25.7132 20.5622 25.686 20.4693 25.6566 20.4625C25.5637 20.4422 25.3393 20.5101 25.3529 20.5645C25.3688 20.6234 25.3869 20.6393 25.3937 20.7027Z" fill="url(#paint11_linear_165_22095)"/>
<path d="M18.7504 24.5523C18.4287 24.5523 18.1205 24.4843 17.8803 24.3643L6.00069 18.3032C5.88513 18.2443 5.78997 18.1741 5.71973 18.0993C5.75371 18.0857 5.7877 18.0744 5.82169 18.0608C5.8806 18.1174 5.95537 18.1695 6.046 18.2149L17.9234 24.2759C18.1477 24.3892 18.44 24.4526 18.7481 24.4526C19.0744 24.4526 19.3758 24.3824 19.5933 24.2578L25.2102 21.0131C25.4436 20.8795 25.498 20.7322 25.5048 20.6325V20.6234V20.6144C25.5003 20.5736 25.4912 20.5441 25.4844 20.5215C25.5161 20.5101 25.5569 20.4988 25.5977 20.4943C25.6022 20.5101 25.6045 20.5305 25.6022 20.5441V20.5554L25.6067 20.5849C25.6067 20.5917 25.609 20.5962 25.609 20.603C25.6135 20.7911 25.4912 20.9656 25.2646 21.097L19.6454 24.3439C19.4098 24.4775 19.0925 24.5523 18.7504 24.5523Z" fill="url(#paint12_linear_165_22095)"/>
<path d="M19.5723 22.7625C19.5134 22.7761 19.4635 22.8622 19.4635 22.9529L19.459 24.1764C19.459 24.2671 19.5066 24.3305 19.5655 24.3192C19.6244 24.3078 19.7785 24.1923 19.7807 24.1039L19.7853 22.8713C19.7853 22.7807 19.6312 22.7489 19.5723 22.7625Z" fill="#B71837"/>
<path d="M25.6421 19.0308C25.5537 19.0308 25.4767 19.1033 25.4722 19.1939L25.4065 20.4197C25.4019 20.5103 25.4699 20.5828 25.5583 20.5828C25.6466 20.5828 25.7237 20.5103 25.7282 20.4197L25.7939 19.1939C25.7984 19.1033 25.7305 19.0308 25.6421 19.0308Z" fill="#B71837"/>
<path d="M17.8162 22.7195C17.7573 22.7195 17.7097 22.7943 17.712 22.8849L17.7369 24.1537C17.7392 24.2444 17.789 24.3192 17.8479 24.3237C17.9068 24.3282 18.0609 24.2625 18.0586 24.1719L18.0337 22.8804C18.0315 22.7897 17.8751 22.7195 17.8162 22.7195Z" fill="#C62A4B"/>
<path d="M15.258 21.3077C15.1991 21.2986 15.156 21.3666 15.1628 21.455L15.2852 22.9685C15.292 23.0592 15.3463 23.1362 15.4053 23.1407C15.4642 23.1453 15.616 23.0864 15.6092 22.9957L15.4868 21.4935C15.48 21.4051 15.3169 21.3145 15.258 21.3077Z" fill="#C62A4B"/>
<path d="M12.7004 19.9121C12.6415 19.9121 12.603 19.9846 12.6143 20.073L12.8341 21.718C12.8454 21.8063 12.9043 21.8811 12.9632 21.8811C13.0221 21.8811 13.1694 21.8109 13.1581 21.7225L12.9383 20.0798C12.927 19.9891 12.7593 19.9144 12.7004 19.9121Z" fill="#C62A4B"/>
<path d="M10.4095 18.8017C10.3936 18.7134 10.3325 18.6409 10.2713 18.6431C10.2124 18.6431 10.0674 18.7179 10.0832 18.8063L10.3823 20.4535C10.3982 20.5419 10.4843 20.6144 10.5749 20.6144C10.6655 20.6144 10.7245 20.5419 10.7086 20.4535L10.4095 18.8017Z" fill="#C62A4B"/>
<path d="M7.85786 17.3767C7.83747 17.2883 7.77176 17.2158 7.71285 17.2158C7.65167 17.2158 7.50893 17.2861 7.52932 17.3722L7.93263 19.1735C7.95303 19.2618 8.01647 19.3321 8.07765 19.3298C8.13882 19.3275 8.2793 19.2528 8.25891 19.1644L7.85786 17.3767Z" fill="#B2143A"/>
<path d="M5.69669 17.8751C5.7556 17.8683 5.78505 17.7913 5.7624 17.7029L5.32056 16.0103C5.2979 15.9242 5.22993 15.854 5.16875 15.854C5.10758 15.854 4.96709 15.9265 4.98975 16.0149L5.44065 17.7414C5.46331 17.8275 5.63778 17.8819 5.69669 17.8751Z" fill="#B71A43"/>
<path d="M24.5009 19.9483C24.442 19.9483 24.3898 20.0231 24.3853 20.1114L24.3128 21.4777C24.3083 21.5683 24.3536 21.6386 24.4125 21.6341C24.4714 21.6295 24.6323 21.5298 24.6368 21.4392L24.707 20.1092C24.7116 20.0163 24.5598 19.946 24.5009 19.9483Z" fill="#B71837"/>
<path d="M22.7899 20.8727C22.731 20.8818 22.6812 20.9611 22.6789 21.0517L22.6426 22.282C22.6404 22.3726 22.7106 22.4451 22.799 22.4451C22.8873 22.4451 22.9621 22.3726 22.9644 22.282L23.0006 21.0154C23.0029 20.9271 22.8488 20.8636 22.7899 20.8727Z" fill="#B71837"/>
<path d="M21.0729 21.8289C21.014 21.8402 20.9664 21.924 20.9664 22.0147L20.9619 23.3175C20.9619 23.4082 21.0276 23.4467 21.1069 23.4059C21.1069 23.4059 21.1296 23.3946 21.2157 23.356C21.2383 23.3447 21.2383 23.3447 21.2383 23.3447C21.261 23.3492 21.2814 23.279 21.2814 23.1884L21.2859 21.9558C21.2859 21.8651 21.1296 21.8153 21.0729 21.8289Z" fill="#B71837"/>
<path d="M25.4797 18.9423C25.4525 19.0307 25.3755 19.1168 25.2509 19.187L19.5479 22.4815C19.1377 22.7194 18.4036 22.7103 17.9437 22.4656L5.48399 15.8064C5.38203 15.7521 5.30272 15.6909 5.24608 15.6274C5.14638 15.6705 5.05122 15.7203 4.95605 15.7747C5.04216 15.8948 5.16677 16.0013 5.33218 16.0897L17.7896 22.7511C18.0751 22.9029 18.4308 22.98 18.7797 22.98C19.1196 22.98 19.4527 22.9075 19.7065 22.7625L25.4118 19.468C25.6587 19.3252 25.7992 19.1281 25.8105 18.9083C25.8128 18.8494 25.8219 18.7248 25.8105 18.7248C25.7199 18.718 25.5726 18.8381 25.4888 18.8471C25.4865 18.8449 25.4843 18.8925 25.4797 18.9423Z" fill="url(#paint13_linear_165_22095)"/>
<path d="M18.7823 22.792C18.4379 22.792 18.1049 22.7149 17.8443 22.5767L5.3869 15.9153C5.2872 15.8609 5.2011 15.7997 5.13086 15.7295C5.16258 15.7136 5.19204 15.6977 5.22376 15.6819C5.2804 15.734 5.35064 15.7816 5.43448 15.8269L17.8919 22.4883C18.1343 22.6175 18.4515 22.69 18.7846 22.69C19.1018 22.69 19.3941 22.622 19.6048 22.5019L25.3101 19.2075C25.4574 19.1214 25.5548 19.0149 25.5911 18.8971L25.5956 18.8857L25.5979 18.8517C25.6251 18.8404 25.6545 18.8246 25.684 18.8087C25.6908 18.8042 25.6976 18.8019 25.7067 18.7974C25.7067 18.7996 25.7044 18.8223 25.7044 18.8223C25.6953 19.0035 25.573 19.169 25.3623 19.2913L19.6524 22.588C19.4258 22.7195 19.1154 22.792 18.7823 22.792Z" fill="url(#paint14_linear_165_22095)"/>
<path d="M19.582 21.0223C19.5231 21.0427 19.4733 21.131 19.4733 21.2217L19.4688 22.4384C19.4688 22.529 19.5163 22.5902 19.5752 22.5743C19.6341 22.5585 19.7905 22.4407 19.7905 22.35L19.795 21.1084C19.795 21.02 19.6409 21.0041 19.582 21.0223Z" fill="#B71837"/>
<path d="M25.743 17.1204C25.6546 17.1204 25.5776 17.1929 25.573 17.2835L25.4983 18.6815C25.4937 18.7722 25.5617 18.8447 25.6501 18.8447C25.7384 18.8447 25.8155 18.7722 25.82 18.6815L25.8948 17.2835C25.8993 17.1951 25.8313 17.1204 25.743 17.1204Z" fill="#B71837"/>
<path d="M17.7811 20.9113C17.7222 20.8977 17.6746 20.9611 17.6768 21.0517L17.704 22.375C17.7063 22.4656 17.7561 22.5381 17.8151 22.5381C17.874 22.5381 18.028 22.4611 18.0258 22.3727L18.0008 21.0948C17.9963 21.0019 17.84 20.9226 17.7811 20.9113Z" fill="#C62A4B"/>
<path d="M15.1066 19.4317C15.0477 19.4204 15.0047 19.4861 15.0114 19.5767L15.1225 20.9407C15.1293 21.0313 15.1836 21.1106 15.2448 21.1197C15.3037 21.1288 15.4555 21.0721 15.4487 20.9838L15.3377 19.6198C15.3287 19.5291 15.1655 19.4408 15.1066 19.4317Z" fill="#C62A4B"/>
<path d="M12.6645 18.0313C12.6532 17.9429 12.5943 17.8772 12.5376 17.884C12.4787 17.8931 12.336 17.9905 12.3473 18.0789L12.5467 19.5653C12.558 19.6536 12.6169 19.7284 12.6759 19.7284C12.7348 19.7284 12.882 19.6604 12.8707 19.5698L12.6645 18.0313Z" fill="#C62A4B"/>
<path d="M10.0133 16.613C9.99748 16.5247 9.93404 16.4499 9.87512 16.4454C9.81395 16.4431 9.66894 16.5043 9.6848 16.5927L9.99521 18.3011C10.0111 18.3894 10.0722 18.462 10.1334 18.462C10.1923 18.462 10.3373 18.3872 10.3215 18.2988L10.0133 16.613Z" fill="#C62A4B"/>
<path d="M7.34441 15.0768C7.32402 14.9885 7.23566 14.9182 7.14502 14.9182H7.14276C7.05213 14.9182 6.99548 14.9907 7.01587 15.0768L7.41692 16.8713C7.43731 16.9597 7.50302 17.0322 7.56193 17.0322C7.62311 17.0322 7.76585 16.962 7.74546 16.8736L7.34441 15.0768Z" fill="#B2143A"/>
<path d="M5.1193 15.6704C5.18047 15.6704 5.20993 15.5978 5.18727 15.5117L4.67747 13.5654C4.65481 13.4793 4.5891 13.4159 4.53019 13.4249C4.47128 13.434 4.33533 13.5269 4.35799 13.6153L4.8542 15.514C4.88139 15.6001 5.05812 15.6726 5.1193 15.6704Z" fill="#B71A43"/>
<path d="M24.5918 18.1514C24.5328 18.1877 24.4807 18.2897 24.4762 18.378L24.4105 19.5993C24.406 19.6899 24.449 19.7624 24.5079 19.7624C24.5668 19.7624 24.7254 19.6854 24.73 19.5948L24.8047 18.1968C24.8115 18.1084 24.6529 18.1152 24.5918 18.1514Z" fill="#B71837"/>
<path d="M22.774 19.1008C22.7604 19.1053 22.7604 19.1053 22.7604 19.1053C22.7468 19.1121 22.7332 19.1914 22.7287 19.2798L22.6925 20.5373C22.6902 20.6279 22.7355 20.6937 22.7944 20.6869C22.8533 20.6778 23.0119 20.594 23.0142 20.5033L23.0527 19.162C23.055 19.0713 22.987 19.0215 22.9032 19.051C22.9032 19.0532 22.8692 19.0645 22.774 19.1008Z" fill="#B71837"/>
<path d="M21.0801 20.1997C21.0212 20.2201 20.9713 20.3108 20.9713 20.4014L20.9668 21.498C20.9668 21.5887 21.0144 21.6521 21.0733 21.6408C21.1322 21.6295 21.2885 21.5343 21.2885 21.4437L21.2931 20.279C21.2931 20.1884 21.139 20.1793 21.0801 20.1997Z" fill="#B71837"/>
<path d="M25.5855 17.0481C25.5855 17.0526 25.5878 17.0572 25.5878 17.0617C25.5878 17.1773 25.504 17.2905 25.3499 17.3812L19.554 20.7278C19.1393 20.9679 18.3848 20.9476 17.909 20.6825L4.87153 13.4206C4.73785 13.3458 4.64042 13.262 4.58151 13.1736C4.47502 13.2008 4.36852 13.228 4.25977 13.2506C4.33907 13.4206 4.49314 13.5792 4.71519 13.7015L17.7527 20.9634C18.0585 21.1333 18.4392 21.2194 18.8085 21.2194C19.1439 21.2194 19.4656 21.1492 19.7126 21.0065L25.5062 17.6599C25.7668 17.5103 25.9073 17.2973 25.905 17.0617C25.905 17.0277 25.9005 16.996 25.896 16.962C25.8348 16.9371 25.6513 16.9665 25.572 16.9869L25.5855 17.0481Z" fill="url(#paint15_linear_165_22095)"/>
<path d="M18.8111 21.0314C18.4441 21.0314 18.0883 20.9453 17.8074 20.7889L4.76991 13.5293C4.62716 13.45 4.51161 13.3548 4.43457 13.2483C4.46856 13.2392 4.50481 13.2325 4.5388 13.2234C4.60677 13.3027 4.70194 13.3775 4.81749 13.4432L17.8549 20.7028C18.1132 20.8478 18.4644 20.9294 18.8134 20.9294C19.1238 20.9294 19.407 20.8637 19.6087 20.7481L25.4024 17.4015C25.5881 17.295 25.6924 17.1523 25.6969 16.9982C25.7309 16.9937 25.7649 16.9892 25.7966 16.9869C25.7966 17.1818 25.6742 17.3585 25.4522 17.4876L19.6585 20.8342C19.4387 20.9611 19.1374 21.0314 18.8111 21.0314Z" fill="url(#paint16_linear_165_22095)"/>
<path d="M19.6872 20.7913C19.7462 20.7686 19.7937 20.678 19.7937 20.5874L19.7983 19.2754C19.7983 19.1848 19.7258 19.1123 19.6374 19.1123C19.549 19.1123 19.4765 19.1848 19.4765 19.2754L19.4697 20.7029C19.4743 20.7913 19.6283 20.8117 19.6872 20.7913Z" fill="#B71837"/>
<path d="M25.7506 16.9371C25.8389 16.9371 25.916 16.8646 25.9205 16.7739L26.0021 15.2332C26.0066 15.1426 25.9386 15.0655 25.8503 15.061C25.7619 15.0565 25.6871 15.1267 25.6826 15.2151L25.6011 16.7717C25.5943 16.8623 25.6622 16.9371 25.7506 16.9371Z" fill="#B71837"/>
<path d="M17.8812 20.7413C17.9401 20.7436 17.9877 20.6711 17.9854 20.5805L17.9582 19.1961C17.9559 19.1054 17.8834 19.0329 17.7951 19.0352C17.7067 19.0375 17.6365 19.1122 17.6387 19.2029L17.6659 20.5442C17.6659 20.6326 17.8223 20.7391 17.8812 20.7413Z" fill="#C62A4B"/>
<path d="M15.1993 19.2594C15.2582 19.2662 15.3013 19.1982 15.2945 19.1099L15.1676 17.5397C15.1608 17.449 15.0815 17.3833 14.9954 17.3901C14.9071 17.3969 14.8413 17.4762 14.8481 17.5669L14.9682 19.0623C14.9773 19.1484 15.1404 19.2504 15.1993 19.2594Z" fill="#C62A4B"/>
<path d="M12.5115 17.7028C12.5704 17.6937 12.6066 17.6144 12.5953 17.5238L12.3755 15.881C12.3642 15.7927 12.2826 15.7292 12.1943 15.7406C12.1059 15.7519 12.0447 15.8357 12.056 15.9241L12.2781 17.5736C12.2894 17.6642 12.4526 17.7118 12.5115 17.7028Z" fill="#C62A4B"/>
<path d="M9.84079 16.2596C9.90197 16.2641 9.93822 16.1939 9.92236 16.1055L9.58249 14.2295C9.56663 14.1411 9.4828 14.0822 9.39443 14.098C9.30833 14.1139 9.24942 14.2 9.26528 14.2884L9.59156 16.0851C9.60742 16.1712 9.77962 16.2551 9.84079 16.2596Z" fill="#C62A4B"/>
<path d="M7.10325 14.7347C7.19388 14.7347 7.25052 14.6622 7.23013 14.5761L6.78377 12.5754C6.76337 12.487 6.67727 12.4326 6.59117 12.4507C6.50507 12.4689 6.45069 12.5572 6.47108 12.6456L6.90385 14.5761C6.92198 14.6622 7.01261 14.7347 7.10325 14.7347Z" fill="#B2143A"/>
<path d="M4.48396 13.246C4.54287 13.237 4.57233 13.1577 4.54967 13.0716L3.98775 10.9213C3.96509 10.8352 3.87672 10.7808 3.79062 10.8035C3.70452 10.8262 3.65467 10.9145 3.67733 11.0029L4.23019 13.1191C4.25285 13.2075 4.42505 13.2551 4.48396 13.246Z" fill="#B71A43"/>
<path d="M24.713 17.8842C24.7742 17.8548 24.8286 17.7573 24.8331 17.6667L24.9147 16.1124C24.9192 16.0217 24.8512 15.9447 24.7629 15.9401C24.6745 15.9356 24.5997 16.0059 24.5929 16.0942L24.5 17.8389C24.4978 17.9295 24.6518 17.9137 24.713 17.8842Z" fill="#B71837"/>
<path d="M22.9552 18.8404C23.0141 18.8177 23.0639 18.7248 23.0685 18.6365L23.107 17.2883C23.1092 17.1977 23.039 17.1229 22.9506 17.1207C22.8623 17.1184 22.7875 17.1886 22.7852 17.2793L22.7422 18.7566C22.7422 18.8472 22.8963 18.8631 22.9552 18.8404Z" fill="#B71837"/>
<path d="M21.2831 19.9233C21.2876 19.921 21.2876 19.921 21.2876 19.921C21.2921 19.921 21.2967 19.8462 21.2967 19.7556L21.2989 18.4664C21.2989 18.3757 21.2264 18.3032 21.1403 18.3032C21.052 18.3032 20.9795 18.3757 20.9795 18.4664L20.9727 19.8825C20.9727 19.9731 21.0406 20.0207 21.1267 19.9912C21.1267 19.9912 21.1811 19.9709 21.2831 19.9233Z" fill="#B71837"/>
<path d="M25.6833 15.2581C25.681 15.4099 25.5519 15.5142 25.4454 15.5776L19.5611 18.9718C19.1396 19.2142 18.3693 19.1802 17.8753 18.8947L4.25783 11.0324C4.06297 10.9191 3.93608 10.7809 3.89757 10.6472C3.78881 10.654 3.68005 10.654 3.57129 10.6517C3.60528 10.8987 3.79107 11.1344 4.09696 11.3111L17.7145 19.1734C18.0407 19.3615 18.4486 19.4567 18.836 19.4567C19.1646 19.4567 19.4795 19.3887 19.7197 19.2505L25.604 15.854C25.8578 15.709 25.9982 15.5006 26.0028 15.2672C25.8963 15.2627 25.7898 15.2604 25.6833 15.2581Z" fill="url(#paint17_linear_165_22095)"/>
<path d="M25.4159 14.533L24.1901 13.8261C24.1946 13.8691 24.2014 13.9099 24.2105 13.953L25.366 14.6191C25.6379 14.7754 25.792 14.9794 25.792 15.1788C25.792 15.3419 25.6901 15.4869 25.4975 15.5979L19.6177 18.9944C19.4206 19.1077 19.1464 19.1711 18.8428 19.1711C18.4712 19.1711 18.0996 19.0782 17.8209 18.9173L4.2034 11.055C3.9315 10.8987 3.77743 10.6947 3.77743 10.4953C3.77743 10.3322 3.87939 10.1872 4.07198 10.0762L4.66789 9.73177C4.66789 9.69325 4.66789 9.65473 4.66789 9.61621L4.02214 9.9878C3.80009 10.117 3.67773 10.296 3.67773 10.4931C3.67773 10.7287 3.8522 10.9644 4.15355 11.1388L17.7711 19.0012C18.0656 19.1711 18.4553 19.2708 18.8383 19.2708C19.1577 19.2708 19.4523 19.2028 19.6653 19.0782L25.5473 15.6818C25.7694 15.5526 25.8917 15.3736 25.8917 15.1765C25.894 14.9431 25.7195 14.7075 25.4159 14.533Z" fill="url(#paint18_linear_165_22095)"/>
<path d="M24.1061 12.1288L22.665 12.9491C22.4815 13.0533 22.3614 13.3252 22.3954 13.5563L22.7375 15.8923C22.7715 16.1235 22.9483 16.2277 23.1318 16.1235L24.5728 15.3032C24.7564 15.199 24.8765 14.9271 24.8425 14.696L24.5003 12.36C24.4663 12.1288 24.2896 12.0246 24.1061 12.1288Z" fill="#FFF887"/>
<path d="M23.265 11.7232C22.873 11.9476 22.6125 12.5299 22.685 13.0261L22.7915 13.7579L24.2144 12.949L24.1079 12.2172C24.0354 11.721 23.6593 11.5012 23.265 11.7232Z" fill="#FFF887"/>
<path d="M23.0295 13.9053C23.0227 13.8622 23.025 13.8147 23.0318 13.7671C23.0408 13.7195 23.0544 13.6719 23.0725 13.6311C23.0929 13.5881 23.1179 13.5496 23.1451 13.5133C23.1745 13.4771 23.2085 13.4499 23.2447 13.4272C23.281 13.4068 23.3173 13.3955 23.3512 13.3932C23.3875 13.3932 23.4192 13.4 23.4464 13.4136C23.4736 13.4295 23.4985 13.4521 23.5189 13.4861C23.5393 13.5178 23.5529 13.5564 23.5597 13.5994C23.5665 13.6447 23.5642 13.69 23.5574 13.7376C23.5484 13.7852 23.5348 13.8305 23.5166 13.8713C23.4985 13.9144 23.4736 13.9529 23.4419 13.9891C23.4124 14.0254 23.3784 14.0548 23.3422 14.0752C23.3059 14.0956 23.2697 14.107 23.2357 14.107C23.2017 14.107 23.17 14.1002 23.1405 14.0843C23.1133 14.0684 23.0884 14.0458 23.068 14.0141C23.0499 13.9869 23.0363 13.9506 23.0295 13.9053ZM23.1881 13.8124C23.1926 13.8487 23.2085 13.8736 23.2334 13.8872C23.2583 13.9008 23.2855 13.8985 23.315 13.8826C23.3444 13.8645 23.3694 13.8373 23.3875 13.7988C23.4056 13.7603 23.4124 13.724 23.4056 13.6855C23.4011 13.6493 23.3852 13.6243 23.3603 13.6085C23.3354 13.5949 23.3059 13.5949 23.2765 13.613C23.247 13.6311 23.2221 13.6583 23.2062 13.6968C23.1881 13.7376 23.1813 13.7761 23.1881 13.8124ZM24.0219 13.0873L23.392 15.2467L23.2312 15.2149L23.8633 13.0488L24.0219 13.0873ZM23.6889 14.6983C23.6821 14.653 23.6843 14.6077 23.6911 14.5601C23.7002 14.5125 23.7138 14.4672 23.7319 14.4242C23.75 14.3811 23.775 14.3426 23.8044 14.3086C23.8339 14.2724 23.8678 14.2452 23.9041 14.2225C23.9404 14.2021 23.9743 14.1908 24.0106 14.1908C24.0468 14.1885 24.0786 14.1976 24.1058 14.2112C24.133 14.227 24.1579 14.2497 24.1783 14.2814C24.1987 14.3131 24.2123 14.3517 24.2191 14.397C24.2258 14.4423 24.2236 14.4876 24.2168 14.5352C24.2077 14.5828 24.1941 14.6281 24.1737 14.6711C24.1533 14.7142 24.1284 14.7527 24.099 14.789C24.0695 14.8252 24.0355 14.8524 23.9993 14.8728C23.9607 14.8932 23.9245 14.9045 23.8905 14.9068C23.8565 14.9068 23.8248 14.9 23.7976 14.8841C23.7704 14.8683 23.7455 14.8456 23.7251 14.8139C23.7092 14.7822 23.6956 14.7436 23.6889 14.6983ZM23.8452 14.6077C23.8497 14.6439 23.8656 14.6689 23.8905 14.6825C23.9154 14.6961 23.9426 14.6938 23.9743 14.6779C24.0038 14.6598 24.0287 14.6326 24.0446 14.5964C24.0627 14.5578 24.0672 14.5216 24.0627 14.4831C24.0582 14.4468 24.0423 14.4196 24.0174 14.406C23.9925 14.3924 23.9653 14.3924 23.9336 14.4106C23.9018 14.4287 23.8792 14.4559 23.8611 14.4944C23.8452 14.5329 23.8384 14.5692 23.8452 14.6077Z" fill="#00BFC4"/>
<path d="M23.4944 12.2262C23.508 12.3259 23.4558 12.4414 23.3788 12.4868C23.2995 12.5321 23.2247 12.4868 23.2111 12.3871C23.1975 12.2874 23.2497 12.1718 23.3267 12.1265C23.4037 12.0834 23.4785 12.1265 23.4944 12.2262Z" fill="#FFB05E"/>
<path d="M23.7711 11.0526C23.5695 11.4854 23.3565 11.9317 23.4199 12.2943L23.2817 12.3192C23.2092 11.9113 23.429 11.4446 23.6442 10.9914C23.8708 10.5111 24.0838 10.0602 23.9003 9.77242C23.5514 9.22409 23.0325 9.462 22.4275 9.77015L22.2734 9.69085C22.278 9.68858 22.2825 9.68632 22.287 9.68405C22.926 9.35778 23.5853 9.02017 24.0181 9.69538C24.2447 10.0488 24.0158 10.536 23.7711 11.0526Z" fill="#E6E2D7"/>
<path d="M27.0743 27.6066L31.1754 20.56L30.3756 20.0978C29.8499 19.7851 29.118 19.8236 28.3091 20.2926C26.7117 21.2148 25.418 23.4489 25.418 25.2797C25.418 26.1361 25.7012 26.7547 26.1657 27.0742C26.2223 27.1127 26.2812 27.1467 26.3424 27.1761L27.0743 27.6066Z" fill="#039E89"/>
<path d="M32.0001 22.4021C32.0001 24.2352 30.7063 26.467 29.109 27.3892C27.5116 28.3114 26.2178 27.5727 26.2178 25.7397C26.2178 23.9066 27.5116 21.6748 29.109 20.7526C30.7041 19.8327 32.0001 20.5714 32.0001 22.4021Z" fill="#25D1C6"/>
<path d="M31.0975 25.3034C32.1756 23.4593 32.1869 21.4601 31.1228 20.838C30.0587 20.2159 28.3221 21.2065 27.244 23.0506C26.166 24.8947 26.1546 26.894 27.2187 27.516C28.2828 28.1381 30.0194 27.1475 31.0975 25.3034Z" fill="#00BFC4"/>
<path d="M30.6796 23.3651L27.9629 24.933C27.8474 24.9987 27.7613 25.1709 27.7839 25.2865L28.0082 26.4602C28.0422 26.6324 28.1872 26.6867 28.3572 26.5871L30.2854 25.4745C30.4553 25.3771 30.6026 25.1528 30.6343 24.9443L30.8586 23.5101C30.8813 23.3719 30.7952 23.2994 30.6796 23.3651ZM28.7605 25.6853C28.7605 25.7804 28.7016 25.8937 28.6313 25.9345L28.6245 25.939C28.552 25.9798 28.4931 25.9368 28.4931 25.8393V25.1981C28.4931 25.103 28.552 24.9897 28.6245 24.9489L28.6313 24.9443C28.7016 24.9036 28.7605 24.9466 28.7605 25.044V25.6853ZM29.4561 25.2842C29.4561 25.3794 29.3972 25.4927 29.3247 25.5335L29.3179 25.538C29.2454 25.5788 29.1865 25.5357 29.1865 25.4383V24.7971C29.1865 24.7019 29.2454 24.5886 29.3179 24.5456L29.3247 24.5433C29.3972 24.5025 29.4561 24.5456 29.4561 24.6407V25.2842ZM30.154 24.8809C30.154 24.9761 30.095 25.0894 30.0225 25.1301L30.0157 25.1347C29.9455 25.1755 29.8843 25.1324 29.8843 25.035V24.3938C29.8843 24.2986 29.9432 24.1853 30.0157 24.1423L30.0225 24.1377C30.095 24.0969 30.154 24.14 30.154 24.2374V24.8809Z" fill="white"/>
<path d="M30.9557 22.5925L27.6861 24.4799C27.5865 24.5366 27.5049 24.6929 27.5049 24.8243C27.5049 24.958 27.5865 25.0192 27.6861 24.9603L30.9557 23.0729C31.0554 23.0162 31.137 22.8599 31.137 22.7285C31.137 22.5948 31.0554 22.5336 30.9557 22.5925Z" fill="white"/>
<path d="M29.6487 23.587C29.6487 23.7932 29.5014 24.047 29.3224 24.1512C29.1411 24.2554 28.9961 24.1716 28.9961 23.9654C28.9961 23.7592 29.1434 23.5054 29.3224 23.4012C29.5014 23.297 29.6487 23.3785 29.6487 23.587Z" fill="white"/>
<path d="M29.2179 23.9904C29.1432 23.97 29.1273 23.8567 29.1817 23.7389L30.0359 21.9263C30.0925 21.8084 30.199 21.7291 30.2738 21.7495C30.3485 21.7699 30.3644 21.8832 30.31 22.001L29.4558 23.8137C29.3992 23.9315 29.295 24.0108 29.2179 23.9904Z" fill="white"/>
</g>
<defs>
<linearGradient id="paint0_linear_165_22095" x1="17.1933" y1="30.885" x2="9.73393" y2="14.5357" gradientUnits="userSpaceOnUse">
<stop stop-color="#BA0237"/>
<stop offset="0.1599" stop-color="#BC073A"/>
<stop offset="0.3555" stop-color="#C01641"/>
<stop offset="0.5319" stop-color="#C62A4B"/>
<stop offset="0.5962" stop-color="#B70F3B"/>
</linearGradient>
<linearGradient id="paint1_linear_165_22095" x1="17.2534" y1="30.5932" x2="9.98151" y2="14.6548" gradientUnits="userSpaceOnUse">
<stop stop-color="#D10028"/>
<stop offset="0.7125" stop-color="#CE1142"/>
</linearGradient>
<linearGradient id="paint2_linear_165_22095" x1="14.6466" y1="23.988" x2="5.99518" y2="26.8037" gradientUnits="userSpaceOnUse">
<stop offset="0.4784" stop-color="#C62A4B"/>
<stop offset="0.9595" stop-color="#B70F3B"/>
</linearGradient>
<linearGradient id="paint3_linear_165_22095" x1="15.6308" y1="22.5643" x2="12.7153" y2="17.5145" gradientUnits="userSpaceOnUse">
<stop stop-color="#BA0237"/>
<stop offset="0.927" stop-color="#BA133F"/>
</linearGradient>
<linearGradient id="paint4_linear_165_22095" x1="4.29589" y1="13.1713" x2="1.05384" y2="4.50443" gradientUnits="userSpaceOnUse">
<stop offset="0.0405" stop-color="#B70F3B"/>
<stop offset="0.5216" stop-color="#C62A4B"/>
</linearGradient>
<linearGradient id="paint5_linear_165_22095" x1="1.47555" y1="9.30366" x2="-0.715254" y2="6.00541" gradientUnits="userSpaceOnUse">
<stop stop-color="#BA0237"/>
<stop offset="0.927" stop-color="#BA133F"/>
</linearGradient>
<linearGradient id="paint6_linear_165_22095" x1="11.2835" y1="10.5579" x2="8.0414" y2="1.89098" gradientUnits="userSpaceOnUse">
<stop offset="0.0405" stop-color="#B70F3B"/>
<stop offset="0.5216" stop-color="#C62A4B"/>
</linearGradient>
<linearGradient id="paint7_linear_165_22095" x1="7.80452" y1="5.1006" x2="5.61371" y2="1.80238" gradientUnits="userSpaceOnUse">
<stop stop-color="#BA0237"/>
<stop offset="0.927" stop-color="#BA133F"/>
</linearGradient>
<linearGradient id="paint8_linear_165_22095" x1="13.8941" y1="16.9901" x2="15.9485" y2="7.58492" gradientUnits="userSpaceOnUse">
<stop stop-color="#BA0237"/>
<stop offset="0.4784" stop-color="#C62A4B"/>
<stop offset="0.9595" stop-color="#B70F3B"/>
</linearGradient>
<linearGradient id="paint9_linear_165_22095" x1="4.55603" y1="21.9378" x2="23.4627" y2="24.6983" gradientUnits="userSpaceOnUse">
<stop stop-color="#C62A4B"/>
<stop offset="0.6811" stop-color="#BA0237"/>
</linearGradient>
<linearGradient id="paint10_linear_165_22095" x1="18.8249" y1="26.5659" x2="13.0679" y2="16.5946" gradientUnits="userSpaceOnUse">
<stop stop-color="#BA0237"/>
<stop offset="0.927" stop-color="#BA133F"/>
</linearGradient>
<linearGradient id="paint11_linear_165_22095" x1="4.82836" y1="20.0761" x2="23.7351" y2="22.8367" gradientUnits="userSpaceOnUse">
<stop stop-color="#C62A4B"/>
<stop offset="0.6811" stop-color="#BA0237"/>
</linearGradient>
<linearGradient id="paint12_linear_165_22095" x1="18.8394" y1="24.8079" x2="12.6546" y2="14.0955" gradientUnits="userSpaceOnUse">
<stop stop-color="#BA0237"/>
<stop offset="0.927" stop-color="#BA133F"/>
</linearGradient>
<linearGradient id="paint13_linear_165_22095" x1="5.0872" y1="18.3031" x2="23.9939" y2="21.0637" gradientUnits="userSpaceOnUse">
<stop stop-color="#C62A4B"/>
<stop offset="0.6811" stop-color="#BA0237"/>
</linearGradient>
<linearGradient id="paint14_linear_165_22095" x1="18.7799" y1="23.0925" x2="12.18" y2="11.6612" gradientUnits="userSpaceOnUse">
<stop stop-color="#BA0237"/>
<stop offset="0.927" stop-color="#BA133F"/>
</linearGradient>
<linearGradient id="paint15_linear_165_22095" x1="5.38109" y1="16.2856" x2="24.2878" y2="19.0461" gradientUnits="userSpaceOnUse">
<stop stop-color="#C62A4B"/>
<stop offset="0.6811" stop-color="#BA0237"/>
</linearGradient>
<linearGradient id="paint16_linear_165_22095" x1="18.7263" y1="21.373" x2="11.6354" y2="9.09119" gradientUnits="userSpaceOnUse">
<stop stop-color="#BA0237"/>
<stop offset="0.927" stop-color="#BA133F"/>
</linearGradient>
<linearGradient id="paint17_linear_165_22095" x1="2.08997" y1="12.1632" x2="23.0189" y2="17.5559" gradientUnits="userSpaceOnUse">
<stop stop-color="#C62A4B"/>
<stop offset="0.6811" stop-color="#BA0237"/>
</linearGradient>
<linearGradient id="paint18_linear_165_22095" x1="14.1422" y1="10.3656" x2="16.2849" y2="18.5991" gradientUnits="userSpaceOnUse">
<stop stop-color="#A00233"/>
<stop offset="0.927" stop-color="#D30234"/>
</linearGradient>
<clipPath id="clip0_165_22095">
<rect width="32" height="34.2046" fill="white"/>
</clipPath>
</defs>
</svg>
