<svg width="46" height="39" viewBox="0 0 46 39" fill="none" xmlns="http://www.w3.org/2000/svg">
<path d="M36.1301 27.3784L17.3066 21.706L22.0504 4.81836L41.5513 8.07627L36.1301 27.3784ZM17.5016 21.5999L36.0193 27.1814L41.3508 8.20168L22.1654 4.99476L17.5016 21.5999Z" fill="#444444"/>
<path d="M8.18135 38.6068L8.14348 38.5379L1.65625 26.6487L9.23614 22.6562L10.5027 24.9757L15.7626 34.6143L15.6925 34.6515L8.18135 38.6068ZM1.87226 26.7121L8.24727 38.3946L15.5452 34.5496L10.3611 25.0487L9.17021 22.8671L8.22343 23.366L1.87226 26.7121Z" fill="#444444"/>
<path opacity="0.2" d="M39.823 24.8076C42.7326 24.8076 45.0913 22.4901 45.0913 19.6314C45.0913 16.7726 42.7326 14.4551 39.823 14.4551C36.9134 14.4551 34.5547 16.7726 34.5547 19.6314C34.5547 22.4901 36.9134 24.8076 39.823 24.8076Z" fill="#3A7EC1"/>
<path d="M39.3015 24.8076C42.2111 24.8076 44.5699 22.4901 44.5699 19.6314C44.5699 16.7726 42.2111 14.4551 39.3015 14.4551C36.3919 14.4551 34.0332 16.7726 34.0332 19.6314C34.0332 22.4901 36.3919 24.8076 39.3015 24.8076Z" fill="#F9C067"/>
<path opacity="0.2" d="M34.8613 26.2961C34.8613 26.2961 40.4593 9.44565 40.3008 9.44565C40.1423 9.44565 38.4297 9.13281 38.4297 9.13281L34.8613 26.2961Z" fill="#3A7EC1"/>
<path opacity="0.2" d="M24.5332 35.592L31.1831 25.2009L24.5332 23.3721V35.592Z" fill="#3A7EC1"/>
<path opacity="0.2" d="M29.4141 30.1298C28.9652 30.1298 28.5472 30.2387 28.198 30.4233L27.0913 29.5537C27.2806 29.2878 27.3886 28.9804 27.3886 28.6524C27.3886 27.6547 26.3928 26.8457 25.164 26.8457C23.9353 26.8457 22.9395 27.6547 22.9395 28.6524C22.9395 29.6502 23.9353 30.4592 25.164 30.4592C25.7686 30.4592 26.317 30.2635 26.7182 29.9451L27.7407 30.7486C27.3985 31.0669 27.1909 31.4818 27.1909 31.9379C27.1909 32.9357 28.1867 33.7447 29.4155 33.7447C30.6442 33.7447 31.64 32.9357 31.64 31.9379C31.6386 30.9388 30.6428 30.1298 29.4141 30.1298Z" fill="#3A7EC1"/>
<path d="M13.889 34.2621L6.44935 38.1801L0 26.3598L6.4227 22.9765L7.43822 22.4404L8.66693 24.6909L13.889 34.2621Z" fill="#3B82F4"/>
<path d="M2.59646 26.541L2.89241 26.3852L2.76477 26.1523L1.88672 26.6154L2.01296 26.8483L2.31172 26.6912L2.82649 27.6338L3.10982 27.485L2.59646 26.541Z" fill="#B3CEF6"/>
<path d="M4.16946 26.1672C4.08249 26.0101 3.96467 25.8916 3.81178 25.8144C3.6603 25.7372 3.5004 25.7414 3.33348 25.8296C3.16797 25.9164 3.07259 26.0404 3.04594 26.203C3.01929 26.3657 3.05295 26.531 3.14693 26.7033C3.23951 26.8714 3.36154 26.9927 3.51442 27.0644C3.66731 27.1374 3.82441 27.1305 3.98571 27.0465C4.15403 26.9583 4.24941 26.8315 4.27325 26.6689C4.2971 26.5049 4.26203 26.3381 4.16946 26.1672ZM3.8707 26.8163C3.72342 26.8935 3.58035 26.8053 3.44289 26.5517C3.30403 26.2981 3.30824 26.1328 3.45551 26.0556C3.59718 25.9812 3.73885 26.0707 3.87771 26.3243C4.01517 26.5779 4.01377 26.7419 3.8707 26.8163Z" fill="#B3CEF6"/>
<path d="M5.78072 25.3153C5.70778 25.1816 5.61801 25.0865 5.51281 25.0287C5.40762 24.9722 5.30663 24.9418 5.21125 24.9405C5.11587 24.9391 4.99384 24.9763 4.84516 25.0549L4.48047 25.2478L5.12148 26.4233L5.53385 26.207C5.71059 26.1133 5.81999 25.9837 5.85927 25.8183C5.89854 25.6516 5.87189 25.4848 5.78072 25.3153ZM5.5577 25.7632C5.54928 25.8638 5.49318 25.941 5.39219 25.9947L5.27717 26.0554L4.87461 25.3181L4.99243 25.2561C5.05134 25.2244 5.10885 25.2106 5.16356 25.212C5.21826 25.2147 5.27717 25.2381 5.33889 25.2836C5.4006 25.3291 5.4497 25.387 5.48897 25.4586C5.54367 25.562 5.56752 25.6626 5.5577 25.7632Z" fill="#B3CEF6"/>
<path d="M6.92977 24.7133C6.84421 24.5562 6.72499 24.4377 6.5735 24.3605C6.48373 24.315 6.39256 24.2971 6.29718 24.3095C6.23126 24.3178 6.16393 24.3398 6.0952 24.3756C5.92969 24.4625 5.83431 24.5879 5.80766 24.7491C5.78101 24.9104 5.81467 25.0771 5.90865 25.2494C5.98159 25.3817 6.07136 25.4837 6.18076 25.5567C6.21162 25.5774 6.24248 25.5953 6.27614 25.6105C6.42903 25.6835 6.58613 25.6766 6.74743 25.5912C6.91575 25.503 7.01113 25.3762 7.03497 25.2136C7.05882 25.0509 7.02375 24.8842 6.92977 24.7133ZM6.63241 25.3624C6.49215 25.4368 6.35469 25.3583 6.22144 25.1267C6.21583 25.1171 6.21022 25.1074 6.20461 25.0964C6.06575 24.8428 6.06995 24.6775 6.21723 24.6003C6.23547 24.5906 6.2537 24.5837 6.27334 24.5796C6.39677 24.552 6.5188 24.6485 6.63943 24.869C6.77689 25.124 6.77408 25.288 6.63241 25.3624Z" fill="#B3CEF6"/>
<path d="M3.55142 29.9714C3.96132 29.8933 4.22919 29.5035 4.14974 29.1008C4.07028 28.6981 3.67357 28.4349 3.26367 28.5129C2.85377 28.591 2.5859 28.9808 2.66536 29.3835C2.74481 29.7863 3.14152 30.0495 3.55142 29.9714Z" fill="#B3CEF6"/>
<path d="M8.53417 26.8922L4.82137 28.8478C4.66848 28.9291 4.47772 28.8712 4.39496 28.721C4.31221 28.5708 4.37112 28.3833 4.52401 28.302L8.23681 26.3465C8.38969 26.2651 8.58045 26.323 8.66321 26.4732C8.74597 26.6235 8.68846 26.8109 8.53417 26.8922Z" fill="#B3CEF6"/>
<path d="M4.5043 31.9806C4.9218 31.9752 5.25581 31.6383 5.25033 31.2281C5.24485 30.8179 4.90196 30.4898 4.48446 30.4951C4.06697 30.5005 3.73296 30.8374 3.73843 31.2476C3.74391 31.6578 4.0868 31.986 4.5043 31.9806Z" fill="#B3CEF6"/>
<path d="M9.62401 28.8869L5.91121 30.8425C5.75832 30.9238 5.56756 30.8659 5.48481 30.7157C5.40205 30.5655 5.46096 30.3781 5.61385 30.2967L9.32665 28.3426C9.47954 28.2612 9.6703 28.3191 9.75305 28.4693C9.83441 28.6196 9.7769 28.807 9.62401 28.8869Z" fill="#B3CEF6"/>
<path d="M5.58415 33.9778C6.00169 33.9778 6.34017 33.6453 6.34017 33.235C6.34017 32.8248 6.00169 32.4922 5.58415 32.4922C5.16661 32.4922 4.82812 32.8248 4.82812 33.235C4.82812 33.6453 5.16661 33.9778 5.58415 33.9778Z" fill="#B3CEF6"/>
<path d="M10.7158 30.8844L7.00301 32.84C6.85012 32.9213 6.65936 32.8634 6.57661 32.7132C6.49385 32.563 6.55276 32.3755 6.70565 32.2942L10.4184 30.3386C10.5713 30.2573 10.7621 30.3152 10.8448 30.4654C10.9262 30.6157 10.8687 30.8031 10.7158 30.8844Z" fill="#B3CEF6"/>
<path d="M6.67399 35.9739C7.09153 35.9739 7.43002 35.6413 7.43002 35.2311C7.43002 34.8208 7.09153 34.4883 6.67399 34.4883C6.25645 34.4883 5.91797 34.8208 5.91797 35.2311C5.91797 35.6413 6.25645 35.9739 6.67399 35.9739Z" fill="#B3CEF6"/>
<path d="M11.8037 32.8815L8.0909 34.837C7.93801 34.9183 7.74725 34.8605 7.6645 34.7102C7.58174 34.56 7.64065 34.3726 7.79354 34.2913L11.5063 32.3357C11.6592 32.2544 11.85 32.3123 11.9327 32.4625C12.0141 32.6127 11.9566 32.8001 11.8037 32.8815Z" fill="#B3CEF6"/>
<path opacity="0.2" d="M8.66796 24.6909L7.67489 26.6437L7.18677 27.6029L5.88792 30.1552L5.7168 30.4901L5.74204 30.2324L5.92579 28.2672L5.99592 27.5285L6.18107 25.5564L6.22175 25.1278L6.27224 24.5793L6.29749 24.3092L6.42373 22.9765L7.43924 22.4404L8.66796 24.6909Z" fill="#3A7EC1"/>
<path d="M37.8898 22.1202C37.7005 22.1022 37.5181 22.0127 37.3877 21.8569L35.964 20.1549C35.7031 19.8435 35.7494 19.3832 36.0664 19.1268C36.3834 18.8705 36.8519 18.916 37.1128 19.2275L38.0638 20.3658L41.0262 17.9747C41.3431 17.7184 41.8116 17.7639 42.0725 18.0753C42.3334 18.3868 42.2871 18.8471 41.9701 19.1034L38.4341 21.9575C38.2756 22.0857 38.0792 22.1381 37.8898 22.1202Z" fill="white"/>
<path d="M30.0149 32.8322C29.9041 32.7344 29.8957 32.5662 29.9967 32.4587C30.2547 32.1776 29.8213 31.7366 29.8171 31.7325L23.4912 26.1014C23.3804 26.0036 23.372 25.8354 23.473 25.7279C23.5726 25.6191 23.7437 25.6108 23.8531 25.71L30.1902 31.3521C30.4778 31.6388 30.8733 32.2989 30.3964 32.8157C30.2954 32.9218 30.1257 32.9301 30.0149 32.8322Z" fill="#636466"/>
<path d="M23.7265 27.2347C23.8373 27.3325 24.007 27.3242 24.1066 27.2167C24.3647 26.9356 24.8556 27.3173 24.8598 27.3215L31.1857 32.9539C31.2965 33.0518 31.4663 33.0435 31.5659 32.936C31.6654 32.8271 31.657 32.6604 31.5476 32.5625L25.2105 26.9204C24.8921 26.6682 24.1851 26.3458 23.7082 26.8626C23.6087 26.9687 23.6171 27.1368 23.7265 27.2347Z" fill="#636466"/>
<path opacity="0.28" d="M26.5811 28.6259C27.3655 27.8552 27.3655 26.6057 26.5811 25.835C25.7967 25.0643 24.525 25.0643 23.7406 25.835C22.9562 26.6057 22.9562 27.8552 23.7406 28.6259C24.525 29.3966 25.7967 29.3966 26.5811 28.6259Z" fill="#F2F2F2"/>
<path opacity="0.28" d="M31.3272 32.8505C32.1116 32.0798 32.1116 30.8303 31.3272 30.0596C30.5428 29.2889 29.2711 29.2889 28.4867 30.0596C27.7023 30.8303 27.7023 32.0798 28.4867 32.8505C29.2711 33.6212 30.5428 33.6212 31.3272 32.8505Z" fill="#F2F2F2"/>
<path d="M31.4735 29.7545C30.6937 29.06 29.5603 28.9828 28.7033 29.4886C28.5196 28.8174 27.9655 28.3254 27.2684 28.211C27.6962 27.3235 27.5083 26.2251 26.727 25.5292C25.7732 24.6802 24.2934 24.7519 23.4294 25.689C22.5653 26.6262 22.6383 28.0801 23.5921 28.929C23.9091 29.2116 24.2822 29.3921 24.6763 29.472C24.7745 29.4927 24.8741 29.5079 24.9737 29.5147C25.0873 29.523 25.2009 29.5244 25.3145 29.5161C25.898 29.4775 26.4675 29.2281 26.8911 28.7692C26.9079 28.7513 26.9262 28.7306 26.9416 28.7113C26.9963 28.7127 27.0496 28.7154 27.1029 28.7196C27.3806 28.7499 27.6303 28.8546 27.8224 29.0269C28.016 29.1992 28.1465 29.4321 28.204 29.7008C28.2138 29.7532 28.2236 29.8055 28.2278 29.8593C28.2096 29.8758 28.1927 29.8951 28.1759 29.913C27.7537 30.3706 27.5573 30.9521 27.5756 31.5254C27.5784 31.6371 27.591 31.7487 27.6106 31.859C27.6289 31.9554 27.6527 32.0533 27.6822 32.147C27.8028 32.5232 28.023 32.8719 28.3386 33.153C29.2924 34.002 30.7722 33.9303 31.6362 32.9932C32.5003 32.0588 32.4273 30.6049 31.4735 29.7545ZM25.0775 28.9911C24.6763 28.9745 24.2766 28.8243 23.9554 28.5376C23.2204 27.883 23.1643 26.7667 23.8305 26.046C24.4954 25.3252 25.6329 25.2687 26.3665 25.9233C27.03 26.5145 27.1394 27.4875 26.6597 28.2014L26.6582 28.2028C26.6092 28.2758 26.5531 28.3475 26.4913 28.4164C26.4549 28.455 26.417 28.4935 26.3791 28.528C26.1323 28.754 25.8363 28.896 25.5221 28.958C25.3762 28.9855 25.2262 28.9979 25.0775 28.9911ZM28.7005 32.7616C28.3779 32.475 28.1871 32.1001 28.1296 31.7087C28.1086 31.564 28.1058 31.4166 28.1212 31.2705C28.1521 30.9577 28.2685 30.6531 28.4719 30.3899C28.5027 30.3485 28.5378 30.3085 28.5743 30.2686C28.6374 30.2011 28.7033 30.139 28.7734 30.0839C28.7734 30.0839 28.7734 30.0839 28.7748 30.0825C29.4509 29.5437 30.4468 29.5547 31.1116 30.1459C31.8466 30.8005 31.9013 31.9182 31.2365 32.6376C30.5716 33.3611 29.4355 33.4162 28.7005 32.7616Z" fill="#636466"/>
<path d="M39.8231 8.66279L34.911 26.1486C34.6796 26.9741 33.8099 27.4592 32.9698 27.2304C32.7061 27.1588 32.476 27.0251 32.2923 26.85C31.8911 26.4683 31.7102 25.8895 31.8687 25.3231L32.758 22.1561L16.9824 17.8784L20.4792 5.42969L39.8231 8.66279Z" fill="white"/>
<path opacity="0.2" d="M33.5279 12.1317L33.4185 12.5231L19.5449 8.76082L19.9419 7.34961C22.3081 8.17373 33.5279 12.1317 33.5279 12.1317Z" fill="#3A7EC1"/>
<path opacity="0.2" d="M34.4452 12.5509C33.9627 12.42 33.4746 12.4627 33.0468 12.6391L30.9863 19.9722L33.2053 20.5731L31.8714 25.3235C31.7129 25.8899 31.8013 26.4425 32.0636 26.7871C32.4731 26.6203 32.8434 26.1766 33.0075 25.595L34.333 20.8776L35.918 15.2342L35.9433 15.1418C36.2575 14.0214 35.587 12.861 34.4452 12.5509Z" fill="#3A7EC1"/>
<path d="M32.9712 27.2308L16.2742 22.7037C15.103 22.3853 14.4143 21.1946 14.7383 20.0439L18.1327 7.95898L31.2937 11.527L30.7228 13.5583C30.8631 13.0581 31.1744 12.6515 31.5784 12.38C31.6275 12.347 31.6794 12.3153 31.7313 12.2863C32.2082 12.0203 32.7903 11.9335 33.3612 12.0879C34.5029 12.398 35.1734 13.5583 34.8578 14.6802L31.8688 25.3235C31.6373 26.149 32.1311 27.0034 32.9712 27.2308Z" fill="#5B97EF"/>
<path d="M30.3933 26.532L27.3145 25.6968L30.7369 13.5113C30.8828 13.0331 31.1886 12.6417 31.5799 12.3799C32.6459 12.7341 33.2631 13.8572 32.9601 14.9363L30.0945 25.1387C29.9528 25.6417 30.0819 26.1557 30.3933 26.532Z" fill="#3B82F4"/>
<path d="M24.5347 35.5916L30.7231 13.558C31.0387 12.4362 32.2197 11.7774 33.3615 12.0861L14.5282 6.98013C13.3949 6.6728 12.2223 7.32742 11.9095 8.44095L5.7168 30.4897L24.5347 35.5916Z" fill="white"/>
<path d="M14.659 12.2309C15.0551 11.8418 15.0551 11.2109 14.659 10.8218C14.263 10.4327 13.6209 10.4327 13.2249 10.8218C12.8289 11.2109 12.8289 11.8418 13.2249 12.2309C13.6209 12.62 14.263 12.62 14.659 12.2309Z" fill="#E4ECF9"/>
<path d="M27.6957 15.7727L16.0538 12.6168C15.7915 12.5451 15.6344 12.2764 15.7073 12.0173L15.7129 11.9966C15.7859 11.7389 16.0594 11.5846 16.3231 11.6562L27.965 14.8122C28.2273 14.8838 28.3844 15.1526 28.3115 15.4117L28.3059 15.4323C28.2343 15.69 27.9594 15.843 27.6957 15.7727Z" fill="#E4ECF9"/>
<path d="M13.018 15.8141C13.5781 15.8141 14.0321 15.368 14.0321 14.8177C14.0321 14.2674 13.5781 13.8213 13.018 13.8213C12.4579 13.8213 12.0039 14.2674 12.0039 14.8177C12.0039 15.368 12.4579 15.8141 13.018 15.8141Z" fill="#E4ECF9"/>
<path d="M26.7719 19.0637L15.13 15.9078C14.8677 15.8362 14.7106 15.5674 14.7835 15.3083L14.7891 15.2877C14.862 15.0299 15.1356 14.8756 15.3993 14.9473L27.0412 18.1032C27.3035 18.1748 27.4606 18.4436 27.3877 18.7027L27.382 18.7233C27.3091 18.9824 27.0356 19.1354 26.7719 19.0637Z" fill="#E4ECF9"/>
<path d="M12.0922 19.1061C12.6523 19.1061 13.1063 18.66 13.1063 18.1097C13.1063 17.5594 12.6523 17.1133 12.0922 17.1133C11.5322 17.1133 11.0781 17.5594 11.0781 18.1097C11.0781 18.66 11.5322 19.1061 12.0922 19.1061Z" fill="#E4ECF9"/>
<path d="M25.8461 22.3557L14.2042 19.1998C13.9419 19.1281 13.7848 18.8594 13.8577 18.6003L13.8633 18.5796C13.9363 18.3219 14.2098 18.1676 14.4735 18.2392L26.1154 21.3952C26.3777 21.4668 26.5348 21.7356 26.4619 21.9947L26.4563 22.0153C26.3833 22.273 26.1098 22.426 25.8461 22.3557Z" fill="#E4ECF9"/>
<path d="M11.8856 22.1059C12.2816 21.7168 12.2816 21.0859 11.8856 20.6968C11.4896 20.3077 10.8475 20.3077 10.4515 20.6968C10.0554 21.0859 10.0554 21.7168 10.4515 22.1059C10.8475 22.495 11.4896 22.495 11.8856 22.1059Z" fill="#E4ECF9"/>
<path d="M24.9223 25.6468L13.2803 22.4908C13.0181 22.4192 12.861 22.1504 12.9339 21.8913L12.9395 21.8707C13.0124 21.6129 13.286 21.4586 13.5497 21.5303L25.1916 24.6862C25.4539 24.7579 25.611 25.0266 25.538 25.2857L25.5324 25.3064C25.4595 25.5654 25.186 25.7184 24.9223 25.6468Z" fill="#E4ECF9"/>
<path d="M10.9618 25.3979C11.3578 25.0088 11.3578 24.3779 10.9618 23.9888C10.5658 23.5997 9.92366 23.5997 9.52762 23.9888C9.13159 24.3779 9.13159 25.0088 9.52763 25.3979C9.92366 25.787 10.5657 25.787 10.9618 25.3979Z" fill="#E4ECF9"/>
<path d="M23.9985 28.9378L12.3565 25.7818C12.0942 25.7102 11.9371 25.4414 12.0101 25.1823L12.0157 25.1617C12.0886 24.904 12.3621 24.7496 12.6258 24.8213L24.2678 27.9772C24.5301 28.0489 24.6872 28.3176 24.6142 28.5767L24.6086 28.5974C24.5357 28.8565 24.2608 29.0094 23.9985 28.9378Z" fill="#E4ECF9"/>
<path d="M10.036 28.6889C10.432 28.2998 10.432 27.6689 10.036 27.2798C9.63997 26.8907 8.99787 26.8907 8.60184 27.2798C8.20581 27.6689 8.20581 28.2998 8.60184 28.6889C8.99787 29.078 9.63997 29.078 10.036 28.6889Z" fill="#E4ECF9"/>
<path d="M23.0746 32.2307L11.4327 29.0748C11.1704 29.0031 11.0133 28.7344 11.0862 28.4753L11.0918 28.4546C11.1648 28.1969 11.4383 28.0426 11.702 28.1142L23.3439 31.2702C23.6062 31.3418 23.7633 31.6106 23.6904 31.8697L23.6848 31.8903C23.6118 32.1494 23.3369 32.3024 23.0746 32.2307Z" fill="#E4ECF9"/>
<path d="M12.5372 15.4126C12.4698 15.3947 12.4109 15.3506 12.3731 15.2872L11.9691 14.5871C11.8948 14.4589 11.9411 14.2963 12.0715 14.2233C12.2019 14.1502 12.3675 14.1957 12.4418 14.3239L12.7125 14.7924L13.9314 14.113C14.0618 14.04 14.2274 14.0855 14.3017 14.2136C14.376 14.3418 14.3298 14.5044 14.1993 14.5774L12.7448 15.3878C12.6788 15.425 12.6045 15.4319 12.5372 15.4126Z" fill="#F9C067"/>
<path d="M10.7442 21.8022C10.6769 21.7843 10.618 21.7402 10.5801 21.6768L10.1761 20.9767C10.1018 20.8486 10.1481 20.686 10.2785 20.6129C10.409 20.5399 10.5745 20.5854 10.6488 20.7135L10.9195 21.1821L12.1384 20.5027C12.2689 20.4296 12.4344 20.4751 12.5087 20.6033C12.5831 20.7314 12.5368 20.8941 12.4063 20.9671L10.9518 21.7774C10.8845 21.8133 10.8115 21.8215 10.7442 21.8022Z" fill="#F9C067"/>
<path d="M9.79108 25.1909C9.72375 25.173 9.66484 25.1289 9.62697 25.0655L9.22301 24.3654C9.14867 24.2372 9.19496 24.0746 9.3254 24.0016C9.45585 23.9285 9.62136 23.974 9.6957 24.1022L9.96641 24.5708L11.1853 23.8913C11.3158 23.8183 11.4813 23.8638 11.5556 23.9919C11.6299 24.1201 11.5837 24.2827 11.4532 24.3558L9.99867 25.1661C9.93275 25.2019 9.85841 25.2088 9.79108 25.1909Z" fill="#F9C067"/>
<path d="M8.8946 28.3853C8.82727 28.3673 8.76836 28.3232 8.73049 28.2598L8.32653 27.5598C8.25219 27.4316 8.29847 27.269 8.42892 27.1959C8.55936 27.1229 8.72488 27.1684 8.79922 27.2965L9.06993 27.7651L10.2888 27.0857C10.4193 27.0126 10.5848 27.0581 10.6591 27.1863C10.7335 27.3144 10.6872 27.4771 10.5567 27.5501L9.10219 28.3604C9.03486 28.3963 8.96052 28.4032 8.8946 28.3853Z" fill="#F9C067"/>
<path d="M24.7981 2.38969C25.4698 2.38969 26.0142 1.85474 26.0142 1.19484C26.0142 0.53495 25.4698 0 24.7981 0C24.1265 0 23.582 0.53495 23.582 1.19484C23.582 1.85474 24.1265 2.38969 24.7981 2.38969Z" fill="#4786D1"/>
<path d="M2.4072 17.3229C2.52441 16.7941 2.18315 16.2721 1.64498 16.157C1.10681 16.0418 0.575521 16.3771 0.458315 16.9059C0.341108 17.4346 0.682368 17.9566 1.22054 18.0718C1.75871 18.187 2.28999 17.8517 2.4072 17.3229Z" fill="#4786D1"/>
<path d="M37.5833 34.4151C38.2549 34.4151 38.7994 33.8801 38.7994 33.2202C38.7994 32.5603 38.2549 32.0254 37.5833 32.0254C36.9116 32.0254 36.3672 32.5603 36.3672 33.2202C36.3672 33.8801 36.9116 34.4151 37.5833 34.4151Z" fill="#4786D1"/>
</svg>
