<svg width="24" height="24" viewBox="0 0 24 24" fill="none" xmlns="http://www.w3.org/2000/svg">
<path d="M14.4909 10.2857L13.7554 13.7143H9.50914L10.2446 10.2857H14.4891H14.4909ZM4.28571 0C3.14907 0 2.05898 0.451529 1.25526 1.25526C0.451529 2.05898 0 3.14907 0 4.28571V19.7143C0 20.8509 0.451529 21.941 1.25526 22.7447C2.05898 23.5485 3.14907 24 4.28571 24H19.7143C20.8509 24 21.941 23.5485 22.7447 22.7447C23.5485 21.941 24 20.8509 24 19.7143V4.28571C24 3.14907 23.5485 2.05898 22.7447 1.25526C21.941 0.451529 20.8509 0 19.7143 0H4.28571ZM10.4657 5.16171C10.5758 5.18532 10.6802 5.23039 10.7729 5.29435C10.8655 5.35831 10.9447 5.4399 11.0058 5.53447C11.067 5.62903 11.1089 5.73471 11.1291 5.84548C11.1494 5.95624 11.1477 6.06991 11.124 6.18L10.6114 8.57143H14.8577L15.4457 5.82C15.4935 5.59767 15.6276 5.40342 15.8185 5.27996C16.0095 5.15651 16.2417 5.11398 16.464 5.16171C16.6863 5.20945 16.8806 5.34356 17.004 5.53452C17.1275 5.72549 17.17 5.95767 17.1223 6.18L16.6114 8.57143H18.0017C18.229 8.57143 18.4471 8.66173 18.6078 8.82248C18.7686 8.98322 18.8589 9.20124 18.8589 9.42857C18.8589 9.6559 18.7686 9.87392 18.6078 10.0347C18.4471 10.1954 18.229 10.2857 18.0017 10.2857H16.2446L15.5109 13.7143H17.1429C17.3702 13.7143 17.5882 13.8046 17.7489 13.9653C17.9097 14.1261 18 14.3441 18 14.5714C18 14.7988 17.9097 15.0168 17.7489 15.1775C17.5882 15.3383 17.3702 15.4286 17.1429 15.4286H15.1423L14.5526 18.1783C14.5048 18.4006 14.3707 18.5949 14.1798 18.7183C13.9888 18.8418 13.7566 18.8843 13.5343 18.8366C13.312 18.7888 13.1177 18.6547 12.9942 18.4638C12.8708 18.2728 12.8283 18.0406 12.876 17.8183L13.3886 15.4286H9.14229L8.55257 18.18C8.52893 18.2901 8.48384 18.3944 8.41988 18.4871C8.35591 18.5798 8.27432 18.6589 8.17976 18.72C7.9888 18.8435 7.75661 18.886 7.53429 18.8383C7.31196 18.7905 7.1177 18.6564 6.99425 18.4655C6.8708 18.2745 6.82826 18.0423 6.876 17.82L7.39029 15.4286H6C5.77267 15.4286 5.55465 15.3383 5.39391 15.1775C5.23316 15.0168 5.14286 14.7988 5.14286 14.5714C5.14286 14.3441 5.23316 14.1261 5.39391 13.9653C5.55465 13.8046 5.77267 13.7143 6 13.7143H7.75543L8.49257 10.2857H6.85714C6.62981 10.2857 6.4118 10.1954 6.25105 10.0347C6.09031 9.87392 6 9.6559 6 9.42857C6 9.20124 6.09031 8.98322 6.25105 8.82248C6.4118 8.66173 6.62981 8.57143 6.85714 8.57143H8.85771L9.44743 5.82C9.47104 5.7099 9.51611 5.60553 9.58006 5.51285C9.64402 5.42017 9.72562 5.34101 9.82018 5.27988C9.91474 5.21874 10.0204 5.17684 10.1312 5.15657C10.242 5.13629 10.3556 5.13804 10.4657 5.16171Z" fill="#DEDEDE"/>
</svg>
