<svg width="24" height="24" viewBox="0 0 24 24" fill="none" xmlns="http://www.w3.org/2000/svg">
<path d="M15.4103 14.686C15.2582 14.6375 14.2962 14.2149 14.8973 12.4342H14.8887C16.4556 10.8615 17.653 8.33083 17.653 5.83932C17.653 2.00832 15.039 0 12.001 0C8.96103 0 6.3614 2.00738 6.3614 5.83932C6.3614 8.34109 7.5521 10.882 9.12853 12.451C9.74303 14.0218 8.64421 14.6048 8.41449 14.6869C5.23291 15.8082 1.5 17.8519 1.5 19.8696V20.6261C1.5 23.375 6.96919 24 12.0306 24C17.0997 24 22.5 23.375 22.5 20.6261V19.8696C22.5 17.7913 18.7489 15.7634 15.4103 14.686Z" fill="#DEDEDE"/>
</svg>
