<svg width="32" height="32" viewBox="0 0 32 32" fill="none" xmlns="http://www.w3.org/2000/svg">
<path d="M29.1771 0H2.99845C1.33419 0.266843 0.0421143 1.72745 0.0421143 3.46895V28.5381C0.0421143 30.2796 1.32717 31.7332 2.99845 32.0071H29.1771C30.5886 31.7824 31.7261 30.7009 32.0421 29.3246V2.68247C31.7332 1.30612 30.5956 0.22471 29.1771 0ZM18.7 17.3448C18.1523 20.9401 15.4698 22.9976 12.0009 22.9976C8.10357 22.9976 4.93657 19.8376 4.93657 15.9333C4.93657 12.036 8.09654 8.87603 12.0009 8.87603C13.8898 8.87603 15.54 9.55015 16.7408 10.7158L14.7114 12.7452C14.0233 12.0571 13.0893 11.6849 11.9938 11.6849C9.6976 11.6849 7.83672 13.6441 7.83672 15.9333C7.83672 18.2296 9.6976 20.1326 11.9938 20.1326C13.9179 20.1326 15.3715 19.2056 15.7928 17.3377H11.9938V14.5008H18.6719C18.7492 14.9572 18.7913 15.4347 18.7913 15.9333C18.8054 16.4319 18.7702 16.9024 18.7 17.3448ZM27.1828 16.467H24.711V18.9388H22.9555V16.467H20.4837V14.7115H22.9555V12.2396H24.711V14.7115H27.1828V16.467Z" fill="#DD4B39"/>
</svg>
