<svg width="24" height="19" viewBox="0 0 24 19" fill="none" xmlns="http://www.w3.org/2000/svg">
<path d="M22.7997 0.613163C22.6975 0.602904 22.5944 0.602904 22.4922 0.613163H1.49223C1.35763 0.615183 1.22393 0.634838 1.09473 0.671599L11.9322 11.1827L22.7997 0.613163Z" fill="#DEDEDE"/>
<path d="M23.91 1.62842L12.99 12.2199C12.7089 12.492 12.3288 12.6447 11.9325 12.6447C11.5362 12.6447 11.156 12.492 10.875 12.2199L0.0525 1.70877C0.0192296 1.82786 0.00158901 1.95058 0 2.07399V16.6829C0 17.0704 0.158035 17.442 0.439339 17.716C0.720644 17.9899 1.10217 18.1438 1.5 18.1438H22.5C22.8978 18.1438 23.2793 17.9899 23.5606 17.716C23.8419 17.442 24 17.0704 24 16.6829V2.07399C23.994 1.92181 23.9636 1.77147 23.91 1.62842ZM2.5275 16.6829H1.485V15.6384L6.93749 10.3719L7.99499 11.4018L2.5275 16.6829ZM22.485 16.6829H21.435L15.9675 11.4018L17.025 10.3719L22.4775 15.6384L22.485 16.6829Z" fill="#DEDEDE"/>
</svg>
