<svg width="24" height="24" viewBox="0 0 24 24" fill="none" xmlns="http://www.w3.org/2000/svg">
<path d="M19 8H21.3333C21.6428 8 21.9395 8.12041 22.1583 8.33474C22.3771 8.54906 22.5 8.83975 22.5 9.14286V22.8571C22.5 23.1602 22.3771 23.4509 22.1583 23.6653C21.9395 23.8796 21.6428 24 21.3333 24H2.66667C2.35725 24 2.0605 23.8796 1.84171 23.6653C1.62292 23.4509 1.5 23.1602 1.5 22.8571V9.14286C1.5 8.83975 1.62292 8.54906 1.84171 8.33474C2.0605 8.12041 2.35725 8 2.66667 8H5V6.85714C5 5.03852 5.7375 3.29437 7.05025 2.00841C8.36301 0.722447 10.1435 0 12 0C13.8565 0 15.637 0.722447 16.9497 2.00841C18.2625 3.29437 19 5.03852 19 6.85714V8ZM16.6667 8V6.85714C16.6667 5.64472 16.175 4.48196 15.2998 3.62465C14.4247 2.76735 13.2377 2.28571 12 2.28571C10.7623 2.28571 9.57534 2.76735 8.70017 3.62465C7.825 4.48196 7.33333 5.64472 7.33333 6.85714V8H16.6667ZM10.8333 14.8571V17.1429H13.1667V14.8571H10.8333ZM6.16667 14.8571V17.1429H8.5V14.8571H6.16667ZM15.5 14.8571V17.1429H17.8333V14.8571H15.5Z" fill="#DEDEDE"/>
</svg>
