<svg width="24" height="24" viewBox="0 0 24 24" fill="none" xmlns="http://www.w3.org/2000/svg">
<path d="M16.001 16.5236L18.0677 14.5208C18.346 14.2543 18.6982 14.072 19.0814 13.9958C19.4646 13.9196 19.8625 13.9529 20.2265 14.0916L22.7453 15.0662C23.1132 15.2109 23.4287 15.458 23.652 15.7762C23.8753 16.0944 23.9964 16.4696 24 16.8544V21.3251C23.9979 21.5869 23.9411 21.8456 23.8331 22.0855C23.7251 22.3255 23.5681 22.5418 23.3715 22.7214C23.175 22.901 22.943 23.0402 22.6895 23.1306C22.436 23.221 22.1662 23.2608 21.8965 23.2475C4.24704 22.1835 0.685788 7.69852 0.0122868 2.1549C-0.0189776 1.88267 0.0095878 1.60711 0.0961037 1.34634C0.18262 1.08558 0.325125 0.845522 0.514246 0.641967C0.703366 0.438412 0.934815 0.27597 1.19337 0.165329C1.45192 0.0546885 1.73171 -0.00164445 2.01434 3.65424e-05H6.47052C6.86817 0.00117727 7.25637 0.117586 7.5852 0.33429C7.91403 0.550994 8.16845 0.858082 8.31573 1.21606L9.32136 3.65704C9.46922 4.0085 9.50694 4.39438 9.42982 4.76649C9.3527 5.1386 9.16415 5.48044 8.88774 5.74931L6.82111 7.75217C6.82111 7.75217 8.01127 15.558 16.001 16.5236Z" fill="#DEDEDE"/>
</svg>
