<svg width="14" height="14" viewBox="0 0 14 14" fill="none" xmlns="http://www.w3.org/2000/svg">
<path d="M6.55474 12.3684H2.26316C1.92815 12.3684 1.60686 12.2353 1.36997 11.9984C1.13308 11.7616 1 11.4403 1 11.1053V3.52632C1 3.19131 1.13308 2.87002 1.36997 2.63313C1.60686 2.39624 1.92815 2.26316 2.26316 2.26316H9.8421C10.1771 2.26316 10.4984 2.39624 10.7353 2.63313C10.9722 2.87002 11.1053 3.19131 11.1053 3.52632V6.05263H1M8.57895 1V3.52632M3.52632 1V3.52632M10.4737 9.52379V10.4737L11.1053 11.1053M13 10.4737C13 11.8689 11.8689 13 10.4737 13C9.07844 13 7.94737 11.8689 7.94737 10.4737C7.94737 9.07844 9.07844 7.94737 10.4737 7.94737C11.8689 7.94737 13 9.07844 13 10.4737Z" stroke="#575757" stroke-linecap="round" stroke-linejoin="round"/>
</svg>
